<svg width="1440" height="288" viewBox="0 0 1440 288" fill="none" xmlns="http://www.w3.org/2000/svg">
<path d="M1440 113C1435 101.5 1481 75.2455 996.18 88.0301C216.705 108.585 7.16344 161.793 0.000980753 108.239L0.000939773 102C-0.25238 104.224 -0.258192 106.301 0.000980753 108.239L0.000947224 121.5L10.5009 144.499L1440 155.999L1440 113Z" fill="#007D70"/>
<path d="M1440 169.5C1443.5 84.9999 1449.87 112.097 975.798 113.117C509.511 114.12 8.27866 177.843 0.000228889 119.523L0.000259387 116.499C-0.138734 117.542 -0.137983 118.549 0.000228889 119.523L0.0002651 129.999L0.000306581 160.499L1440 220L1440 169.5Z" fill="#4D434B"/>
<path d="M1438 214.5C1407.56 162.224 1343.25 168.214 867.85 155.926C404.253 143.943 9.85781 195.678 5.08037e-06 138.112L6.21358e-06 133.5C-0.252639 135.11 -0.25099 136.646 5.08037e-06 138.112L-1.7191e-05 162.5L-5.04077e-05 188L1438 234L1438 214.5Z" fill="white"/>
</svg>
