<svg width="1440" height="325" viewBox="0 0 1440 325" fill="none" xmlns="http://www.w3.org/2000/svg">
<path d="M1440.5 156.5C1436 128.5 1489.87 67.8603 1015.8 66.3367C723.37 65.3968 410.873 87.7317 216.406 90.0933L31.8657 74.1272C25.8387 70.5012 23.0253 66.1628 23.7401 61.0137L1.49995 61.0137L1.49992 71.5L31.8657 74.1272C54.2906 87.6188 121.205 91.2494 216.406 90.0933L1440.5 196L1440.5 156.5Z" fill="#007D70"/>
<path d="M1441 192.999C1413.08 140.692 1374.12 113.51 901.25 79.7561C442.132 46.9838 12.6032 84.8646 -6.54945e-05 29.7106L-3.8531e-05 24.5C-0.381056 26.3233 -0.377567 28.0587 -6.54945e-05 29.7106L-7.14424e-05 69.5L-3.20152e-05 93.5L1441 311.5L1441 192.999Z" fill="#4D434B"/>
<path d="M1441 192.999C1413.08 140.692 1374.12 113.51 901.25 79.7561C428.38 46.0022 -13.1004 87.1971 -3.8531e-05 24.5L-7.14424e-05 69.5L-3.20152e-05 93.5L1441 311.5L1441 192.999Z" stroke="#4D434B"/>
<path d="M1438 303C1413.59 248.964 1384.33 235.796 914.713 170.925C462.135 108.408 15.8796 109.522 -0.500255 54.4628L-0.500112 47.9999C-1.12433 50.2381 -1.11687 52.3902 -0.500255 54.4628L-0.500867 76L-0.500739 94.6342L1438 324.5L1438 303Z" fill="white"/>
</svg>
