<svg width="314" height="164" viewBox="0 0 314 164" fill="none" xmlns="http://www.w3.org/2000/svg">
<path d="M144.908 119V105.788H148.922C150.53 105.788 151.748 106.166 152.576 106.922C153.416 107.666 153.836 108.68 153.836 109.964V110.252C153.836 111.524 153.416 112.538 152.576 113.294C151.748 114.05 150.53 114.428 148.922 114.428H146.672V119H144.908ZM149.246 107.336H146.672V112.88H149.246C150.17 112.88 150.866 112.616 151.334 112.088C151.802 111.548 152.036 110.888 152.036 110.108C152.036 109.316 151.802 108.656 151.334 108.128C150.866 107.6 150.17 107.336 149.246 107.336Z" fill="#4D434B"/>
<path d="M158.728 119.252C157.636 119.252 156.778 118.982 156.154 118.442C155.542 117.89 155.236 117.116 155.236 116.12C155.236 115.1 155.578 114.332 156.262 113.816C156.946 113.288 157.912 113.024 159.16 113.024H161.59V112.79C161.59 111.458 160.918 110.792 159.574 110.792C159.022 110.792 158.446 110.804 157.846 110.828C157.246 110.852 156.748 110.876 156.352 110.9V109.388C156.736 109.352 157.162 109.328 157.63 109.316C158.11 109.292 158.566 109.28 158.998 109.28C160.474 109.28 161.548 109.55 162.22 110.09C162.904 110.63 163.246 111.572 163.246 112.916V119H161.878V117.092C161.446 118.532 160.396 119.252 158.728 119.252ZM159.088 117.884C159.496 117.884 159.886 117.812 160.258 117.668C160.63 117.512 160.936 117.26 161.176 116.912C161.428 116.552 161.566 116.06 161.59 115.436V114.32H159.088C158.392 114.32 157.858 114.488 157.486 114.824C157.114 115.16 156.928 115.592 156.928 116.12C156.928 116.648 157.114 117.074 157.486 117.398C157.858 117.722 158.392 117.884 159.088 117.884Z" fill="#4D434B"/>
<path d="M166.418 119V109.388H167.786V112.268C167.93 111.236 168.308 110.48 168.92 110C169.532 109.52 170.366 109.28 171.422 109.28H171.746V110.828H171.134C170.174 110.828 169.436 111.086 168.92 111.602C168.404 112.106 168.146 112.838 168.146 113.798V119H166.418Z" fill="#4D434B"/>
<path d="M176.43 119.252C175.338 119.252 174.48 118.982 173.856 118.442C173.244 117.89 172.938 117.116 172.938 116.12C172.938 115.1 173.28 114.332 173.964 113.816C174.648 113.288 175.614 113.024 176.862 113.024H179.292V112.79C179.292 111.458 178.62 110.792 177.276 110.792C176.724 110.792 176.148 110.804 175.548 110.828C174.948 110.852 174.45 110.876 174.054 110.9V109.388C174.438 109.352 174.864 109.328 175.332 109.316C175.812 109.292 176.268 109.28 176.7 109.28C178.176 109.28 179.25 109.55 179.922 110.09C180.606 110.63 180.948 111.572 180.948 112.916V119H179.58V117.092C179.148 118.532 178.098 119.252 176.43 119.252ZM176.79 117.884C177.198 117.884 177.588 117.812 177.96 117.668C178.332 117.512 178.638 117.26 178.878 116.912C179.13 116.552 179.268 116.06 179.292 115.436V114.32H176.79C176.094 114.32 175.56 114.488 175.188 114.824C174.816 115.16 174.63 115.592 174.63 116.12C174.63 116.648 174.816 117.074 175.188 117.398C175.56 117.722 176.094 117.884 176.79 117.884Z" fill="#4D434B"/>
<path d="M192.301 119.324C191.461 119.324 190.735 119.18 190.123 118.892C189.511 118.604 189.013 118.226 188.629 117.758C188.245 117.278 187.957 116.744 187.765 116.156C187.585 115.568 187.495 114.968 187.495 114.356V114.032C187.495 113.408 187.585 112.802 187.765 112.214C187.957 111.626 188.245 111.098 188.629 110.63C189.013 110.15 189.499 109.772 190.087 109.496C190.687 109.208 191.389 109.064 192.193 109.064C193.237 109.064 194.095 109.292 194.767 109.748C195.451 110.192 195.955 110.768 196.279 111.476C196.615 112.184 196.783 112.94 196.783 113.744V114.518H189.151C189.211 115.466 189.493 116.252 189.997 116.876C190.501 117.5 191.269 117.812 192.301 117.812C193.057 117.812 193.669 117.644 194.137 117.308C194.617 116.972 194.905 116.582 195.001 116.138H196.621C196.417 117.134 195.931 117.914 195.163 118.478C194.395 119.042 193.441 119.324 192.301 119.324ZM192.193 110.576C191.329 110.576 190.651 110.822 190.159 111.314C189.667 111.794 189.355 112.43 189.223 113.222H195.091C194.983 112.406 194.689 111.764 194.209 111.296C193.729 110.816 193.057 110.576 192.193 110.576Z" fill="#4D434B"/>
<path d="M199.236 119V109.388H200.604V111.602C200.808 110.798 201.168 110.18 201.684 109.748C202.212 109.316 202.896 109.1 203.736 109.1H203.808C204.624 109.1 205.29 109.304 205.806 109.712C206.322 110.12 206.688 110.708 206.904 111.476C207.132 110.708 207.504 110.12 208.02 109.712C208.548 109.304 209.22 109.1 210.036 109.1H210.108C211.248 109.1 212.094 109.49 212.646 110.27C213.21 111.038 213.492 112.118 213.492 113.51V119H211.764V113.132C211.764 112.352 211.572 111.752 211.188 111.332C210.804 110.9 210.27 110.684 209.586 110.684C208.878 110.684 208.308 110.912 207.876 111.368C207.444 111.812 207.228 112.436 207.228 113.24V119H205.5V113.132C205.5 112.352 205.308 111.752 204.924 111.332C204.54 110.9 204.006 110.684 203.322 110.684C202.614 110.684 202.044 110.912 201.612 111.368C201.18 111.812 200.964 112.436 200.964 113.24V119H199.236Z" fill="#4D434B"/>
<path d="M216.656 122.6V109.388H218.024V111.746C218.348 110.822 218.852 110.144 219.536 109.712C220.22 109.28 220.988 109.064 221.84 109.064C222.776 109.064 223.586 109.292 224.27 109.748C224.966 110.204 225.506 110.81 225.89 111.566C226.274 112.31 226.466 113.132 226.466 114.032V114.356C226.466 115.256 226.268 116.084 225.872 116.84C225.476 117.584 224.924 118.184 224.216 118.64C223.52 119.096 222.716 119.324 221.804 119.324C221.144 119.324 220.508 119.186 219.896 118.91C219.284 118.634 218.78 118.184 218.384 117.56V122.6H216.656ZM221.534 117.812C222.182 117.812 222.746 117.662 223.226 117.362C223.706 117.05 224.078 116.624 224.342 116.084C224.606 115.532 224.738 114.902 224.738 114.194C224.738 113.474 224.606 112.844 224.342 112.304C224.078 111.764 223.706 111.344 223.226 111.044C222.746 110.732 222.182 110.576 221.534 110.576C220.958 110.576 220.424 110.708 219.932 110.972C219.44 111.224 219.044 111.596 218.744 112.088C218.456 112.568 218.312 113.15 218.312 113.834V114.662C218.312 115.322 218.462 115.886 218.762 116.354C219.062 116.822 219.458 117.182 219.95 117.434C220.442 117.686 220.97 117.812 221.534 117.812Z" fill="#4D434B"/>
<path d="M229.066 119V109.388H230.434V112.268C230.578 111.236 230.956 110.48 231.568 110C232.18 109.52 233.014 109.28 234.07 109.28H234.394V110.828H233.782C232.822 110.828 232.084 111.086 231.568 111.602C231.052 112.106 230.794 112.838 230.794 113.798V119H229.066Z" fill="#4D434B"/>
<path d="M240.43 119.324C239.59 119.324 238.864 119.18 238.252 118.892C237.64 118.604 237.142 118.226 236.758 117.758C236.374 117.278 236.086 116.744 235.894 116.156C235.714 115.568 235.624 114.968 235.624 114.356V114.032C235.624 113.408 235.714 112.802 235.894 112.214C236.086 111.626 236.374 111.098 236.758 110.63C237.142 110.15 237.628 109.772 238.216 109.496C238.816 109.208 239.518 109.064 240.322 109.064C241.366 109.064 242.224 109.292 242.896 109.748C243.58 110.192 244.084 110.768 244.408 111.476C244.744 112.184 244.912 112.94 244.912 113.744V114.518H237.28C237.34 115.466 237.622 116.252 238.126 116.876C238.63 117.5 239.398 117.812 240.43 117.812C241.186 117.812 241.798 117.644 242.266 117.308C242.746 116.972 243.034 116.582 243.13 116.138H244.75C244.546 117.134 244.06 117.914 243.292 118.478C242.524 119.042 241.57 119.324 240.43 119.324ZM240.322 110.576C239.458 110.576 238.78 110.822 238.288 111.314C237.796 111.794 237.484 112.43 237.352 113.222H243.22C243.112 112.406 242.818 111.764 242.338 111.296C241.858 110.816 241.186 110.576 240.322 110.576Z" fill="#4D434B"/>
<path d="M250.515 119.288C249.255 119.288 248.277 119.018 247.581 118.478C246.897 117.938 246.543 117.2 246.519 116.264H248.139C248.163 116.636 248.349 116.99 248.697 117.326C249.057 117.65 249.663 117.812 250.515 117.812C251.283 117.812 251.871 117.662 252.279 117.362C252.687 117.05 252.891 116.672 252.891 116.228C252.891 115.832 252.741 115.526 252.441 115.31C252.141 115.082 251.655 114.932 250.983 114.86L249.939 114.752C249.027 114.656 248.283 114.386 247.707 113.942C247.131 113.486 246.843 112.85 246.843 112.034C246.843 111.11 247.185 110.39 247.869 109.874C248.553 109.358 249.435 109.1 250.515 109.1C251.595 109.1 252.471 109.34 253.143 109.82C253.815 110.3 254.163 111.014 254.187 111.962H252.567C252.555 111.578 252.375 111.254 252.027 110.99C251.691 110.714 251.187 110.576 250.515 110.576C249.843 110.576 249.333 110.714 248.985 110.99C248.637 111.266 248.463 111.614 248.463 112.034C248.463 112.394 248.583 112.682 248.823 112.898C249.075 113.114 249.483 113.252 250.047 113.312L251.091 113.42C252.123 113.528 252.951 113.816 253.575 114.284C254.199 114.74 254.511 115.388 254.511 116.228C254.511 116.828 254.337 117.362 253.989 117.83C253.653 118.286 253.185 118.646 252.585 118.91C251.985 119.162 251.295 119.288 250.515 119.288Z" fill="#4D434B"/>
<path d="M259.68 119.252C258.588 119.252 257.73 118.982 257.106 118.442C256.494 117.89 256.188 117.116 256.188 116.12C256.188 115.1 256.53 114.332 257.214 113.816C257.898 113.288 258.864 113.024 260.112 113.024H262.542V112.79C262.542 111.458 261.87 110.792 260.526 110.792C259.974 110.792 259.398 110.804 258.798 110.828C258.198 110.852 257.7 110.876 257.304 110.9V109.388C257.688 109.352 258.114 109.328 258.582 109.316C259.062 109.292 259.518 109.28 259.95 109.28C261.426 109.28 262.5 109.55 263.172 110.09C263.856 110.63 264.198 111.572 264.198 112.916V119H262.83V117.092C262.398 118.532 261.348 119.252 259.68 119.252ZM260.04 117.884C260.448 117.884 260.838 117.812 261.21 117.668C261.582 117.512 261.888 117.26 262.128 116.912C262.38 116.552 262.518 116.06 262.542 115.436V114.32H260.04C259.344 114.32 258.81 114.488 258.438 114.824C258.066 115.16 257.88 115.592 257.88 116.12C257.88 116.648 258.066 117.074 258.438 117.398C258.81 117.722 259.344 117.884 260.04 117.884Z" fill="#4D434B"/>
<path d="M270.519 119.288C269.259 119.288 268.281 119.018 267.585 118.478C266.901 117.938 266.547 117.2 266.523 116.264H268.143C268.167 116.636 268.353 116.99 268.701 117.326C269.061 117.65 269.667 117.812 270.519 117.812C271.287 117.812 271.875 117.662 272.283 117.362C272.691 117.05 272.895 116.672 272.895 116.228C272.895 115.832 272.745 115.526 272.445 115.31C272.145 115.082 271.659 114.932 270.987 114.86L269.943 114.752C269.031 114.656 268.287 114.386 267.711 113.942C267.135 113.486 266.847 112.85 266.847 112.034C266.847 111.11 267.189 110.39 267.873 109.874C268.557 109.358 269.439 109.1 270.519 109.1C271.599 109.1 272.475 109.34 273.147 109.82C273.819 110.3 274.167 111.014 274.191 111.962H272.571C272.559 111.578 272.379 111.254 272.031 110.99C271.695 110.714 271.191 110.576 270.519 110.576C269.847 110.576 269.337 110.714 268.989 110.99C268.641 111.266 268.467 111.614 268.467 112.034C268.467 112.394 268.587 112.682 268.827 112.898C269.079 113.114 269.487 113.252 270.051 113.312L271.095 113.42C272.127 113.528 272.955 113.816 273.579 114.284C274.203 114.74 274.515 115.388 274.515 116.228C274.515 116.828 274.341 117.362 273.993 117.83C273.657 118.286 273.189 118.646 272.589 118.91C271.989 119.162 271.299 119.288 270.519 119.288Z" fill="#4D434B"/>
<path d="M283.779 119.252C282.687 119.252 281.829 118.982 281.205 118.442C280.593 117.89 280.287 117.116 280.287 116.12C280.287 115.1 280.629 114.332 281.313 113.816C281.997 113.288 282.963 113.024 284.211 113.024H286.641V112.79C286.641 111.458 285.969 110.792 284.625 110.792C284.073 110.792 283.497 110.804 282.897 110.828C282.297 110.852 281.799 110.876 281.403 110.9V109.388C281.787 109.352 282.213 109.328 282.681 109.316C283.161 109.292 283.617 109.28 284.049 109.28C285.525 109.28 286.599 109.55 287.271 110.09C287.955 110.63 288.297 111.572 288.297 112.916V119H286.929V117.092C286.497 118.532 285.447 119.252 283.779 119.252ZM284.139 117.884C284.547 117.884 284.937 117.812 285.309 117.668C285.681 117.512 285.987 117.26 286.227 116.912C286.479 116.552 286.617 116.06 286.641 115.436V114.32H284.139C283.443 114.32 282.909 114.488 282.537 114.824C282.165 115.16 281.979 115.592 281.979 116.12C281.979 116.648 282.165 117.074 282.537 117.398C282.909 117.722 283.443 117.884 284.139 117.884Z" fill="#4D434B"/>
<path d="M295.213 119.108C294.493 119.108 293.869 119.006 293.341 118.802C292.825 118.598 292.423 118.25 292.135 117.758C291.859 117.254 291.721 116.576 291.721 115.724V110.684H290.065V109.388H291.721V106.472H293.377V109.388H296.689V110.684H293.377V115.94C293.377 116.456 293.515 116.858 293.791 117.146C294.079 117.422 294.481 117.56 294.997 117.56H296.689V119.108H295.213Z" fill="#4D434B"/>
<path d="M303.148 119.324C302.308 119.324 301.583 119.18 300.971 118.892C300.359 118.604 299.861 118.226 299.477 117.758C299.093 117.278 298.805 116.744 298.613 116.156C298.433 115.568 298.342 114.968 298.342 114.356V114.032C298.342 113.408 298.433 112.802 298.613 112.214C298.805 111.626 299.093 111.098 299.477 110.63C299.861 110.15 300.347 109.772 300.935 109.496C301.535 109.208 302.236 109.064 303.04 109.064C304.084 109.064 304.943 109.292 305.615 109.748C306.299 110.192 306.802 110.768 307.126 111.476C307.462 112.184 307.63 112.94 307.63 113.744V114.518H299.999C300.059 115.466 300.341 116.252 300.845 116.876C301.349 117.5 302.116 117.812 303.148 117.812C303.904 117.812 304.516 117.644 304.984 117.308C305.464 116.972 305.753 116.582 305.849 116.138H307.469C307.265 117.134 306.778 117.914 306.01 118.478C305.242 119.042 304.288 119.324 303.148 119.324ZM303.04 110.576C302.176 110.576 301.499 110.822 301.007 111.314C300.515 111.794 300.202 112.43 300.07 113.222H305.939C305.831 112.406 305.537 111.764 305.057 111.296C304.577 110.816 303.904 110.576 303.04 110.576ZM302.159 107.984L303.743 104.42H305.561L303.562 107.984H302.159Z" fill="#4D434B"/>
<path d="M146.672 144V132.336H143.756V130.86H148.4V144H146.672Z" fill="#4D434B"/>
<path d="M157.255 144.324C156.271 144.324 155.431 144.156 154.735 143.82C154.051 143.472 153.493 143.004 153.061 142.416C152.641 141.828 152.335 141.15 152.143 140.382C151.951 139.602 151.855 138.78 151.855 137.916V136.944C151.855 135.732 152.041 134.64 152.413 133.668C152.797 132.696 153.385 131.928 154.177 131.364C154.981 130.788 156.007 130.5 157.255 130.5C158.503 130.5 159.523 130.788 160.315 131.364C161.107 131.928 161.689 132.696 162.061 133.668C162.445 134.64 162.637 135.732 162.637 136.944V137.916C162.637 138.78 162.541 139.602 162.349 140.382C162.157 141.15 161.845 141.828 161.413 142.416C160.993 143.004 160.441 143.472 159.757 143.82C159.073 144.156 158.239 144.324 157.255 144.324ZM157.255 142.74C158.503 142.74 159.415 142.32 159.991 141.48C160.579 140.628 160.873 139.284 160.873 137.448C160.873 135.528 160.573 134.154 159.973 133.326C159.385 132.498 158.479 132.084 157.255 132.084C156.019 132.084 155.101 132.498 154.501 133.326C153.913 134.154 153.619 135.516 153.619 137.412C153.619 139.26 153.913 140.61 154.501 141.462C155.089 142.314 156.007 142.74 157.255 142.74Z" fill="#4D434B"/>
<path d="M170.632 144.324C169.648 144.324 168.808 144.156 168.112 143.82C167.428 143.472 166.87 143.004 166.438 142.416C166.018 141.828 165.712 141.15 165.52 140.382C165.328 139.602 165.232 138.78 165.232 137.916V136.944C165.232 135.732 165.418 134.64 165.79 133.668C166.174 132.696 166.762 131.928 167.554 131.364C168.358 130.788 169.384 130.5 170.632 130.5C171.88 130.5 172.9 130.788 173.692 131.364C174.484 131.928 175.066 132.696 175.438 133.668C175.822 134.64 176.014 135.732 176.014 136.944V137.916C176.014 138.78 175.918 139.602 175.726 140.382C175.534 141.15 175.222 141.828 174.79 142.416C174.37 143.004 173.818 143.472 173.134 143.82C172.45 144.156 171.616 144.324 170.632 144.324ZM170.632 142.74C171.88 142.74 172.792 142.32 173.368 141.48C173.956 140.628 174.25 139.284 174.25 137.448C174.25 135.528 173.95 134.154 173.35 133.326C172.762 132.498 171.856 132.084 170.632 132.084C169.396 132.084 168.478 132.498 167.878 133.326C167.29 134.154 166.996 135.516 166.996 137.412C166.996 139.26 167.29 140.61 167.878 141.462C168.466 142.314 169.384 142.74 170.632 142.74Z" fill="#4D434B"/>
<path d="M187.186 144.324C186.358 144.324 185.638 144.18 185.026 143.892C184.426 143.604 183.928 143.22 183.532 142.74C183.136 142.248 182.836 141.708 182.632 141.12C182.44 140.532 182.344 139.944 182.344 139.356V139.032C182.344 138.42 182.44 137.82 182.632 137.232C182.836 136.644 183.136 136.116 183.532 135.648C183.94 135.168 184.444 134.784 185.044 134.496C185.644 134.208 186.346 134.064 187.15 134.064C187.954 134.064 188.674 134.214 189.31 134.514C189.958 134.814 190.474 135.24 190.858 135.792C191.254 136.332 191.476 136.974 191.524 137.718H189.868C189.784 137.118 189.508 136.62 189.04 136.224C188.572 135.816 187.942 135.612 187.15 135.612C186.466 135.612 185.896 135.768 185.44 136.08C184.984 136.392 184.642 136.818 184.414 137.358C184.186 137.898 184.072 138.51 184.072 139.194C184.072 139.854 184.186 140.46 184.414 141.012C184.642 141.552 184.984 141.984 185.44 142.308C185.908 142.62 186.49 142.776 187.186 142.776C187.99 142.776 188.638 142.572 189.13 142.164C189.622 141.744 189.904 141.228 189.976 140.616H191.632C191.596 141.372 191.374 142.026 190.966 142.578C190.57 143.13 190.042 143.562 189.382 143.874C188.734 144.174 188.002 144.324 187.186 144.324Z" fill="#4D434B"/>
<path d="M198.408 144.324C197.568 144.324 196.83 144.18 196.194 143.892C195.558 143.604 195.018 143.226 194.574 142.758C194.142 142.278 193.812 141.744 193.584 141.156C193.368 140.568 193.26 139.968 193.26 139.356V139.032C193.26 138.42 193.374 137.82 193.602 137.232C193.83 136.632 194.166 136.098 194.61 135.63C195.054 135.15 195.594 134.772 196.23 134.496C196.866 134.208 197.592 134.064 198.408 134.064C199.224 134.064 199.95 134.208 200.586 134.496C201.222 134.772 201.762 135.15 202.206 135.63C202.65 136.098 202.986 136.632 203.214 137.232C203.442 137.82 203.556 138.42 203.556 139.032V139.356C203.556 139.968 203.442 140.568 203.214 141.156C202.998 141.744 202.668 142.278 202.224 142.758C201.792 143.226 201.258 143.604 200.622 143.892C199.986 144.18 199.248 144.324 198.408 144.324ZM198.408 142.776C199.128 142.776 199.74 142.62 200.244 142.308C200.76 141.984 201.15 141.552 201.414 141.012C201.69 140.472 201.828 139.866 201.828 139.194C201.828 138.51 201.69 137.898 201.414 137.358C201.138 136.818 200.742 136.392 200.226 136.08C199.722 135.768 199.116 135.612 198.408 135.612C197.712 135.612 197.106 135.768 196.59 136.08C196.074 136.392 195.678 136.818 195.402 137.358C195.126 137.898 194.988 138.51 194.988 139.194C194.988 139.866 195.12 140.472 195.384 141.012C195.66 141.552 196.05 141.984 196.554 142.308C197.07 142.62 197.688 142.776 198.408 142.776Z" fill="#4D434B"/>
<path d="M206.253 144V132.228H204.921V130.86H207.981V144H206.253Z" fill="#4D434B"/>
<path d="M213.959 144.252C212.867 144.252 212.009 143.982 211.385 143.442C210.773 142.89 210.467 142.116 210.467 141.12C210.467 140.1 210.809 139.332 211.493 138.816C212.177 138.288 213.143 138.024 214.391 138.024H216.821V137.79C216.821 136.458 216.149 135.792 214.805 135.792C214.253 135.792 213.677 135.804 213.077 135.828C212.477 135.852 211.979 135.876 211.583 135.9V134.388C211.967 134.352 212.393 134.328 212.861 134.316C213.341 134.292 213.797 134.28 214.229 134.28C215.705 134.28 216.779 134.55 217.451 135.09C218.135 135.63 218.477 136.572 218.477 137.916V144H217.109V142.092C216.677 143.532 215.627 144.252 213.959 144.252ZM214.319 142.884C214.727 142.884 215.117 142.812 215.489 142.668C215.861 142.512 216.167 142.26 216.407 141.912C216.659 141.552 216.797 141.06 216.821 140.436V139.32H214.319C213.623 139.32 213.089 139.488 212.717 139.824C212.345 140.16 212.159 140.592 212.159 141.12C212.159 141.648 212.345 142.074 212.717 142.398C213.089 142.722 213.623 142.884 214.319 142.884Z" fill="#4D434B"/>
<path d="M226.724 144.324C225.872 144.324 225.122 144.126 224.474 143.73C223.838 143.334 223.352 142.764 223.016 142.02V144H221.648V130.86H223.376V136.044C223.736 135.372 224.222 134.874 224.834 134.55C225.446 134.226 226.124 134.064 226.868 134.064C227.792 134.064 228.596 134.286 229.28 134.73C229.964 135.174 230.498 135.768 230.882 136.512C231.266 137.256 231.458 138.084 231.458 138.996V139.32C231.458 140.22 231.26 141.054 230.864 141.822C230.468 142.578 229.916 143.184 229.208 143.64C228.5 144.096 227.672 144.324 226.724 144.324ZM226.526 142.812C227.174 142.812 227.738 142.656 228.218 142.344C228.698 142.032 229.07 141.606 229.334 141.066C229.598 140.514 229.73 139.878 229.73 139.158C229.73 138.078 229.436 137.214 228.848 136.566C228.26 135.906 227.486 135.576 226.526 135.576C225.95 135.576 225.416 135.708 224.924 135.972C224.432 136.224 224.036 136.596 223.736 137.088C223.448 137.568 223.304 138.15 223.304 138.834V139.662C223.304 140.322 223.454 140.886 223.754 141.354C224.054 141.822 224.45 142.182 224.942 142.434C225.434 142.686 225.962 142.812 226.526 142.812Z" fill="#4D434B"/>
<path d="M238.487 144.324C237.647 144.324 236.909 144.18 236.273 143.892C235.637 143.604 235.097 143.226 234.653 142.758C234.221 142.278 233.891 141.744 233.663 141.156C233.447 140.568 233.339 139.968 233.339 139.356V139.032C233.339 138.42 233.453 137.82 233.681 137.232C233.909 136.632 234.245 136.098 234.689 135.63C235.133 135.15 235.673 134.772 236.309 134.496C236.945 134.208 237.671 134.064 238.487 134.064C239.303 134.064 240.029 134.208 240.665 134.496C241.301 134.772 241.841 135.15 242.285 135.63C242.729 136.098 243.065 136.632 243.293 137.232C243.521 137.82 243.635 138.42 243.635 139.032V139.356C243.635 139.968 243.521 140.568 243.293 141.156C243.077 141.744 242.747 142.278 242.303 142.758C241.871 143.226 241.337 143.604 240.701 143.892C240.065 144.18 239.327 144.324 238.487 144.324ZM238.487 142.776C239.207 142.776 239.819 142.62 240.323 142.308C240.839 141.984 241.229 141.552 241.493 141.012C241.769 140.472 241.907 139.866 241.907 139.194C241.907 138.51 241.769 137.898 241.493 137.358C241.217 136.818 240.821 136.392 240.305 136.08C239.801 135.768 239.195 135.612 238.487 135.612C237.791 135.612 237.185 135.768 236.669 136.08C236.153 136.392 235.757 136.818 235.481 137.358C235.205 137.898 235.067 138.51 235.067 139.194C235.067 139.866 235.199 140.472 235.463 141.012C235.739 141.552 236.129 141.984 236.633 142.308C237.149 142.62 237.767 142.776 238.487 142.776Z" fill="#4D434B"/>
<path d="M246.223 144V134.388H247.591V137.268C247.735 136.236 248.113 135.48 248.725 135C249.337 134.52 250.171 134.28 251.227 134.28H251.551V135.828H250.939C249.979 135.828 249.241 136.086 248.725 136.602C248.209 137.106 247.951 137.838 247.951 138.798V144H246.223Z" fill="#4D434B"/>
<path d="M256.234 144.252C255.142 144.252 254.284 143.982 253.66 143.442C253.048 142.89 252.742 142.116 252.742 141.12C252.742 140.1 253.084 139.332 253.768 138.816C254.452 138.288 255.418 138.024 256.666 138.024H259.096V137.79C259.096 136.458 258.424 135.792 257.08 135.792C256.528 135.792 255.952 135.804 255.352 135.828C254.752 135.852 254.254 135.876 253.858 135.9V134.388C254.242 134.352 254.668 134.328 255.136 134.316C255.616 134.292 256.072 134.28 256.504 134.28C257.98 134.28 259.054 134.55 259.726 135.09C260.41 135.63 260.752 136.572 260.752 137.916V144H259.384V142.092C258.952 143.532 257.902 144.252 256.234 144.252ZM256.594 142.884C257.002 142.884 257.392 142.812 257.764 142.668C258.136 142.512 258.442 142.26 258.682 141.912C258.934 141.552 259.072 141.06 259.096 140.436V139.32H256.594C255.898 139.32 255.364 139.488 254.992 139.824C254.62 140.16 254.434 140.592 254.434 141.12C254.434 141.648 254.62 142.074 254.992 142.398C255.364 142.722 255.898 142.884 256.594 142.884Z" fill="#4D434B"/>
<path d="M267.938 144.324C267.026 144.324 266.21 144.102 265.49 143.658C264.782 143.214 264.224 142.62 263.816 141.876C263.408 141.12 263.204 140.28 263.204 139.356V139.032C263.204 138.12 263.402 137.292 263.798 136.548C264.194 135.792 264.74 135.192 265.436 134.748C266.144 134.292 266.96 134.064 267.884 134.064C268.592 134.064 269.24 134.208 269.828 134.496C270.428 134.784 270.914 135.234 271.286 135.846V130.86H273.014V144H271.646V142.02C271.274 142.836 270.752 143.424 270.08 143.784C269.42 144.144 268.706 144.324 267.938 144.324ZM268.172 142.812C268.76 142.812 269.294 142.68 269.774 142.416C270.254 142.152 270.638 141.774 270.926 141.282C271.214 140.778 271.358 140.19 271.358 139.518V138.69C271.358 138.03 271.208 137.472 270.908 137.016C270.62 136.548 270.23 136.194 269.738 135.954C269.258 135.702 268.73 135.576 268.154 135.576C267.194 135.576 266.414 135.906 265.814 136.566C265.226 137.226 264.932 138.102 264.932 139.194C264.932 139.926 265.07 140.568 265.346 141.12C265.622 141.66 266.006 142.08 266.498 142.38C266.99 142.668 267.548 142.812 268.172 142.812Z" fill="#4D434B"/>
<path d="M280.762 144.324C279.922 144.324 279.184 144.18 278.548 143.892C277.912 143.604 277.372 143.226 276.928 142.758C276.496 142.278 276.166 141.744 275.938 141.156C275.722 140.568 275.614 139.968 275.614 139.356V139.032C275.614 138.42 275.728 137.82 275.956 137.232C276.184 136.632 276.52 136.098 276.964 135.63C277.408 135.15 277.948 134.772 278.584 134.496C279.22 134.208 279.946 134.064 280.762 134.064C281.578 134.064 282.304 134.208 282.94 134.496C283.576 134.772 284.116 135.15 284.56 135.63C285.004 136.098 285.34 136.632 285.568 137.232C285.796 137.82 285.91 138.42 285.91 139.032V139.356C285.91 139.968 285.796 140.568 285.568 141.156C285.352 141.744 285.022 142.278 284.578 142.758C284.146 143.226 283.612 143.604 282.976 143.892C282.34 144.18 281.602 144.324 280.762 144.324ZM280.762 142.776C281.482 142.776 282.094 142.62 282.598 142.308C283.114 141.984 283.504 141.552 283.768 141.012C284.044 140.472 284.182 139.866 284.182 139.194C284.182 138.51 284.044 137.898 283.768 137.358C283.492 136.818 283.096 136.392 282.58 136.08C282.076 135.768 281.47 135.612 280.762 135.612C280.066 135.612 279.46 135.768 278.944 136.08C278.428 136.392 278.032 136.818 277.756 137.358C277.48 137.898 277.342 138.51 277.342 139.194C277.342 139.866 277.474 140.472 277.738 141.012C278.014 141.552 278.404 141.984 278.908 142.308C279.424 142.62 280.042 142.776 280.762 142.776Z" fill="#4D434B"/>
<path d="M288.498 144V134.388H289.866V137.268C290.01 136.236 290.388 135.48 291 135C291.612 134.52 292.446 134.28 293.502 134.28H293.826V135.828H293.214C292.254 135.828 291.516 136.086 291 136.602C290.484 137.106 290.226 137.838 290.226 138.798V144H288.498Z" fill="#4D434B"/>
<path d="M299.861 144.324C299.021 144.324 298.295 144.18 297.683 143.892C297.071 143.604 296.573 143.226 296.189 142.758C295.805 142.278 295.517 141.744 295.325 141.156C295.145 140.568 295.055 139.968 295.055 139.356V139.032C295.055 138.408 295.145 137.802 295.325 137.214C295.517 136.626 295.805 136.098 296.189 135.63C296.573 135.15 297.059 134.772 297.647 134.496C298.247 134.208 298.949 134.064 299.753 134.064C300.797 134.064 301.655 134.292 302.327 134.748C303.011 135.192 303.515 135.768 303.839 136.476C304.175 137.184 304.343 137.94 304.343 138.744V139.518H296.711C296.771 140.466 297.053 141.252 297.557 141.876C298.061 142.5 298.829 142.812 299.861 142.812C300.617 142.812 301.229 142.644 301.697 142.308C302.177 141.972 302.465 141.582 302.561 141.138H304.181C303.977 142.134 303.491 142.914 302.723 143.478C301.955 144.042 301.001 144.324 299.861 144.324ZM299.753 135.576C298.889 135.576 298.211 135.822 297.719 136.314C297.227 136.794 296.915 137.43 296.783 138.222H302.651C302.543 137.406 302.249 136.764 301.769 136.296C301.289 135.816 300.617 135.576 299.753 135.576Z" fill="#4D434B"/>
<path d="M309.947 144.288C308.687 144.288 307.709 144.018 307.013 143.478C306.329 142.938 305.975 142.2 305.951 141.264H307.571C307.595 141.636 307.781 141.99 308.129 142.326C308.489 142.65 309.095 142.812 309.947 142.812C310.715 142.812 311.303 142.662 311.711 142.362C312.119 142.05 312.323 141.672 312.323 141.228C312.323 140.832 312.173 140.526 311.873 140.31C311.573 140.082 311.087 139.932 310.415 139.86L309.371 139.752C308.459 139.656 307.715 139.386 307.139 138.942C306.563 138.486 306.275 137.85 306.275 137.034C306.275 136.11 306.617 135.39 307.301 134.874C307.985 134.358 308.867 134.1 309.947 134.1C311.027 134.1 311.903 134.34 312.575 134.82C313.247 135.3 313.595 136.014 313.619 136.962H311.999C311.987 136.578 311.807 136.254 311.459 135.99C311.123 135.714 310.619 135.576 309.947 135.576C309.275 135.576 308.765 135.714 308.417 135.99C308.069 136.266 307.895 136.614 307.895 137.034C307.895 137.394 308.015 137.682 308.255 137.898C308.507 138.114 308.915 138.252 309.479 138.312L310.523 138.42C311.555 138.528 312.383 138.816 313.007 139.284C313.631 139.74 313.943 140.388 313.943 141.228C313.943 141.828 313.769 142.362 313.421 142.83C313.085 143.286 312.617 143.646 312.017 143.91C311.417 144.162 310.727 144.288 309.947 144.288Z" fill="#4D434B"/>
<path d="M22.0003 28C22.0003 25.7908 23.7911 24 26.0003 24H84.0003C86.2094 24 88.0003 25.7908 88.0003 28V48C88.0003 50.2091 86.2094 52 84.0003 52H26.0003C23.7911 52 22.0003 50.2091 22.0003 48V28Z" fill="#B0D7D3"/>
<path d="M144.738 93.4V77.054H147.158V80.046C147.525 78.9313 148.126 78.0953 148.962 77.5379C149.798 76.9659 150.759 76.68 151.844 76.68C152.974 76.68 153.949 76.9513 154.77 77.4939C155.606 78.0366 156.259 78.77 156.728 79.694C157.198 80.6033 157.432 81.6299 157.432 82.7739V83.236C157.432 84.38 157.205 85.4213 156.75 86.36C156.296 87.284 155.65 88.0246 154.814 88.582C153.978 89.1246 152.988 89.396 151.844 89.396C151.008 89.396 150.238 89.242 149.534 88.934C148.83 88.6113 148.251 88.1053 147.796 87.416V93.4H144.738ZM151.074 86.822C152.057 86.822 152.849 86.47 153.45 85.766C154.066 85.0473 154.374 84.1306 154.374 83.016C154.374 81.8866 154.066 80.9773 153.45 80.2879C152.849 79.5986 152.057 79.254 151.074 79.254C150.473 79.254 149.916 79.3933 149.402 79.672C148.889 79.936 148.478 80.3246 148.17 80.838C147.862 81.3366 147.708 81.9453 147.708 82.664V83.544C147.708 84.2333 147.87 84.8273 148.192 85.326C148.515 85.81 148.933 86.184 149.446 86.448C149.96 86.6973 150.502 86.822 151.074 86.822Z" fill="#4D434B"/>
<path d="M165.863 89.418C164.455 89.418 163.267 89.132 162.299 88.56C161.331 87.9733 160.59 87.2106 160.077 86.2719C159.578 85.3333 159.329 84.336 159.329 83.28V82.818C159.329 81.718 159.586 80.6986 160.099 79.7599C160.627 78.8213 161.375 78.0659 162.343 77.4939C163.326 76.9219 164.499 76.6359 165.863 76.6359C167.212 76.6359 168.371 76.9219 169.339 77.4939C170.322 78.0659 171.07 78.8213 171.583 79.7599C172.111 80.6986 172.375 81.718 172.375 82.818V83.28C172.375 84.336 172.118 85.3333 171.605 86.2719C171.106 87.2106 170.373 87.9733 169.405 88.56C168.437 89.132 167.256 89.418 165.863 89.418ZM165.863 86.7999C166.978 86.7999 167.828 86.4479 168.415 85.7439C169.016 85.0253 169.317 84.1233 169.317 83.0379C169.317 81.9526 169.009 81.0506 168.393 80.332C167.777 79.6133 166.934 79.254 165.863 79.254C164.778 79.254 163.927 79.6133 163.311 80.332C162.695 81.0506 162.387 81.9526 162.387 83.0379C162.387 84.1233 162.68 85.0253 163.267 85.7439C163.868 86.4479 164.734 86.7999 165.863 86.7999Z" fill="#4D434B"/>
<path d="M175.053 89V77.054H177.473V80.948C177.795 78.2493 179.218 76.9 181.741 76.9H182.181V79.562H181.345C180.303 79.562 179.504 79.8406 178.947 80.3979C178.389 80.9553 178.111 81.7473 178.111 82.7739V89H175.053Z" fill="#4D434B"/>
<path d="M193.309 89.374C191.666 89.374 190.375 89.0293 189.437 88.34C188.513 87.636 188.029 86.668 187.985 85.436H190.735C190.764 85.8613 190.984 86.2426 191.395 86.5799C191.82 86.9026 192.473 87.0639 193.353 87.0639C194.071 87.0639 194.651 86.932 195.091 86.668C195.531 86.404 195.751 86.0446 195.751 85.59C195.751 85.194 195.582 84.886 195.245 84.666C194.922 84.4313 194.365 84.27 193.573 84.182L192.517 84.072C191.167 83.9253 190.133 83.5439 189.415 82.9279C188.711 82.3119 188.359 81.4906 188.359 80.464C188.359 79.6573 188.564 78.9753 188.975 78.418C189.385 77.846 189.95 77.4206 190.669 77.142C191.402 76.8486 192.238 76.702 193.177 76.702C194.643 76.702 195.831 77.032 196.741 77.692C197.65 78.3373 198.127 79.2759 198.171 80.5079H195.421C195.377 80.0973 195.164 79.7453 194.783 79.452C194.416 79.1586 193.873 79.012 193.155 79.012C192.509 79.012 192.011 79.1366 191.659 79.386C191.307 79.6353 191.131 79.958 191.131 80.354C191.131 80.7353 191.27 81.0286 191.549 81.234C191.827 81.4393 192.297 81.5786 192.957 81.652L194.013 81.762C195.406 81.9086 196.506 82.2973 197.313 82.9279C198.119 83.5586 198.523 84.4093 198.523 85.4799C198.523 86.272 198.303 86.9613 197.863 87.548C197.437 88.12 196.836 88.5673 196.059 88.89C195.281 89.2126 194.365 89.374 193.309 89.374Z" fill="#4D434B"/>
<path d="M206.395 89.418C205.368 89.418 204.466 89.242 203.689 88.89C202.926 88.538 202.288 88.0686 201.775 87.4819C201.276 86.8806 200.895 86.2133 200.631 85.4799C200.381 84.7466 200.257 83.9986 200.257 83.236V82.818C200.257 82.026 200.381 81.2633 200.631 80.53C200.895 79.7966 201.276 79.1366 201.775 78.5499C202.288 77.9633 202.919 77.5013 203.667 77.1639C204.415 76.8119 205.28 76.6359 206.263 76.6359C207.553 76.6359 208.631 76.9219 209.497 77.4939C210.362 78.0513 211.015 78.792 211.455 79.716C211.909 80.6253 212.137 81.608 212.137 82.664V83.764H203.161C203.263 84.7026 203.571 85.458 204.085 86.03C204.613 86.602 205.383 86.888 206.395 86.888C207.128 86.888 207.729 86.7413 208.199 86.448C208.683 86.14 208.991 85.766 209.123 85.326H211.939C211.675 86.558 211.051 87.548 210.069 88.296C209.086 89.044 207.861 89.418 206.395 89.418ZM206.263 79.166C205.397 79.166 204.708 79.408 204.195 79.892C203.681 80.376 203.351 81.0433 203.205 81.894H209.211C209.093 81.0433 208.785 80.376 208.287 79.892C207.803 79.408 207.128 79.166 206.263 79.166Z" fill="#4D434B"/>
<path d="M214.691 89V77.054H217.111V79.9799C217.61 77.78 218.908 76.68 221.005 76.68H221.137C223.029 76.68 224.276 77.582 224.877 79.386C225.464 77.582 226.711 76.68 228.617 76.68H228.749C230.113 76.68 231.147 77.1493 231.851 78.088C232.57 79.0266 232.929 80.3906 232.929 82.18V89H229.871V81.894C229.871 81.146 229.681 80.552 229.299 80.112C228.918 79.6573 228.375 79.43 227.671 79.43C226.953 79.43 226.381 79.6646 225.955 80.1339C225.545 80.5886 225.339 81.2046 225.339 81.9819V89H222.281V81.894C222.281 81.146 222.091 80.552 221.709 80.112C221.328 79.6573 220.785 79.43 220.081 79.43C219.363 79.43 218.791 79.6646 218.365 80.1339C217.955 80.5886 217.749 81.2046 217.749 81.9819V89H214.691Z" fill="#4D434B"/>
<path d="M239.585 89.308C238.265 89.308 237.209 88.9706 236.417 88.296C235.64 87.6213 235.251 86.6753 235.251 85.458C235.251 84.1526 235.721 83.192 236.659 82.576C237.613 81.9453 238.889 81.63 240.487 81.63H242.929V81.52C242.929 80.156 242.24 79.474 240.861 79.474C240.495 79.474 240.055 79.4813 239.541 79.4959C239.028 79.5106 238.507 79.5326 237.979 79.562C237.466 79.5766 237.004 79.5986 236.593 79.628V77.032C237.092 76.988 237.686 76.9513 238.375 76.922C239.079 76.8926 239.725 76.878 240.311 76.878C242.145 76.878 243.523 77.252 244.447 78C245.386 78.7333 245.855 79.9286 245.855 81.586V89H243.435V86.712C242.893 88.4426 241.609 89.308 239.585 89.308ZM240.443 87.13C240.854 87.13 241.243 87.0566 241.609 86.91C241.976 86.7486 242.277 86.4846 242.511 86.118C242.761 85.7366 242.9 85.2233 242.929 84.5779V83.456H240.443C239.739 83.456 239.197 83.632 238.815 83.984C238.449 84.3213 238.265 84.7613 238.265 85.304C238.265 85.8613 238.449 86.3086 238.815 86.646C239.197 86.9686 239.739 87.13 240.443 87.13Z" fill="#4D434B"/>
<path d="M249.131 89V77.054H251.551V80.002C252.064 77.7873 253.428 76.68 255.643 76.68H255.775C257.198 76.68 258.276 77.1419 259.009 78.0659C259.742 78.9899 260.109 80.354 260.109 82.158V89H257.051V81.894C257.051 81.1606 256.838 80.5666 256.413 80.112C255.988 79.6573 255.416 79.43 254.697 79.43C253.949 79.43 253.34 79.6646 252.871 80.1339C252.416 80.6033 252.189 81.2193 252.189 81.9819V89H249.131Z" fill="#4D434B"/>
<path d="M266.784 89.308C265.464 89.308 264.408 88.9706 263.616 88.296C262.839 87.6213 262.45 86.6753 262.45 85.458C262.45 84.1526 262.92 83.192 263.858 82.576C264.812 81.9453 266.088 81.63 267.686 81.63H270.128V81.52C270.128 80.156 269.439 79.474 268.06 79.474C267.694 79.474 267.254 79.4813 266.74 79.4959C266.227 79.5106 265.706 79.5326 265.178 79.562C264.665 79.5766 264.203 79.5986 263.792 79.628V77.032C264.291 76.988 264.885 76.9513 265.574 76.922C266.278 76.8926 266.924 76.878 267.51 76.878C269.344 76.878 270.722 77.252 271.646 78C272.585 78.7333 273.054 79.9286 273.054 81.586V89H270.634V86.712C270.092 88.4426 268.808 89.308 266.784 89.308ZM267.642 87.13C268.053 87.13 268.442 87.0566 268.808 86.91C269.175 86.7486 269.476 86.4846 269.71 86.118C269.96 85.7366 270.099 85.2233 270.128 84.5779V83.456H267.642C266.938 83.456 266.396 83.632 266.014 83.984C265.648 84.3213 265.464 84.7613 265.464 85.304C265.464 85.8613 265.648 86.3086 266.014 86.646C266.396 86.9686 266.938 87.13 267.642 87.13Z" fill="#4D434B"/>
<path d="M163.672 60.216C160.003 60.216 156.846 59.4906 154.2 58.04C151.598 56.5893 149.592 54.6693 148.184 52.28C146.819 49.848 146.136 47.2026 146.136 44.344H154.904C154.904 46.776 155.715 48.76 157.336 50.296C158.958 51.832 161.091 52.6 163.736 52.6C166.467 52.6 168.622 51.768 170.2 50.104C171.779 48.44 172.568 46.328 172.568 43.768C172.568 41.2933 171.779 39.2026 170.2 37.4959C168.664 35.7466 166.531 34.872 163.8 34.872C162.264 34.872 160.814 35.1706 159.448 35.768C158.083 36.3653 157.016 37.1546 156.248 38.136H147.864L150.232 12.28H177.304V20.024H157.144L156.12 30.776C157.23 29.9653 158.51 29.3253 159.96 28.856C161.411 28.344 163.096 28.088 165.016 28.088C168.472 28.088 171.416 28.792 173.848 30.2C176.28 31.608 178.136 33.4853 179.416 35.832C180.696 38.136 181.336 40.6533 181.336 43.3839V44.216C181.336 46.9893 180.654 49.592 179.288 52.024C177.923 54.456 175.918 56.44 173.272 57.976C170.67 59.4693 167.47 60.216 163.672 60.216Z" fill="#4D434B"/>
<path d="M208.006 60.216C204.337 60.216 201.201 59.6186 198.598 58.424C196.038 57.1866 193.948 55.5226 192.326 53.432C190.748 51.2986 189.574 48.8666 188.806 46.136C188.081 43.4053 187.718 40.504 187.718 37.432V33.848C187.718 29.5813 188.422 25.72 189.83 22.264C191.281 18.808 193.5 16.056 196.486 14.008C199.516 11.96 203.356 10.9359 208.006 10.9359C212.614 10.9359 216.412 11.96 219.398 14.008C222.385 16.056 224.582 18.808 225.99 22.264C227.441 25.72 228.166 29.5813 228.166 33.848V37.432C228.166 40.504 227.782 43.4053 227.014 46.136C226.289 48.8666 225.116 51.2986 223.494 53.432C221.916 55.5226 219.846 57.1866 217.286 58.424C214.726 59.6186 211.633 60.216 208.006 60.216ZM208.006 51.896C211.761 51.896 214.534 50.5946 216.326 47.992C218.161 45.3466 219.078 41.2506 219.078 35.7039C219.078 29.8586 218.161 25.6559 216.326 23.0959C214.492 20.5359 211.718 19.2559 208.006 19.2559C204.252 19.2559 201.436 20.5359 199.558 23.0959C197.724 25.6133 196.806 29.7733 196.806 35.576C196.806 41.208 197.702 45.3466 199.494 47.992C201.329 50.5946 204.166 51.896 208.006 51.896Z" fill="#4D434B"/>
<path d="M246.834 43.448V38.584H251.954C251.954 37.7733 251.954 36.9413 251.954 36.088L251.89 35.192C251.89 34.68 251.911 34.1893 251.954 33.72H247.986V28.856H252.338C253.959 17.1226 260.274 11.2559 271.282 11.2559C275.164 11.2559 278.364 11.9173 280.882 13.24C283.442 14.5199 285.362 16.2906 286.642 18.552C287.964 20.8133 288.69 23.4159 288.818 26.3599H280.946C280.775 23.9706 279.879 22.0719 278.258 20.6639C276.679 19.256 274.354 18.552 271.282 18.552C268.21 18.552 265.778 19.3626 263.986 20.9839C262.194 22.5626 260.978 25.1866 260.338 28.856H276.018V33.72H259.89C259.847 34.3173 259.847 34.9573 259.89 35.64C259.89 36.664 259.911 37.6453 259.954 38.584H274.866V43.448H260.594C261.319 46.7333 262.599 49.1013 264.434 50.552C266.268 52.0026 268.679 52.728 271.666 52.728C274.823 52.728 277.17 52.024 278.706 50.616C280.284 49.208 281.159 47.2879 281.33 44.8559H289.202C289.074 47.8426 288.348 50.488 287.026 52.792C285.746 55.0533 283.826 56.824 281.266 58.104C278.748 59.384 275.548 60.024 271.666 60.024C266.332 60.024 262.044 58.6373 258.802 55.864C255.559 53.0906 253.468 48.952 252.53 43.448H246.834Z" fill="#4D434B"/>
<path d="M44.5077 44V0.199951H53.0277V36.5H70.7277V44H44.5077Z" fill="#007D70"/>
<path d="M2.59226 88L8.15426 76.4979L8.04626 76.336H2.30426V78.424H0.864258V74.86H9.68426V76.948L4.39226 88H2.59226Z" fill="#007D70"/>
<path d="M17.0322 88.324C16.0482 88.324 15.2082 88.156 14.5122 87.82C13.8282 87.472 13.2702 87.004 12.8382 86.416C12.4182 85.828 12.1122 85.15 11.9202 84.382C11.7282 83.602 11.6322 82.78 11.6322 81.916V80.944C11.6322 79.732 11.8182 78.64 12.1902 77.668C12.5742 76.696 13.1622 75.928 13.9542 75.364C14.7582 74.788 15.7842 74.5 17.0322 74.5C18.2802 74.5 19.3002 74.788 20.0922 75.364C20.8842 75.928 21.4662 76.696 21.8382 77.668C22.2222 78.64 22.4142 79.732 22.4142 80.944V81.916C22.4142 82.78 22.3182 83.602 22.1262 84.382C21.9342 85.15 21.6222 85.828 21.1902 86.416C20.7702 87.004 20.2182 87.472 19.5342 87.82C18.8502 88.156 18.0162 88.324 17.0322 88.324ZM17.0322 86.74C18.2802 86.74 19.1922 86.3199 19.7682 85.4799C20.3562 84.6279 20.6502 83.284 20.6502 81.448C20.6502 79.528 20.3502 78.154 19.7502 77.326C19.1622 76.498 18.2562 76.084 17.0322 76.084C15.7962 76.084 14.8782 76.498 14.2782 77.326C13.6902 78.154 13.3962 79.5159 13.3962 81.4119C13.3962 83.2599 13.6902 84.61 14.2782 85.462C14.8662 86.314 15.7842 86.74 17.0322 86.74Z" fill="#007D70"/>
<path d="M29.7169 88.072V74.7879H34.0009C35.4409 74.7879 36.5149 75.094 37.2229 75.706C37.9309 76.306 38.2849 77.1759 38.2849 78.3159V78.568C38.2849 79.252 38.1529 79.8159 37.8889 80.2599C37.6249 80.6919 37.2589 81.028 36.7909 81.268C37.4149 81.484 37.9069 81.832 38.2669 82.312C38.6389 82.78 38.8249 83.416 38.8249 84.22V84.472C38.8249 85.624 38.4709 86.512 37.7629 87.136C37.0549 87.76 35.9809 88.072 34.5409 88.072H29.7169ZM34.3069 76.336H31.4809V80.638H34.3069C35.0509 80.638 35.5969 80.44 35.9449 80.044C36.3049 79.636 36.4849 79.1199 36.4849 78.4959C36.4849 77.8599 36.3049 77.344 35.9449 76.948C35.5969 76.54 35.0509 76.336 34.3069 76.336ZM34.7929 82.114H31.4809V86.5239H34.7929C35.5009 86.5239 36.0469 86.326 36.4309 85.93C36.8269 85.522 37.0249 84.982 37.0249 84.31C37.0249 83.626 36.8329 83.092 36.4489 82.708C36.0649 82.312 35.5129 82.114 34.7929 82.114Z" fill="#007D70"/>
<path d="M44.3632 88.252C43.2712 88.252 42.4132 87.982 41.7892 87.442C41.1772 86.89 40.8712 86.1159 40.8712 85.1199C40.8712 84.0999 41.2132 83.3319 41.8972 82.8159C42.5812 82.2879 43.5472 82.0239 44.7952 82.0239H47.2252V81.79C47.2252 80.458 46.5532 79.792 45.2092 79.792C44.6572 79.792 44.0812 79.8039 43.4812 79.8279C42.8812 79.8519 42.3832 79.876 41.9872 79.9V78.388C42.3712 78.352 42.7972 78.3279 43.2652 78.3159C43.7452 78.2919 44.2012 78.28 44.6332 78.28C46.1092 78.28 47.1832 78.55 47.8552 79.09C48.5392 79.63 48.8812 80.572 48.8812 81.916V88H47.5132V86.0919C47.0812 87.5319 46.0312 88.252 44.3632 88.252ZM44.7232 86.8839C45.1312 86.8839 45.5212 86.812 45.8932 86.668C46.2652 86.512 46.5712 86.2599 46.8112 85.9119C47.0632 85.5519 47.2012 85.06 47.2252 84.436V83.32H44.7232C44.0272 83.32 43.4932 83.488 43.1212 83.824C42.7492 84.16 42.5632 84.5919 42.5632 85.1199C42.5632 85.6479 42.7492 86.0739 43.1212 86.3979C43.4932 86.7219 44.0272 86.8839 44.7232 86.8839Z" fill="#007D70"/>
<path d="M52.0527 88V78.388H53.4207V80.6199C53.6367 79.8039 54.0207 79.18 54.5727 78.748C55.1367 78.316 55.8687 78.1 56.7687 78.1H56.8407C58.0527 78.1 58.9467 78.478 59.5227 79.234C60.1107 79.99 60.4047 81.0819 60.4047 82.5099V88H58.6767V82.15C58.6767 81.406 58.4667 80.812 58.0467 80.368C57.6267 79.912 57.0507 79.684 56.3187 79.684C55.5627 79.684 54.9507 79.918 54.4827 80.386C54.0147 80.854 53.7807 81.4779 53.7807 82.2579V88H52.0527Z" fill="#007D70"/>
<path d="M66.2304 88.252C65.1384 88.252 64.2804 87.982 63.6564 87.442C63.0444 86.89 62.7384 86.1159 62.7384 85.1199C62.7384 84.0999 63.0804 83.3319 63.7644 82.8159C64.4484 82.2879 65.4144 82.0239 66.6624 82.0239H69.0924V81.79C69.0924 80.458 68.4204 79.792 67.0764 79.792C66.5244 79.792 65.9484 79.8039 65.3484 79.8279C64.7484 79.8519 64.2504 79.876 63.8544 79.9V78.388C64.2384 78.352 64.6644 78.3279 65.1324 78.3159C65.6124 78.2919 66.0684 78.28 66.5004 78.28C67.9764 78.28 69.0504 78.55 69.7224 79.09C70.4064 79.63 70.7484 80.572 70.7484 81.916V88H69.3804V86.0919C68.9484 87.5319 67.8984 88.252 66.2304 88.252ZM66.5904 86.8839C66.9984 86.8839 67.3884 86.812 67.7604 86.668C68.1324 86.512 68.4384 86.2599 68.6784 85.9119C68.9304 85.5519 69.0684 85.06 69.0924 84.436V83.32H66.5904C65.8944 83.32 65.3604 83.488 64.9884 83.824C64.6164 84.16 64.4304 84.5919 64.4304 85.1199C64.4304 85.6479 64.6164 86.0739 64.9884 86.3979C65.3604 86.7219 65.8944 86.8839 66.5904 86.8839Z" fill="#007D70"/>
<path d="M73.9199 88V78.388H75.2879V80.6199C75.5039 79.8039 75.8879 79.18 76.4399 78.748C77.0039 78.316 77.7359 78.1 78.6359 78.1H78.7079C79.9199 78.1 80.8139 78.478 81.3899 79.234C81.9779 79.99 82.2719 81.0819 82.2719 82.5099V88H80.5439V82.15C80.5439 81.406 80.3339 80.812 79.9139 80.368C79.4939 79.912 78.9179 79.684 78.1859 79.684C77.4299 79.684 76.8179 79.918 76.3499 80.386C75.8819 80.854 75.6479 81.4779 75.6479 82.2579V88H73.9199Z" fill="#007D70"/>
<path d="M88.0976 88.252C87.0056 88.252 86.1476 87.982 85.5236 87.442C84.9116 86.89 84.6056 86.1159 84.6056 85.1199C84.6056 84.0999 84.9476 83.3319 85.6316 82.8159C86.3156 82.2879 87.2816 82.0239 88.5296 82.0239H90.9596V81.79C90.9596 80.458 90.2876 79.792 88.9436 79.792C88.3916 79.792 87.8156 79.8039 87.2156 79.8279C86.6156 79.8519 86.1176 79.876 85.7216 79.9V78.388C86.1056 78.352 86.5316 78.3279 86.9996 78.3159C87.4796 78.2919 87.9356 78.28 88.3676 78.28C89.8436 78.28 90.9176 78.55 91.5896 79.09C92.2736 79.63 92.6156 80.572 92.6156 81.916V88H91.2476V86.0919C90.8156 87.5319 89.7656 88.252 88.0976 88.252ZM88.4576 86.8839C88.8656 86.8839 89.2556 86.812 89.6276 86.668C89.9996 86.512 90.3056 86.2599 90.5456 85.9119C90.7976 85.5519 90.9356 85.06 90.9596 84.436V83.32H88.4576C87.7616 83.32 87.2276 83.488 86.8556 83.824C86.4836 84.16 86.2976 84.5919 86.2976 85.1199C86.2976 85.6479 86.4836 86.0739 86.8556 86.3979C87.2276 86.7219 87.7616 86.8839 88.4576 86.8839Z" fill="#007D70"/>
<path d="M98.9371 88.2879C97.6771 88.2879 96.6991 88.018 96.0031 87.478C95.3191 86.938 94.9651 86.2 94.9411 85.264H96.5611C96.5851 85.636 96.7711 85.99 97.1191 86.326C97.4791 86.65 98.0851 86.812 98.9371 86.812C99.7051 86.812 100.293 86.662 100.701 86.362C101.109 86.05 101.313 85.672 101.313 85.228C101.313 84.832 101.163 84.526 100.863 84.31C100.563 84.082 100.077 83.932 99.4051 83.86L98.3611 83.752C97.4491 83.656 96.7051 83.386 96.1291 82.942C95.5531 82.486 95.2651 81.85 95.2651 81.034C95.2651 80.11 95.6071 79.39 96.2911 78.874C96.9751 78.358 97.8571 78.1 98.9371 78.1C100.017 78.1 100.893 78.34 101.565 78.82C102.237 79.3 102.585 80.014 102.609 80.962H100.989C100.977 80.578 100.797 80.254 100.449 79.99C100.113 79.714 99.6091 79.576 98.9371 79.576C98.2651 79.576 97.7551 79.714 97.4071 79.99C97.0591 80.266 96.8851 80.614 96.8851 81.034C96.8851 81.394 97.0051 81.6819 97.2451 81.8979C97.4971 82.1139 97.9051 82.252 98.4691 82.312L99.5131 82.42C100.545 82.528 101.373 82.816 101.997 83.284C102.621 83.74 102.933 84.388 102.933 85.228C102.933 85.828 102.759 86.3619 102.411 86.8299C102.075 87.2859 101.607 87.646 101.007 87.91C100.407 88.162 99.7171 88.2879 98.9371 88.2879Z" fill="#007D70"/>
<path d="M105.708 90.826L104.322 90.304L105.996 85.66L107.418 86.2L105.708 90.826ZM105.204 81.34V79.144H107.292V81.34H105.204Z" fill="#007D70"/>
<path d="M5.68826 113.324C4.68026 113.324 3.82826 113.12 3.13226 112.712C2.43626 112.292 1.90826 111.746 1.54826 111.074C1.18826 110.402 1.00826 109.688 1.00826 108.932H2.70026C2.70026 109.76 2.97026 110.45 3.51026 111.002C4.05026 111.542 4.77626 111.812 5.68826 111.812C6.58826 111.812 7.31426 111.542 7.86626 111.002C8.41826 110.462 8.69426 109.772 8.69426 108.932C8.69426 108.38 8.56826 107.882 8.31626 107.438C8.07626 106.994 7.72826 106.64 7.27226 106.376C6.82826 106.112 6.30026 105.98 5.68826 105.98C5.24426 105.98 4.79426 106.058 4.33826 106.214C3.88226 106.358 3.51626 106.568 3.24026 106.844H1.65626L2.32226 99.86H9.21626V101.336H3.70826L3.31226 105.224C3.63626 105.008 4.00226 104.84 4.41026 104.72C4.81826 104.6 5.26826 104.54 5.76026 104.54C6.76826 104.54 7.61426 104.75 8.29826 105.17C8.98226 105.578 9.49826 106.112 9.84626 106.772C10.2063 107.42 10.3863 108.098 10.3863 108.806V109.058C10.3863 109.766 10.2063 110.45 9.84626 111.11C9.48626 111.758 8.95226 112.292 8.24426 112.712C7.54826 113.12 6.69626 113.324 5.68826 113.324Z" fill="#007D70"/>
<path d="M17.9111 113.324C16.9271 113.324 16.0871 113.156 15.3911 112.82C14.7071 112.472 14.1491 112.004 13.7171 111.416C13.2971 110.828 12.9911 110.15 12.7991 109.382C12.6071 108.602 12.5111 107.78 12.5111 106.916V105.944C12.5111 104.732 12.6971 103.64 13.0691 102.668C13.4531 101.696 14.0411 100.928 14.8331 100.364C15.6371 99.788 16.6631 99.5 17.9111 99.5C19.1591 99.5 20.1791 99.788 20.9711 100.364C21.7631 100.928 22.3451 101.696 22.7171 102.668C23.1011 103.64 23.2931 104.732 23.2931 105.944V106.916C23.2931 107.78 23.1971 108.602 23.0051 109.382C22.8131 110.15 22.5011 110.828 22.0691 111.416C21.6491 112.004 21.0971 112.472 20.4131 112.82C19.7291 113.156 18.8951 113.324 17.9111 113.324ZM17.9111 111.74C19.1591 111.74 20.0711 111.32 20.6471 110.48C21.2351 109.628 21.5291 108.284 21.5291 106.448C21.5291 104.528 21.2291 103.154 20.6291 102.326C20.0411 101.498 19.1351 101.084 17.9111 101.084C16.6751 101.084 15.7571 101.498 15.1571 102.326C14.5691 103.154 14.2751 104.516 14.2751 106.412C14.2751 108.26 14.5691 109.61 15.1571 110.462C15.7451 111.314 16.6631 111.74 17.9111 111.74Z" fill="#007D70"/>
<path d="M30.5958 113V99.86H32.9358L36.8238 108.626H37.1118L40.9818 99.86H43.3398V113H41.5758V102.11L37.9758 110.282H35.8158L32.2158 102.146V113H30.5958Z" fill="#007D70"/>
<path d="M49.5664 113.252C48.4744 113.252 47.6164 112.982 46.9924 112.442C46.3804 111.89 46.0744 111.116 46.0744 110.12C46.0744 109.1 46.4164 108.332 47.1004 107.816C47.7844 107.288 48.7504 107.024 49.9984 107.024H52.4284V106.79C52.4284 105.458 51.7563 104.792 50.4123 104.792C49.8603 104.792 49.2844 104.804 48.6844 104.828C48.0844 104.852 47.5864 104.876 47.1904 104.9V103.388C47.5744 103.352 48.0004 103.328 48.4684 103.316C48.9484 103.292 49.4044 103.28 49.8364 103.28C51.3124 103.28 52.3864 103.55 53.0584 104.09C53.7424 104.63 54.0844 105.572 54.0844 106.916V113H52.7164V111.092C52.2844 112.532 51.2344 113.252 49.5664 113.252ZM49.9264 111.884C50.3344 111.884 50.7244 111.812 51.0964 111.668C51.4684 111.512 51.7744 111.26 52.0144 110.912C52.2664 110.552 52.4044 110.06 52.4284 109.436V108.32H49.9264C49.2304 108.32 48.6964 108.488 48.3244 108.824C47.9524 109.16 47.7663 109.592 47.7663 110.12C47.7663 110.648 47.9524 111.074 48.3244 111.398C48.6964 111.722 49.2304 111.884 49.9264 111.884Z" fill="#007D70"/>
<path d="M61.3779 113.324C60.5499 113.324 59.8299 113.18 59.2179 112.892C58.6179 112.604 58.1199 112.22 57.7239 111.74C57.3279 111.248 57.0279 110.708 56.8239 110.12C56.6319 109.532 56.5359 108.944 56.5359 108.356V108.032C56.5359 107.42 56.6319 106.82 56.8239 106.232C57.0279 105.644 57.3279 105.116 57.7239 104.648C58.1319 104.168 58.6359 103.784 59.2359 103.496C59.8359 103.208 60.5379 103.064 61.3419 103.064C62.1459 103.064 62.8659 103.214 63.5019 103.514C64.1499 103.814 64.6659 104.24 65.0499 104.792C65.4459 105.332 65.6679 105.974 65.7159 106.718H64.0599C63.9759 106.118 63.6999 105.62 63.2319 105.224C62.7639 104.816 62.1339 104.612 61.3419 104.612C60.6579 104.612 60.0879 104.768 59.6319 105.08C59.1759 105.392 58.8339 105.818 58.6059 106.358C58.3779 106.898 58.2639 107.51 58.2639 108.194C58.2639 108.854 58.3779 109.46 58.6059 110.012C58.8339 110.552 59.1759 110.984 59.6319 111.308C60.0999 111.62 60.6819 111.776 61.3779 111.776C62.1819 111.776 62.8299 111.572 63.3219 111.164C63.8139 110.744 64.0959 110.228 64.1679 109.616H65.8239C65.7879 110.372 65.5659 111.026 65.1579 111.578C64.7619 112.13 64.2339 112.562 63.5739 112.874C62.9259 113.174 62.1939 113.324 61.3779 113.324ZM61.2339 117.356C61.0059 117.356 60.7839 117.338 60.5679 117.302C60.3639 117.278 60.1779 117.242 60.0099 117.194V116.042C60.1779 116.09 60.3699 116.126 60.5859 116.15C60.8139 116.186 61.0299 116.204 61.2339 116.204C61.6179 116.204 61.8999 116.138 62.0799 116.006C62.2599 115.886 62.3499 115.73 62.3499 115.538C62.3499 115.346 62.2719 115.19 62.1159 115.07C61.9719 114.962 61.7259 114.908 61.3779 114.908H60.6939V112.82H61.7379V113.882C62.2899 113.942 62.7339 114.11 63.0699 114.386C63.4059 114.662 63.5739 115.034 63.5739 115.502C63.5739 116.018 63.3639 116.456 62.9439 116.816C62.5359 117.176 61.9659 117.356 61.2339 117.356Z" fill="#007D70"/>
<path d="M70.8359 113.252C69.7439 113.252 68.8859 112.982 68.2619 112.442C67.6499 111.89 67.3439 111.116 67.3439 110.12C67.3439 109.1 67.6859 108.332 68.3699 107.816C69.0539 107.288 70.0199 107.024 71.2679 107.024H73.6979V106.79C73.6979 105.458 73.0259 104.792 71.6819 104.792C71.1299 104.792 70.5539 104.804 69.9539 104.828C69.3539 104.852 68.8559 104.876 68.4599 104.9V103.388C68.8439 103.352 69.2699 103.328 69.7379 103.316C70.2179 103.292 70.6739 103.28 71.1059 103.28C72.5819 103.28 73.6559 103.55 74.3279 104.09C75.0119 104.63 75.3539 105.572 75.3539 106.916V113H73.9859V111.092C73.5539 112.532 72.5039 113.252 70.8359 113.252ZM71.1959 111.884C71.6039 111.884 71.9939 111.812 72.3659 111.668C72.7379 111.512 73.0439 111.26 73.2839 110.912C73.5359 110.552 73.6739 110.06 73.6979 109.436V108.32H71.1959C70.4999 108.32 69.9659 108.488 69.5939 108.824C69.2219 109.16 69.0359 109.592 69.0359 110.12C69.0359 110.648 69.2219 111.074 69.5939 111.398C69.9659 111.722 70.4999 111.884 71.1959 111.884ZM72.7619 101.462C72.3659 101.462 72.0359 101.39 71.7719 101.246C71.5199 101.09 71.2799 100.94 71.0519 100.796C70.8239 100.64 70.5539 100.562 70.2419 100.562C69.9899 100.562 69.7559 100.628 69.5399 100.76C69.3359 100.88 69.1499 101.048 68.9819 101.264L68.6939 100.112C68.8739 99.884 69.0959 99.6919 69.3599 99.5359C69.6359 99.3799 69.9479 99.3019 70.2959 99.3019C70.6919 99.3019 71.0159 99.3799 71.2679 99.5359C71.5319 99.6799 71.7779 99.83 72.0059 99.986C72.2459 100.13 72.5159 100.202 72.8159 100.202C73.0679 100.202 73.3019 100.142 73.5179 100.022C73.7339 99.8899 73.9259 99.716 74.0939 99.5L74.3819 100.652C74.2019 100.88 73.9739 101.072 73.6979 101.228C73.4219 101.384 73.1099 101.462 72.7619 101.462Z" fill="#007D70"/>
<path d="M81.6754 113.288C80.4154 113.288 79.4374 113.018 78.7414 112.478C78.0574 111.938 77.7034 111.2 77.6794 110.264H79.2994C79.3234 110.636 79.5094 110.99 79.8574 111.326C80.2174 111.65 80.8234 111.812 81.6754 111.812C82.4434 111.812 83.0314 111.662 83.4394 111.362C83.8474 111.05 84.0514 110.672 84.0514 110.228C84.0514 109.832 83.9014 109.526 83.6014 109.31C83.3014 109.082 82.8154 108.932 82.1434 108.86L81.0994 108.752C80.1874 108.656 79.4434 108.386 78.8674 107.942C78.2914 107.486 78.0034 106.85 78.0034 106.034C78.0034 105.11 78.3454 104.39 79.0294 103.874C79.7134 103.358 80.5954 103.1 81.6754 103.1C82.7554 103.1 83.6314 103.34 84.3034 103.82C84.9754 104.3 85.3234 105.014 85.3474 105.962H83.7274C83.7154 105.578 83.5354 105.254 83.1874 104.99C82.8514 104.714 82.3474 104.576 81.6754 104.576C81.0034 104.576 80.4934 104.714 80.1454 104.99C79.7974 105.266 79.6234 105.614 79.6234 106.034C79.6234 106.394 79.7434 106.682 79.9834 106.898C80.2354 107.114 80.6434 107.252 81.2074 107.312L82.2514 107.42C83.2834 107.528 84.1114 107.816 84.7354 108.284C85.3594 108.74 85.6714 109.388 85.6714 110.228C85.6714 110.828 85.4974 111.362 85.1494 111.83C84.8134 112.286 84.3454 112.646 83.7454 112.91C83.1454 113.162 82.4554 113.288 81.6754 113.288Z" fill="#007D70"/>
<path d="M88.4458 115.826L87.0598 115.304L88.7338 110.66L90.1558 111.2L88.4458 115.826ZM87.9418 106.34V104.144H90.0298V106.34H87.9418Z" fill="#007D70"/>
<path d="M5.68826 138.324C4.68026 138.324 3.82826 138.12 3.13226 137.712C2.43626 137.292 1.90826 136.746 1.54826 136.074C1.18826 135.402 1.00826 134.688 1.00826 133.932H2.70026C2.70026 134.76 2.97026 135.45 3.51026 136.002C4.05026 136.542 4.77626 136.812 5.68826 136.812C6.58826 136.812 7.31426 136.542 7.86626 136.002C8.41826 135.462 8.69426 134.772 8.69426 133.932C8.69426 133.38 8.56826 132.882 8.31626 132.438C8.07626 131.994 7.72826 131.64 7.27226 131.376C6.82826 131.112 6.30026 130.98 5.68826 130.98C5.24426 130.98 4.79426 131.058 4.33826 131.214C3.88226 131.358 3.51626 131.568 3.24026 131.844H1.65626L2.32226 124.86H9.21626V126.336H3.70826L3.31226 130.224C3.63626 130.008 4.00226 129.84 4.41026 129.72C4.81826 129.6 5.26826 129.54 5.76026 129.54C6.76826 129.54 7.61426 129.75 8.29826 130.17C8.98226 130.578 9.49826 131.112 9.84626 131.772C10.2063 132.42 10.3863 133.098 10.3863 133.806V134.058C10.3863 134.766 10.2063 135.45 9.84626 136.11C9.48626 136.758 8.95226 137.292 8.24426 137.712C7.54826 138.12 6.69626 138.324 5.68826 138.324Z" fill="#007D70"/>
<path d="M17.9111 138.324C16.9271 138.324 16.0871 138.156 15.3911 137.82C14.7071 137.472 14.1491 137.004 13.7171 136.416C13.2971 135.828 12.9911 135.15 12.7991 134.382C12.6071 133.602 12.5111 132.78 12.5111 131.916V130.944C12.5111 129.732 12.6971 128.64 13.0691 127.668C13.4531 126.696 14.0411 125.928 14.8331 125.364C15.6371 124.788 16.6631 124.5 17.9111 124.5C19.1591 124.5 20.1791 124.788 20.9711 125.364C21.7631 125.928 22.3451 126.696 22.7171 127.668C23.1011 128.64 23.2931 129.732 23.2931 130.944V131.916C23.2931 132.78 23.1971 133.602 23.0051 134.382C22.8131 135.15 22.5011 135.828 22.0691 136.416C21.6491 137.004 21.0971 137.472 20.4131 137.82C19.7291 138.156 18.8951 138.324 17.9111 138.324ZM17.9111 136.74C19.1591 136.74 20.0711 136.32 20.6471 135.48C21.2351 134.628 21.5291 133.284 21.5291 131.448C21.5291 129.528 21.2291 128.154 20.6291 127.326C20.0411 126.498 19.1351 126.084 17.9111 126.084C16.6751 126.084 15.7571 126.498 15.1571 127.326C14.5691 128.154 14.2751 129.516 14.2751 131.412C14.2751 133.26 14.5691 134.61 15.1571 135.462C15.7451 136.314 16.6631 136.74 17.9111 136.74Z" fill="#007D70"/>
<path d="M30.5958 138V124.86H32.3598V136.416H38.0118V138H30.5958Z" fill="#007D70"/>
<path d="M42.7988 138.252C41.7068 138.252 40.8488 137.982 40.2248 137.442C39.6128 136.89 39.3068 136.116 39.3068 135.12C39.3068 134.1 39.6488 133.332 40.3328 132.816C41.0168 132.288 41.9828 132.024 43.2308 132.024H45.6608V131.79C45.6608 130.458 44.9888 129.792 43.6448 129.792C43.0928 129.792 42.5168 129.804 41.9168 129.828C41.3168 129.852 40.8188 129.876 40.4228 129.9V128.388C40.8068 128.352 41.2328 128.328 41.7008 128.316C42.1808 128.292 42.6368 128.28 43.0688 128.28C44.5448 128.28 45.6188 128.55 46.2908 129.09C46.9748 129.63 47.3168 130.572 47.3168 131.916V138H45.9488V136.092C45.5168 137.532 44.4668 138.252 42.7988 138.252ZM43.1588 136.884C43.5668 136.884 43.9568 136.812 44.3288 136.668C44.7008 136.512 45.0068 136.26 45.2468 135.912C45.4988 135.552 45.6368 135.06 45.6608 134.436V133.32H43.1588C42.4628 133.32 41.9288 133.488 41.5568 133.824C41.1848 134.16 40.9988 134.592 40.9988 135.12C40.9988 135.648 41.1848 136.074 41.5568 136.398C41.9288 136.722 42.4628 136.884 43.1588 136.884Z" fill="#007D70"/>
<path d="M50.4883 138V128.388H51.8563V131.268C52.0003 130.236 52.3783 129.48 52.9903 129C53.6023 128.52 54.4363 128.28 55.4923 128.28H55.8163V129.828H55.2043C54.2443 129.828 53.5063 130.086 52.9903 130.602C52.4743 131.106 52.2163 131.838 52.2163 132.798V138H50.4883Z" fill="#007D70"/>
<path d="M60.4999 138.252C59.4079 138.252 58.5499 137.982 57.9259 137.442C57.3139 136.89 57.0079 136.116 57.0079 135.12C57.0079 134.1 57.3499 133.332 58.0339 132.816C58.7179 132.288 59.6839 132.024 60.9319 132.024H63.3619V131.79C63.3619 130.458 62.6899 129.792 61.3459 129.792C60.7939 129.792 60.2179 129.804 59.6179 129.828C59.0179 129.852 58.5199 129.876 58.1239 129.9V128.388C58.5079 128.352 58.9339 128.328 59.4019 128.316C59.8819 128.292 60.3379 128.28 60.7699 128.28C62.2459 128.28 63.3199 128.55 63.9919 129.09C64.6759 129.63 65.0179 130.572 65.0179 131.916V138H63.6499V136.092C63.2179 137.532 62.1679 138.252 60.4999 138.252ZM60.8599 136.884C61.2679 136.884 61.6579 136.812 62.0299 136.668C62.4019 136.512 62.7079 136.26 62.9479 135.912C63.1999 135.552 63.3379 135.06 63.3619 134.436V133.32H60.8599C60.1639 133.32 59.6299 133.488 59.2579 133.824C58.8859 134.16 58.6999 134.592 58.6999 135.12C58.6999 135.648 58.8859 136.074 59.2579 136.398C59.6299 136.722 60.1639 136.884 60.8599 136.884Z" fill="#007D70"/>
<path d="M68.1895 138V128.388H69.5575V130.62C69.7735 129.804 70.1575 129.18 70.7095 128.748C71.2735 128.316 72.0055 128.1 72.9055 128.1H72.9775C74.1895 128.1 75.0835 128.478 75.6595 129.234C76.2475 129.99 76.5415 131.082 76.5415 132.51V138H74.8135V132.15C74.8135 131.406 74.6035 130.812 74.1835 130.368C73.7635 129.912 73.1875 129.684 72.4555 129.684C71.6995 129.684 71.0875 129.918 70.6195 130.386C70.1515 130.854 69.9175 131.478 69.9175 132.258V138H68.1895Z" fill="#007D70"/>
<path d="M80.8551 126.696C80.4711 126.696 80.1831 126.594 79.9911 126.39C79.8111 126.186 79.7211 125.928 79.7211 125.616C79.7211 125.304 79.8111 125.046 79.9911 124.842C80.1831 124.638 80.4711 124.536 80.8551 124.536C81.2391 124.536 81.5211 124.638 81.7011 124.842C81.8931 125.046 81.9891 125.304 81.9891 125.616C81.9891 125.928 81.8931 126.186 81.7011 126.39C81.5211 126.594 81.2391 126.696 80.8551 126.696ZM78.0111 141.672V140.124H79.0191C79.4751 140.124 79.8231 139.998 80.0631 139.746C80.3151 139.494 80.4411 139.146 80.4411 138.702V129.756H78.9291V128.388H82.0971V138.45C82.0971 139.254 81.9831 139.89 81.7551 140.358C81.5391 140.826 81.1851 141.162 80.6931 141.366C80.2131 141.57 79.5711 141.672 78.7671 141.672H78.0111Z" fill="#007D70"/>
<path d="M88.08 138.252C86.988 138.252 86.13 137.982 85.506 137.442C84.894 136.89 84.588 136.116 84.588 135.12C84.588 134.1 84.93 133.332 85.614 132.816C86.298 132.288 87.264 132.024 88.512 132.024H90.942V131.79C90.942 130.458 90.27 129.792 88.926 129.792C88.374 129.792 87.798 129.804 87.198 129.828C86.598 129.852 86.1 129.876 85.704 129.9V128.388C86.088 128.352 86.514 128.328 86.982 128.316C87.462 128.292 87.918 128.28 88.35 128.28C89.826 128.28 90.9 128.55 91.572 129.09C92.256 129.63 92.598 130.572 92.598 131.916V138H91.23V136.092C90.798 137.532 89.748 138.252 88.08 138.252ZM88.44 136.884C88.848 136.884 89.238 136.812 89.61 136.668C89.982 136.512 90.288 136.26 90.528 135.912C90.78 135.552 90.918 135.06 90.942 134.436V133.32H88.44C87.744 133.32 87.21 133.488 86.838 133.824C86.466 134.16 86.28 134.592 86.28 135.12C86.28 135.648 86.466 136.074 86.838 136.398C87.21 136.722 87.744 136.884 88.44 136.884Z" fill="#007D70"/>
<path d="M98.9195 138.288C97.6595 138.288 96.6815 138.018 95.9855 137.478C95.3015 136.938 94.9475 136.2 94.9235 135.264H96.5435C96.5675 135.636 96.7535 135.99 97.1015 136.326C97.4615 136.65 98.0675 136.812 98.9195 136.812C99.6875 136.812 100.276 136.662 100.684 136.362C101.092 136.05 101.296 135.672 101.296 135.228C101.296 134.832 101.146 134.526 100.846 134.31C100.546 134.082 100.06 133.932 99.3875 133.86L98.3435 133.752C97.4315 133.656 96.6875 133.386 96.1115 132.942C95.5355 132.486 95.2475 131.85 95.2475 131.034C95.2475 130.11 95.5895 129.39 96.2735 128.874C96.9575 128.358 97.8395 128.1 98.9195 128.1C99.9995 128.1 100.876 128.34 101.548 128.82C102.22 129.3 102.568 130.014 102.592 130.962H100.972C100.96 130.578 100.78 130.254 100.432 129.99C100.096 129.714 99.5915 129.576 98.9195 129.576C98.2475 129.576 97.7375 129.714 97.3895 129.99C97.0415 130.266 96.8675 130.614 96.8675 131.034C96.8675 131.394 96.9875 131.682 97.2275 131.898C97.4795 132.114 97.8875 132.252 98.4515 132.312L99.4955 132.42C100.528 132.528 101.356 132.816 101.98 133.284C102.604 133.74 102.916 134.388 102.916 135.228C102.916 135.828 102.742 136.362 102.394 136.83C102.058 137.286 101.59 137.646 100.99 137.91C100.39 138.162 99.6995 138.288 98.9195 138.288Z" fill="#007D70"/>
<path d="M105.69 140.826L104.304 140.304L105.978 135.66L107.4 136.2L105.69 140.826ZM105.186 131.34V129.144H107.274V131.34H105.186Z" fill="#007D70"/>
</svg>
