<svg width="306" height="166" viewBox="0 0 306 166" fill="none" xmlns="http://www.w3.org/2000/svg">
<path d="M142.908 119V105.788H146.922C148.53 105.788 149.748 106.166 150.576 106.922C151.416 107.666 151.836 108.68 151.836 109.964V110.252C151.836 111.524 151.416 112.538 150.576 113.294C149.748 114.05 148.53 114.428 146.922 114.428H144.672V119H142.908ZM147.246 107.336H144.672V112.88H147.246C148.17 112.88 148.866 112.616 149.334 112.088C149.802 111.548 150.036 110.888 150.036 110.108C150.036 109.316 149.802 108.656 149.334 108.128C148.866 107.6 148.17 107.336 147.246 107.336Z" fill="#4D434B"/>
<path d="M156.728 119.252C155.636 119.252 154.778 118.982 154.154 118.442C153.542 117.89 153.236 117.116 153.236 116.12C153.236 115.1 153.578 114.332 154.262 113.816C154.946 113.288 155.912 113.024 157.16 113.024H159.59V112.79C159.59 111.458 158.918 110.792 157.574 110.792C157.022 110.792 156.446 110.804 155.846 110.828C155.246 110.852 154.748 110.876 154.352 110.9V109.388C154.736 109.352 155.162 109.328 155.63 109.316C156.11 109.292 156.566 109.28 156.998 109.28C158.474 109.28 159.548 109.55 160.22 110.09C160.904 110.63 161.246 111.572 161.246 112.916V119H159.878V117.092C159.446 118.532 158.396 119.252 156.728 119.252ZM157.088 117.884C157.496 117.884 157.886 117.812 158.258 117.668C158.63 117.512 158.936 117.26 159.176 116.912C159.428 116.552 159.566 116.06 159.59 115.436V114.32H157.088C156.392 114.32 155.858 114.488 155.486 114.824C155.114 115.16 154.928 115.592 154.928 116.12C154.928 116.648 155.114 117.074 155.486 117.398C155.858 117.722 156.392 117.884 157.088 117.884Z" fill="#4D434B"/>
<path d="M164.418 119V109.388H165.786V112.268C165.93 111.236 166.308 110.48 166.92 110C167.532 109.52 168.366 109.28 169.422 109.28H169.746V110.828H169.134C168.174 110.828 167.436 111.086 166.92 111.602C166.404 112.106 166.146 112.838 166.146 113.798V119H164.418Z" fill="#4D434B"/>
<path d="M174.429 119.252C173.337 119.252 172.479 118.982 171.855 118.442C171.243 117.89 170.937 117.116 170.937 116.12C170.937 115.1 171.279 114.332 171.963 113.816C172.647 113.288 173.613 113.024 174.861 113.024H177.291V112.79C177.291 111.458 176.619 110.792 175.275 110.792C174.723 110.792 174.147 110.804 173.547 110.828C172.947 110.852 172.449 110.876 172.053 110.9V109.388C172.437 109.352 172.863 109.328 173.331 109.316C173.811 109.292 174.267 109.28 174.699 109.28C176.175 109.28 177.249 109.55 177.921 110.09C178.605 110.63 178.947 111.572 178.947 112.916V119H177.579V117.092C177.147 118.532 176.097 119.252 174.429 119.252ZM174.789 117.884C175.197 117.884 175.587 117.812 175.959 117.668C176.331 117.512 176.637 117.26 176.877 116.912C177.129 116.552 177.267 116.06 177.291 115.436V114.32H174.789C174.093 114.32 173.559 114.488 173.187 114.824C172.815 115.16 172.629 115.592 172.629 116.12C172.629 116.648 172.815 117.074 173.187 117.398C173.559 117.722 174.093 117.884 174.789 117.884Z" fill="#4D434B"/>
<path d="M190.3 119.324C189.46 119.324 188.734 119.18 188.122 118.892C187.51 118.604 187.012 118.226 186.628 117.758C186.244 117.278 185.956 116.744 185.764 116.156C185.584 115.568 185.494 114.968 185.494 114.356V114.032C185.494 113.408 185.584 112.802 185.764 112.214C185.956 111.626 186.244 111.098 186.628 110.63C187.012 110.15 187.498 109.772 188.086 109.496C188.686 109.208 189.388 109.064 190.192 109.064C191.236 109.064 192.094 109.292 192.766 109.748C193.45 110.192 193.954 110.768 194.278 111.476C194.614 112.184 194.782 112.94 194.782 113.744V114.518H187.15C187.21 115.466 187.492 116.252 187.996 116.876C188.5 117.5 189.268 117.812 190.3 117.812C191.056 117.812 191.668 117.644 192.136 117.308C192.616 116.972 192.904 116.582 193 116.138H194.62C194.416 117.134 193.93 117.914 193.162 118.478C192.394 119.042 191.44 119.324 190.3 119.324ZM190.192 110.576C189.328 110.576 188.65 110.822 188.158 111.314C187.666 111.794 187.354 112.43 187.222 113.222H193.09C192.982 112.406 192.688 111.764 192.208 111.296C191.728 110.816 191.056 110.576 190.192 110.576Z" fill="#4D434B"/>
<path d="M197.236 119V109.388H198.604V111.602C198.808 110.798 199.168 110.18 199.684 109.748C200.212 109.316 200.896 109.1 201.736 109.1H201.808C202.624 109.1 203.29 109.304 203.806 109.712C204.322 110.12 204.688 110.708 204.904 111.476C205.132 110.708 205.504 110.12 206.02 109.712C206.548 109.304 207.22 109.1 208.036 109.1H208.108C209.248 109.1 210.094 109.49 210.646 110.27C211.21 111.038 211.492 112.118 211.492 113.51V119H209.764V113.132C209.764 112.352 209.572 111.752 209.188 111.332C208.804 110.9 208.27 110.684 207.586 110.684C206.878 110.684 206.308 110.912 205.876 111.368C205.444 111.812 205.228 112.436 205.228 113.24V119H203.5V113.132C203.5 112.352 203.308 111.752 202.924 111.332C202.54 110.9 202.006 110.684 201.322 110.684C200.614 110.684 200.044 110.912 199.612 111.368C199.18 111.812 198.964 112.436 198.964 113.24V119H197.236Z" fill="#4D434B"/>
<path d="M214.656 122.6V109.388H216.024V111.746C216.348 110.822 216.852 110.144 217.536 109.712C218.22 109.28 218.988 109.064 219.84 109.064C220.776 109.064 221.586 109.292 222.27 109.748C222.966 110.204 223.506 110.81 223.89 111.566C224.274 112.31 224.466 113.132 224.466 114.032V114.356C224.466 115.256 224.268 116.084 223.872 116.84C223.476 117.584 222.924 118.184 222.216 118.64C221.52 119.096 220.716 119.324 219.804 119.324C219.144 119.324 218.508 119.186 217.896 118.91C217.284 118.634 216.78 118.184 216.384 117.56V122.6H214.656ZM219.534 117.812C220.182 117.812 220.746 117.662 221.226 117.362C221.706 117.05 222.078 116.624 222.342 116.084C222.606 115.532 222.738 114.902 222.738 114.194C222.738 113.474 222.606 112.844 222.342 112.304C222.078 111.764 221.706 111.344 221.226 111.044C220.746 110.732 220.182 110.576 219.534 110.576C218.958 110.576 218.424 110.708 217.932 110.972C217.44 111.224 217.044 111.596 216.744 112.088C216.456 112.568 216.312 113.15 216.312 113.834V114.662C216.312 115.322 216.462 115.886 216.762 116.354C217.062 116.822 217.458 117.182 217.95 117.434C218.442 117.686 218.97 117.812 219.534 117.812Z" fill="#4D434B"/>
<path d="M227.066 119V109.388H228.434V112.268C228.578 111.236 228.956 110.48 229.568 110C230.18 109.52 231.014 109.28 232.07 109.28H232.394V110.828H231.782C230.822 110.828 230.084 111.086 229.568 111.602C229.052 112.106 228.794 112.838 228.794 113.798V119H227.066Z" fill="#4D434B"/>
<path d="M238.429 119.324C237.589 119.324 236.863 119.18 236.251 118.892C235.639 118.604 235.141 118.226 234.757 117.758C234.373 117.278 234.085 116.744 233.893 116.156C233.713 115.568 233.623 114.968 233.623 114.356V114.032C233.623 113.408 233.713 112.802 233.893 112.214C234.085 111.626 234.373 111.098 234.757 110.63C235.141 110.15 235.627 109.772 236.215 109.496C236.815 109.208 237.517 109.064 238.321 109.064C239.365 109.064 240.223 109.292 240.895 109.748C241.579 110.192 242.083 110.768 242.407 111.476C242.743 112.184 242.911 112.94 242.911 113.744V114.518H235.279C235.339 115.466 235.621 116.252 236.125 116.876C236.629 117.5 237.397 117.812 238.429 117.812C239.185 117.812 239.797 117.644 240.265 117.308C240.745 116.972 241.033 116.582 241.129 116.138H242.749C242.545 117.134 242.059 117.914 241.291 118.478C240.523 119.042 239.569 119.324 238.429 119.324ZM238.321 110.576C237.457 110.576 236.779 110.822 236.287 111.314C235.795 111.794 235.483 112.43 235.351 113.222H241.219C241.111 112.406 240.817 111.764 240.337 111.296C239.857 110.816 239.185 110.576 238.321 110.576Z" fill="#4D434B"/>
<path d="M248.515 119.288C247.255 119.288 246.277 119.018 245.581 118.478C244.897 117.938 244.543 117.2 244.519 116.264H246.139C246.163 116.636 246.349 116.99 246.697 117.326C247.057 117.65 247.663 117.812 248.515 117.812C249.283 117.812 249.871 117.662 250.279 117.362C250.687 117.05 250.891 116.672 250.891 116.228C250.891 115.832 250.741 115.526 250.441 115.31C250.141 115.082 249.655 114.932 248.983 114.86L247.939 114.752C247.027 114.656 246.283 114.386 245.707 113.942C245.131 113.486 244.843 112.85 244.843 112.034C244.843 111.11 245.185 110.39 245.869 109.874C246.553 109.358 247.435 109.1 248.515 109.1C249.595 109.1 250.471 109.34 251.143 109.82C251.815 110.3 252.163 111.014 252.187 111.962H250.567C250.555 111.578 250.375 111.254 250.027 110.99C249.691 110.714 249.187 110.576 248.515 110.576C247.843 110.576 247.333 110.714 246.985 110.99C246.637 111.266 246.463 111.614 246.463 112.034C246.463 112.394 246.583 112.682 246.823 112.898C247.075 113.114 247.483 113.252 248.047 113.312L249.091 113.42C250.123 113.528 250.951 113.816 251.575 114.284C252.199 114.74 252.511 115.388 252.511 116.228C252.511 116.828 252.337 117.362 251.989 117.83C251.653 118.286 251.185 118.646 250.585 118.91C249.985 119.162 249.295 119.288 248.515 119.288Z" fill="#4D434B"/>
<path d="M257.679 119.252C256.587 119.252 255.729 118.982 255.105 118.442C254.493 117.89 254.187 117.116 254.187 116.12C254.187 115.1 254.529 114.332 255.213 113.816C255.897 113.288 256.863 113.024 258.111 113.024H260.541V112.79C260.541 111.458 259.869 110.792 258.525 110.792C257.973 110.792 257.397 110.804 256.797 110.828C256.197 110.852 255.699 110.876 255.303 110.9V109.388C255.687 109.352 256.113 109.328 256.581 109.316C257.061 109.292 257.517 109.28 257.949 109.28C259.425 109.28 260.499 109.55 261.171 110.09C261.855 110.63 262.197 111.572 262.197 112.916V119H260.829V117.092C260.397 118.532 259.347 119.252 257.679 119.252ZM258.039 117.884C258.447 117.884 258.837 117.812 259.209 117.668C259.581 117.512 259.887 117.26 260.127 116.912C260.379 116.552 260.517 116.06 260.541 115.436V114.32H258.039C257.343 114.32 256.809 114.488 256.437 114.824C256.065 115.16 255.879 115.592 255.879 116.12C255.879 116.648 256.065 117.074 256.437 117.398C256.809 117.722 257.343 117.884 258.039 117.884Z" fill="#4D434B"/>
<path d="M268.519 119.288C267.259 119.288 266.281 119.018 265.585 118.478C264.901 117.938 264.547 117.2 264.523 116.264H266.143C266.167 116.636 266.353 116.99 266.701 117.326C267.061 117.65 267.667 117.812 268.519 117.812C269.287 117.812 269.875 117.662 270.283 117.362C270.691 117.05 270.895 116.672 270.895 116.228C270.895 115.832 270.745 115.526 270.445 115.31C270.145 115.082 269.659 114.932 268.987 114.86L267.943 114.752C267.031 114.656 266.287 114.386 265.711 113.942C265.135 113.486 264.847 112.85 264.847 112.034C264.847 111.11 265.189 110.39 265.873 109.874C266.557 109.358 267.439 109.1 268.519 109.1C269.599 109.1 270.475 109.34 271.147 109.82C271.819 110.3 272.167 111.014 272.191 111.962H270.571C270.559 111.578 270.379 111.254 270.031 110.99C269.695 110.714 269.191 110.576 268.519 110.576C267.847 110.576 267.337 110.714 266.989 110.99C266.641 111.266 266.467 111.614 266.467 112.034C266.467 112.394 266.587 112.682 266.827 112.898C267.079 113.114 267.487 113.252 268.051 113.312L269.095 113.42C270.127 113.528 270.955 113.816 271.579 114.284C272.203 114.74 272.515 115.388 272.515 116.228C272.515 116.828 272.341 117.362 271.993 117.83C271.657 118.286 271.189 118.646 270.589 118.91C269.989 119.162 269.299 119.288 268.519 119.288Z" fill="#4D434B"/>
<path d="M281.779 119.252C280.687 119.252 279.829 118.982 279.205 118.442C278.593 117.89 278.287 117.116 278.287 116.12C278.287 115.1 278.629 114.332 279.313 113.816C279.997 113.288 280.963 113.024 282.211 113.024H284.641V112.79C284.641 111.458 283.969 110.792 282.625 110.792C282.073 110.792 281.497 110.804 280.897 110.828C280.297 110.852 279.799 110.876 279.403 110.9V109.388C279.787 109.352 280.213 109.328 280.681 109.316C281.161 109.292 281.617 109.28 282.049 109.28C283.525 109.28 284.599 109.55 285.271 110.09C285.955 110.63 286.297 111.572 286.297 112.916V119H284.929V117.092C284.497 118.532 283.447 119.252 281.779 119.252ZM282.139 117.884C282.547 117.884 282.937 117.812 283.309 117.668C283.681 117.512 283.987 117.26 284.227 116.912C284.479 116.552 284.617 116.06 284.641 115.436V114.32H282.139C281.443 114.32 280.909 114.488 280.537 114.824C280.165 115.16 279.979 115.592 279.979 116.12C279.979 116.648 280.165 117.074 280.537 117.398C280.909 117.722 281.443 117.884 282.139 117.884Z" fill="#4D434B"/>
<path d="M293.212 119.108C292.492 119.108 291.868 119.006 291.34 118.802C290.824 118.598 290.422 118.25 290.134 117.758C289.858 117.254 289.72 116.576 289.72 115.724V110.684H288.064V109.388H289.72V106.472H291.376V109.388H294.688V110.684H291.376V115.94C291.376 116.456 291.514 116.858 291.79 117.146C292.078 117.422 292.48 117.56 292.996 117.56H294.688V119.108H293.212Z" fill="#4D434B"/>
<path d="M301.148 119.324C300.308 119.324 299.582 119.18 298.97 118.892C298.358 118.604 297.86 118.226 297.476 117.758C297.092 117.278 296.804 116.744 296.612 116.156C296.432 115.568 296.342 114.968 296.342 114.356V114.032C296.342 113.408 296.432 112.802 296.612 112.214C296.804 111.626 297.092 111.098 297.476 110.63C297.86 110.15 298.346 109.772 298.934 109.496C299.534 109.208 300.236 109.064 301.04 109.064C302.084 109.064 302.942 109.292 303.614 109.748C304.298 110.192 304.802 110.768 305.126 111.476C305.462 112.184 305.63 112.94 305.63 113.744V114.518H297.998C298.058 115.466 298.34 116.252 298.844 116.876C299.348 117.5 300.116 117.812 301.148 117.812C301.904 117.812 302.516 117.644 302.984 117.308C303.464 116.972 303.752 116.582 303.848 116.138H305.468C305.264 117.134 304.778 117.914 304.01 118.478C303.242 119.042 302.288 119.324 301.148 119.324ZM301.04 110.576C300.176 110.576 299.498 110.822 299.006 111.314C298.514 111.794 298.202 112.43 298.07 113.222H303.938C303.83 112.406 303.536 111.764 303.056 111.296C302.576 110.816 301.904 110.576 301.04 110.576ZM300.158 107.984L301.742 104.42H303.56L301.562 107.984H300.158Z" fill="#4D434B"/>
<path d="M146.688 144.324C145.68 144.324 144.828 144.12 144.132 143.712C143.436 143.292 142.908 142.746 142.548 142.074C142.188 141.402 142.008 140.688 142.008 139.932H143.7C143.7 140.76 143.97 141.45 144.51 142.002C145.05 142.542 145.776 142.812 146.688 142.812C147.588 142.812 148.314 142.542 148.866 142.002C149.418 141.462 149.694 140.772 149.694 139.932C149.694 139.38 149.568 138.882 149.316 138.438C149.076 137.994 148.728 137.64 148.272 137.376C147.828 137.112 147.3 136.98 146.688 136.98C146.244 136.98 145.794 137.058 145.338 137.214C144.882 137.358 144.516 137.568 144.24 137.844H142.656L143.322 130.86H150.216V132.336H144.708L144.312 136.224C144.636 136.008 145.002 135.84 145.41 135.72C145.818 135.6 146.268 135.54 146.76 135.54C147.768 135.54 148.614 135.75 149.298 136.17C149.982 136.578 150.498 137.112 150.846 137.772C151.206 138.42 151.386 139.098 151.386 139.806V140.058C151.386 140.766 151.206 141.45 150.846 142.11C150.486 142.758 149.952 143.292 149.244 143.712C148.548 144.12 147.696 144.324 146.688 144.324Z" fill="#4D434B"/>
<path d="M158.911 144.324C157.927 144.324 157.087 144.156 156.391 143.82C155.707 143.472 155.149 143.004 154.717 142.416C154.297 141.828 153.991 141.15 153.799 140.382C153.607 139.602 153.511 138.78 153.511 137.916V136.944C153.511 135.732 153.697 134.64 154.069 133.668C154.453 132.696 155.041 131.928 155.833 131.364C156.637 130.788 157.663 130.5 158.911 130.5C160.159 130.5 161.179 130.788 161.971 131.364C162.763 131.928 163.345 132.696 163.717 133.668C164.101 134.64 164.293 135.732 164.293 136.944V137.916C164.293 138.78 164.197 139.602 164.005 140.382C163.813 141.15 163.501 141.828 163.069 142.416C162.649 143.004 162.097 143.472 161.413 143.82C160.729 144.156 159.895 144.324 158.911 144.324ZM158.911 142.74C160.159 142.74 161.071 142.32 161.647 141.48C162.235 140.628 162.529 139.284 162.529 137.448C162.529 135.528 162.229 134.154 161.629 133.326C161.041 132.498 160.135 132.084 158.911 132.084C157.675 132.084 156.757 132.498 156.157 133.326C155.569 134.154 155.275 135.516 155.275 137.412C155.275 139.26 155.569 140.61 156.157 141.462C156.745 142.314 157.663 142.74 158.911 142.74Z" fill="#4D434B"/>
<path d="M175.465 144.324C174.637 144.324 173.917 144.18 173.305 143.892C172.705 143.604 172.207 143.22 171.811 142.74C171.415 142.248 171.115 141.708 170.911 141.12C170.719 140.532 170.623 139.944 170.623 139.356V139.032C170.623 138.42 170.719 137.82 170.911 137.232C171.115 136.644 171.415 136.116 171.811 135.648C172.219 135.168 172.723 134.784 173.323 134.496C173.923 134.208 174.625 134.064 175.429 134.064C176.233 134.064 176.953 134.214 177.589 134.514C178.237 134.814 178.753 135.24 179.137 135.792C179.533 136.332 179.755 136.974 179.803 137.718H178.147C178.063 137.118 177.787 136.62 177.319 136.224C176.851 135.816 176.221 135.612 175.429 135.612C174.745 135.612 174.175 135.768 173.719 136.08C173.263 136.392 172.921 136.818 172.693 137.358C172.465 137.898 172.351 138.51 172.351 139.194C172.351 139.854 172.465 140.46 172.693 141.012C172.921 141.552 173.263 141.984 173.719 142.308C174.187 142.62 174.769 142.776 175.465 142.776C176.269 142.776 176.917 142.572 177.409 142.164C177.901 141.744 178.183 141.228 178.255 140.616H179.911C179.875 141.372 179.653 142.026 179.245 142.578C178.849 143.13 178.321 143.562 177.661 143.874C177.013 144.174 176.281 144.324 175.465 144.324Z" fill="#4D434B"/>
<path d="M186.687 144.324C185.847 144.324 185.109 144.18 184.473 143.892C183.837 143.604 183.297 143.226 182.853 142.758C182.421 142.278 182.091 141.744 181.863 141.156C181.647 140.568 181.539 139.968 181.539 139.356V139.032C181.539 138.42 181.653 137.82 181.881 137.232C182.109 136.632 182.445 136.098 182.889 135.63C183.333 135.15 183.873 134.772 184.509 134.496C185.145 134.208 185.871 134.064 186.687 134.064C187.503 134.064 188.229 134.208 188.865 134.496C189.501 134.772 190.041 135.15 190.485 135.63C190.929 136.098 191.265 136.632 191.493 137.232C191.721 137.82 191.835 138.42 191.835 139.032V139.356C191.835 139.968 191.721 140.568 191.493 141.156C191.277 141.744 190.947 142.278 190.503 142.758C190.071 143.226 189.537 143.604 188.901 143.892C188.265 144.18 187.527 144.324 186.687 144.324ZM186.687 142.776C187.407 142.776 188.019 142.62 188.523 142.308C189.039 141.984 189.429 141.552 189.693 141.012C189.969 140.472 190.107 139.866 190.107 139.194C190.107 138.51 189.969 137.898 189.693 137.358C189.417 136.818 189.021 136.392 188.505 136.08C188.001 135.768 187.395 135.612 186.687 135.612C185.991 135.612 185.385 135.768 184.869 136.08C184.353 136.392 183.957 136.818 183.681 137.358C183.405 137.898 183.267 138.51 183.267 139.194C183.267 139.866 183.399 140.472 183.663 141.012C183.939 141.552 184.329 141.984 184.833 142.308C185.349 142.62 185.967 142.776 186.687 142.776Z" fill="#4D434B"/>
<path d="M194.531 144V132.228H193.199V130.86H196.259V144H194.531Z" fill="#4D434B"/>
<path d="M202.238 144.252C201.146 144.252 200.288 143.982 199.664 143.442C199.052 142.89 198.746 142.116 198.746 141.12C198.746 140.1 199.088 139.332 199.772 138.816C200.456 138.288 201.422 138.024 202.67 138.024H205.1V137.79C205.1 136.458 204.428 135.792 203.084 135.792C202.532 135.792 201.956 135.804 201.356 135.828C200.756 135.852 200.258 135.876 199.862 135.9V134.388C200.246 134.352 200.672 134.328 201.14 134.316C201.62 134.292 202.076 134.28 202.508 134.28C203.984 134.28 205.058 134.55 205.73 135.09C206.414 135.63 206.756 136.572 206.756 137.916V144H205.388V142.092C204.956 143.532 203.906 144.252 202.238 144.252ZM202.598 142.884C203.006 142.884 203.396 142.812 203.768 142.668C204.14 142.512 204.446 142.26 204.686 141.912C204.938 141.552 205.076 141.06 205.1 140.436V139.32H202.598C201.902 139.32 201.368 139.488 200.996 139.824C200.624 140.16 200.438 140.592 200.438 141.12C200.438 141.648 200.624 142.074 200.996 142.398C201.368 142.722 201.902 142.884 202.598 142.884Z" fill="#4D434B"/>
<path d="M215.003 144.324C214.151 144.324 213.401 144.126 212.753 143.73C212.117 143.334 211.631 142.764 211.295 142.02V144H209.927V130.86H211.655V136.044C212.015 135.372 212.501 134.874 213.113 134.55C213.725 134.226 214.403 134.064 215.147 134.064C216.071 134.064 216.875 134.286 217.559 134.73C218.243 135.174 218.777 135.768 219.161 136.512C219.545 137.256 219.737 138.084 219.737 138.996V139.32C219.737 140.22 219.539 141.054 219.143 141.822C218.747 142.578 218.195 143.184 217.487 143.64C216.779 144.096 215.951 144.324 215.003 144.324ZM214.805 142.812C215.453 142.812 216.017 142.656 216.497 142.344C216.977 142.032 217.349 141.606 217.613 141.066C217.877 140.514 218.009 139.878 218.009 139.158C218.009 138.078 217.715 137.214 217.127 136.566C216.539 135.906 215.765 135.576 214.805 135.576C214.229 135.576 213.695 135.708 213.203 135.972C212.711 136.224 212.315 136.596 212.015 137.088C211.727 137.568 211.583 138.15 211.583 138.834V139.662C211.583 140.322 211.733 140.886 212.033 141.354C212.333 141.822 212.729 142.182 213.221 142.434C213.713 142.686 214.241 142.812 214.805 142.812Z" fill="#4D434B"/>
<path d="M226.766 144.324C225.926 144.324 225.187 144.18 224.551 143.892C223.915 143.604 223.376 143.226 222.932 142.758C222.5 142.278 222.169 141.744 221.941 141.156C221.725 140.568 221.617 139.968 221.617 139.356V139.032C221.617 138.42 221.732 137.82 221.96 137.232C222.188 136.632 222.523 136.098 222.967 135.63C223.411 135.15 223.951 134.772 224.587 134.496C225.223 134.208 225.95 134.064 226.766 134.064C227.582 134.064 228.307 134.208 228.943 134.496C229.579 134.772 230.12 135.15 230.564 135.63C231.008 136.098 231.344 136.632 231.572 137.232C231.8 137.82 231.913 138.42 231.913 139.032V139.356C231.913 139.968 231.8 140.568 231.572 141.156C231.356 141.744 231.025 142.278 230.581 142.758C230.149 143.226 229.616 143.604 228.98 143.892C228.344 144.18 227.606 144.324 226.766 144.324ZM226.766 142.776C227.486 142.776 228.098 142.62 228.602 142.308C229.118 141.984 229.507 141.552 229.771 141.012C230.047 140.472 230.186 139.866 230.186 139.194C230.186 138.51 230.047 137.898 229.771 137.358C229.495 136.818 229.099 136.392 228.583 136.08C228.079 135.768 227.474 135.612 226.766 135.612C226.07 135.612 225.463 135.768 224.947 136.08C224.431 136.392 224.036 136.818 223.76 137.358C223.484 137.898 223.346 138.51 223.346 139.194C223.346 139.866 223.478 140.472 223.742 141.012C224.018 141.552 224.407 141.984 224.911 142.308C225.427 142.62 226.046 142.776 226.766 142.776Z" fill="#4D434B"/>
<path d="M234.502 144V134.388H235.87V137.268C236.014 136.236 236.392 135.48 237.004 135C237.616 134.52 238.45 134.28 239.506 134.28H239.83V135.828H239.218C238.258 135.828 237.52 136.086 237.004 136.602C236.488 137.106 236.23 137.838 236.23 138.798V144H234.502Z" fill="#4D434B"/>
<path d="M244.513 144.252C243.421 144.252 242.563 143.982 241.939 143.442C241.327 142.89 241.021 142.116 241.021 141.12C241.021 140.1 241.363 139.332 242.047 138.816C242.731 138.288 243.697 138.024 244.945 138.024H247.375V137.79C247.375 136.458 246.703 135.792 245.359 135.792C244.807 135.792 244.231 135.804 243.631 135.828C243.031 135.852 242.533 135.876 242.137 135.9V134.388C242.521 134.352 242.947 134.328 243.415 134.316C243.895 134.292 244.351 134.28 244.783 134.28C246.259 134.28 247.333 134.55 248.005 135.09C248.689 135.63 249.031 136.572 249.031 137.916V144H247.663V142.092C247.231 143.532 246.181 144.252 244.513 144.252ZM244.873 142.884C245.281 142.884 245.671 142.812 246.043 142.668C246.415 142.512 246.721 142.26 246.961 141.912C247.213 141.552 247.351 141.06 247.375 140.436V139.32H244.873C244.177 139.32 243.643 139.488 243.271 139.824C242.899 140.16 242.713 140.592 242.713 141.12C242.713 141.648 242.899 142.074 243.271 142.398C243.643 142.722 244.177 142.884 244.873 142.884Z" fill="#4D434B"/>
<path d="M256.217 144.324C255.305 144.324 254.489 144.102 253.769 143.658C253.061 143.214 252.503 142.62 252.095 141.876C251.687 141.12 251.483 140.28 251.483 139.356V139.032C251.483 138.12 251.681 137.292 252.077 136.548C252.473 135.792 253.019 135.192 253.715 134.748C254.423 134.292 255.239 134.064 256.163 134.064C256.871 134.064 257.519 134.208 258.107 134.496C258.707 134.784 259.193 135.234 259.565 135.846V130.86H261.293V144H259.925V142.02C259.553 142.836 259.031 143.424 258.359 143.784C257.699 144.144 256.985 144.324 256.217 144.324ZM256.451 142.812C257.039 142.812 257.573 142.68 258.053 142.416C258.533 142.152 258.917 141.774 259.205 141.282C259.493 140.778 259.637 140.19 259.637 139.518V138.69C259.637 138.03 259.487 137.472 259.187 137.016C258.899 136.548 258.509 136.194 258.017 135.954C257.537 135.702 257.009 135.576 256.433 135.576C255.473 135.576 254.693 135.906 254.093 136.566C253.505 137.226 253.211 138.102 253.211 139.194C253.211 139.926 253.349 140.568 253.625 141.12C253.901 141.66 254.285 142.08 254.777 142.38C255.269 142.668 255.827 142.812 256.451 142.812Z" fill="#4D434B"/>
<path d="M269.041 144.324C268.201 144.324 267.463 144.18 266.827 143.892C266.191 143.604 265.651 143.226 265.207 142.758C264.775 142.278 264.445 141.744 264.217 141.156C264.001 140.568 263.893 139.968 263.893 139.356V139.032C263.893 138.42 264.007 137.82 264.235 137.232C264.463 136.632 264.799 136.098 265.243 135.63C265.687 135.15 266.227 134.772 266.863 134.496C267.499 134.208 268.225 134.064 269.041 134.064C269.857 134.064 270.583 134.208 271.219 134.496C271.855 134.772 272.395 135.15 272.839 135.63C273.283 136.098 273.619 136.632 273.847 137.232C274.075 137.82 274.189 138.42 274.189 139.032V139.356C274.189 139.968 274.075 140.568 273.847 141.156C273.631 141.744 273.301 142.278 272.857 142.758C272.425 143.226 271.891 143.604 271.255 143.892C270.619 144.18 269.881 144.324 269.041 144.324ZM269.041 142.776C269.761 142.776 270.373 142.62 270.877 142.308C271.393 141.984 271.783 141.552 272.047 141.012C272.323 140.472 272.461 139.866 272.461 139.194C272.461 138.51 272.323 137.898 272.047 137.358C271.771 136.818 271.375 136.392 270.859 136.08C270.355 135.768 269.749 135.612 269.041 135.612C268.345 135.612 267.739 135.768 267.223 136.08C266.707 136.392 266.311 136.818 266.035 137.358C265.759 137.898 265.621 138.51 265.621 139.194C265.621 139.866 265.753 140.472 266.017 141.012C266.293 141.552 266.683 141.984 267.187 142.308C267.703 142.62 268.321 142.776 269.041 142.776Z" fill="#4D434B"/>
<path d="M276.777 144V134.388H278.145V137.268C278.289 136.236 278.667 135.48 279.279 135C279.891 134.52 280.725 134.28 281.781 134.28H282.105V135.828H281.493C280.533 135.828 279.795 136.086 279.279 136.602C278.763 137.106 278.505 137.838 278.505 138.798V144H276.777Z" fill="#4D434B"/>
<path d="M288.14 144.324C287.3 144.324 286.574 144.18 285.962 143.892C285.35 143.604 284.852 143.226 284.468 142.758C284.084 142.278 283.796 141.744 283.604 141.156C283.424 140.568 283.334 139.968 283.334 139.356V139.032C283.334 138.408 283.424 137.802 283.604 137.214C283.796 136.626 284.084 136.098 284.468 135.63C284.852 135.15 285.338 134.772 285.926 134.496C286.526 134.208 287.228 134.064 288.032 134.064C289.076 134.064 289.934 134.292 290.606 134.748C291.29 135.192 291.794 135.768 292.118 136.476C292.454 137.184 292.622 137.94 292.622 138.744V139.518H284.99C285.05 140.466 285.332 141.252 285.836 141.876C286.34 142.5 287.108 142.812 288.14 142.812C288.896 142.812 289.508 142.644 289.976 142.308C290.456 141.972 290.744 141.582 290.84 141.138H292.46C292.256 142.134 291.77 142.914 291.002 143.478C290.234 144.042 289.28 144.324 288.14 144.324ZM288.032 135.576C287.168 135.576 286.49 135.822 285.998 136.314C285.506 136.794 285.194 137.43 285.062 138.222H290.93C290.822 137.406 290.528 136.764 290.048 136.296C289.568 135.816 288.896 135.576 288.032 135.576Z" fill="#4D434B"/>
<path d="M298.226 144.288C296.966 144.288 295.988 144.018 295.292 143.478C294.608 142.938 294.254 142.2 294.23 141.264H295.85C295.874 141.636 296.06 141.99 296.408 142.326C296.768 142.65 297.374 142.812 298.226 142.812C298.994 142.812 299.582 142.662 299.99 142.362C300.398 142.05 300.602 141.672 300.602 141.228C300.602 140.832 300.452 140.526 300.152 140.31C299.852 140.082 299.366 139.932 298.694 139.86L297.65 139.752C296.738 139.656 295.994 139.386 295.418 138.942C294.842 138.486 294.554 137.85 294.554 137.034C294.554 136.11 294.896 135.39 295.58 134.874C296.264 134.358 297.146 134.1 298.226 134.1C299.306 134.1 300.182 134.34 300.854 134.82C301.526 135.3 301.874 136.014 301.898 136.962H300.278C300.266 136.578 300.086 136.254 299.738 135.99C299.402 135.714 298.898 135.576 298.226 135.576C297.554 135.576 297.044 135.714 296.696 135.99C296.348 136.266 296.174 136.614 296.174 137.034C296.174 137.394 296.294 137.682 296.534 137.898C296.786 138.114 297.194 138.252 297.758 138.312L298.802 138.42C299.834 138.528 300.662 138.816 301.286 139.284C301.91 139.74 302.222 140.388 302.222 141.228C302.222 141.828 302.048 142.362 301.7 142.83C301.364 143.286 300.896 143.646 300.296 143.91C299.696 144.162 299.006 144.288 298.226 144.288Z" fill="#4D434B"/>
<path d="M144.738 94.4V78.054H147.158V81.046C147.525 79.9313 148.126 79.0953 148.962 78.5379C149.798 77.9659 150.759 77.68 151.844 77.68C152.973 77.68 153.949 77.9513 154.77 78.4939C155.606 79.0366 156.259 79.77 156.728 80.694C157.197 81.6033 157.432 82.6299 157.432 83.7739V84.236C157.432 85.38 157.205 86.4213 156.75 87.36C156.295 88.284 155.65 89.0246 154.814 89.582C153.978 90.1246 152.988 90.396 151.844 90.396C151.008 90.396 150.238 90.242 149.534 89.934C148.83 89.6113 148.251 89.1053 147.796 88.416V94.4H144.738ZM151.074 87.822C152.057 87.822 152.849 87.47 153.45 86.766C154.066 86.0473 154.374 85.1306 154.374 84.016C154.374 82.8866 154.066 81.9773 153.45 81.2879C152.849 80.5986 152.057 80.254 151.074 80.254C150.473 80.254 149.915 80.3933 149.402 80.672C148.889 80.936 148.478 81.3246 148.17 81.838C147.862 82.3366 147.708 82.9453 147.708 83.664V84.544C147.708 85.2333 147.869 85.8273 148.192 86.326C148.515 86.81 148.933 87.184 149.446 87.448C149.959 87.6973 150.502 87.822 151.074 87.822Z" fill="#4D434B"/>
<path d="M165.863 90.418C164.455 90.418 163.267 90.132 162.299 89.56C161.331 88.9733 160.59 88.2106 160.077 87.2719C159.578 86.3333 159.329 85.336 159.329 84.28V83.818C159.329 82.718 159.585 81.6986 160.099 80.7599C160.627 79.8213 161.375 79.0659 162.343 78.4939C163.325 77.9219 164.499 77.6359 165.863 77.6359C167.212 77.6359 168.371 77.9219 169.339 78.4939C170.321 79.0659 171.069 79.8213 171.583 80.7599C172.111 81.6986 172.375 82.718 172.375 83.818V84.28C172.375 85.336 172.118 86.3333 171.605 87.2719C171.106 88.2106 170.373 88.9733 169.405 89.56C168.437 90.132 167.256 90.418 165.863 90.418ZM165.863 87.7999C166.977 87.7999 167.828 87.4479 168.415 86.7439C169.016 86.0253 169.317 85.1233 169.317 84.0379C169.317 82.9526 169.009 82.0506 168.393 81.332C167.777 80.6133 166.933 80.254 165.863 80.254C164.777 80.254 163.927 80.6133 163.311 81.332C162.695 82.0506 162.387 82.9526 162.387 84.0379C162.387 85.1233 162.68 86.0253 163.267 86.7439C163.868 87.4479 164.733 87.7999 165.863 87.7999Z" fill="#4D434B"/>
<path d="M175.052 90V78.054H177.472V81.948C177.795 79.2493 179.218 77.9 181.74 77.9H182.18V80.562H181.344C180.303 80.562 179.504 80.8406 178.946 81.3979C178.389 81.9553 178.11 82.7473 178.11 83.7739V90H175.052Z" fill="#4D434B"/>
<path d="M193.308 90.374C191.666 90.374 190.375 90.0293 189.436 89.34C188.512 88.636 188.028 87.668 187.984 86.436H190.734C190.764 86.8613 190.984 87.2426 191.394 87.5799C191.82 87.9026 192.472 88.0639 193.352 88.0639C194.071 88.0639 194.65 87.932 195.09 87.668C195.53 87.404 195.75 87.0446 195.75 86.59C195.75 86.194 195.582 85.886 195.244 85.666C194.922 85.4313 194.364 85.27 193.572 85.182L192.516 85.072C191.167 84.9253 190.133 84.5439 189.414 83.9279C188.71 83.3119 188.358 82.4906 188.358 81.464C188.358 80.6573 188.564 79.9753 188.974 79.418C189.385 78.846 189.95 78.4206 190.668 78.142C191.402 77.8486 192.238 77.702 193.176 77.702C194.643 77.702 195.831 78.032 196.74 78.692C197.65 79.3373 198.126 80.2759 198.17 81.5079H195.42C195.376 81.0973 195.164 80.7453 194.782 80.452C194.416 80.1586 193.873 80.012 193.154 80.012C192.509 80.012 192.01 80.1366 191.658 80.386C191.306 80.6353 191.13 80.958 191.13 81.354C191.13 81.7353 191.27 82.0286 191.548 82.234C191.827 82.4393 192.296 82.5786 192.956 82.652L194.012 82.762C195.406 82.9086 196.506 83.2973 197.312 83.9279C198.119 84.5586 198.522 85.4093 198.522 86.4799C198.522 87.272 198.302 87.9613 197.862 88.548C197.437 89.12 196.836 89.5673 196.058 89.89C195.281 90.2126 194.364 90.374 193.308 90.374Z" fill="#4D434B"/>
<path d="M206.394 90.418C205.368 90.418 204.466 90.242 203.688 89.89C202.926 89.538 202.288 89.0686 201.774 88.4819C201.276 87.8806 200.894 87.2133 200.63 86.4799C200.381 85.7466 200.256 84.9986 200.256 84.236V83.818C200.256 83.026 200.381 82.2633 200.63 81.53C200.894 80.7966 201.276 80.1366 201.774 79.5499C202.288 78.9633 202.918 78.5013 203.666 78.1639C204.414 77.8119 205.28 77.6359 206.262 77.6359C207.553 77.6359 208.631 77.9219 209.496 78.4939C210.362 79.0513 211.014 79.792 211.454 80.716C211.909 81.6253 212.136 82.608 212.136 83.664V84.764H203.16C203.263 85.7026 203.571 86.458 204.084 87.03C204.612 87.602 205.382 87.888 206.394 87.888C207.128 87.888 207.729 87.7413 208.198 87.448C208.682 87.14 208.99 86.766 209.122 86.326H211.938C211.674 87.558 211.051 88.548 210.068 89.296C209.086 90.044 207.861 90.418 206.394 90.418ZM206.262 80.166C205.397 80.166 204.708 80.408 204.194 80.892C203.681 81.376 203.351 82.0433 203.204 82.894H209.21C209.093 82.0433 208.785 81.376 208.286 80.892C207.802 80.408 207.128 80.166 206.262 80.166Z" fill="#4D434B"/>
<path d="M214.691 90V78.054H217.111V80.9799C217.61 78.78 218.908 77.68 221.005 77.68H221.137C223.029 77.68 224.276 78.582 224.877 80.386C225.464 78.582 226.71 77.68 228.617 77.68H228.749C230.113 77.68 231.147 78.1493 231.851 79.088C232.57 80.0266 232.929 81.3906 232.929 83.18V90H229.871V82.894C229.871 82.146 229.68 81.552 229.299 81.112C228.918 80.6573 228.375 80.43 227.671 80.43C226.952 80.43 226.38 80.6646 225.955 81.1339C225.544 81.5886 225.339 82.2046 225.339 82.9819V90H222.281V82.894C222.281 82.146 222.09 81.552 221.709 81.112C221.328 80.6573 220.785 80.43 220.081 80.43C219.362 80.43 218.79 80.6646 218.365 81.1339C217.954 81.5886 217.749 82.2046 217.749 82.9819V90H214.691Z" fill="#4D434B"/>
<path d="M239.585 90.308C238.265 90.308 237.209 89.9706 236.417 89.296C235.64 88.6213 235.251 87.6753 235.251 86.458C235.251 85.1526 235.72 84.192 236.659 83.576C237.612 82.9453 238.888 82.63 240.487 82.63H242.929V82.52C242.929 81.156 242.24 80.474 240.861 80.474C240.494 80.474 240.054 80.4813 239.541 80.4959C239.028 80.5106 238.507 80.5326 237.979 80.562C237.466 80.5766 237.004 80.5986 236.593 80.628V78.032C237.092 77.988 237.686 77.9513 238.375 77.922C239.079 77.8926 239.724 77.878 240.311 77.878C242.144 77.878 243.523 78.252 244.447 79C245.386 79.7333 245.855 80.9286 245.855 82.586V90H243.435V87.712C242.892 89.4426 241.609 90.308 239.585 90.308ZM240.443 88.13C240.854 88.13 241.242 88.0566 241.609 87.91C241.976 87.7486 242.276 87.4846 242.511 87.118C242.76 86.7366 242.9 86.2233 242.929 85.5779V84.456H240.443C239.739 84.456 239.196 84.632 238.815 84.984C238.448 85.3213 238.265 85.7613 238.265 86.304C238.265 86.8613 238.448 87.3086 238.815 87.646C239.196 87.9686 239.739 88.13 240.443 88.13Z" fill="#4D434B"/>
<path d="M249.13 90V78.054H251.55V81.002C252.064 78.7873 253.428 77.68 255.642 77.68H255.774C257.197 77.68 258.275 78.1419 259.008 79.0659C259.742 79.9899 260.108 81.354 260.108 83.158V90H257.05V82.894C257.05 82.1606 256.838 81.5666 256.412 81.112C255.987 80.6573 255.415 80.43 254.696 80.43C253.948 80.43 253.34 80.6646 252.87 81.1339C252.416 81.6033 252.188 82.2193 252.188 82.9819V90H249.13Z" fill="#4D434B"/>
<path d="M266.784 90.308C265.464 90.308 264.408 89.9706 263.616 89.296C262.839 88.6213 262.45 87.6753 262.45 86.458C262.45 85.1526 262.919 84.192 263.858 83.576C264.811 82.9453 266.087 82.63 267.686 82.63H270.128V82.52C270.128 81.156 269.439 80.474 268.06 80.474C267.693 80.474 267.253 80.4813 266.74 80.4959C266.227 80.5106 265.706 80.5326 265.178 80.562C264.665 80.5766 264.203 80.5986 263.792 80.628V78.032C264.291 77.988 264.885 77.9513 265.574 77.922C266.278 77.8926 266.923 77.878 267.51 77.878C269.343 77.878 270.722 78.252 271.646 79C272.585 79.7333 273.054 80.9286 273.054 82.586V90H270.634V87.712C270.091 89.4426 268.808 90.308 266.784 90.308ZM267.642 88.13C268.053 88.13 268.441 88.0566 268.808 87.91C269.175 87.7486 269.475 87.4846 269.71 87.118C269.959 86.7366 270.099 86.2233 270.128 85.5779V84.456H267.642C266.938 84.456 266.395 84.632 266.014 84.984C265.647 85.3213 265.464 85.7613 265.464 86.304C265.464 86.8613 265.647 87.3086 266.014 87.646C266.395 87.9686 266.938 88.13 267.642 88.13Z" fill="#4D434B"/>
<path d="M162.584 60.216C159 60.216 155.907 59.5333 153.304 58.168C150.744 56.8026 148.781 54.9893 147.416 52.728C146.051 50.424 145.368 47.864 145.368 45.048H154.136C154.136 47.3093 154.883 49.144 156.376 50.552C157.912 51.9173 159.981 52.6 162.584 52.6C164.333 52.6 165.827 52.28 167.064 51.64C168.344 50.9573 169.325 50.04 170.008 48.888C170.691 47.6933 171.032 46.328 171.032 44.792C171.032 42.488 170.285 40.6106 168.792 39.16C167.299 37.6666 165.251 36.92 162.648 36.92C161.368 36.92 160.237 37.0906 159.256 37.432C158.317 37.7733 157.485 38.2213 156.76 38.776L152.6 31.608L167.96 21.112L167.384 20.024H147.288V12.28H177.816V21.6239L162.008 32.12L157.08 31.224C157.891 30.968 158.765 30.776 159.704 30.648C160.643 30.4773 161.667 30.392 162.776 30.392C166.317 30.392 169.347 31.0106 171.864 32.248C174.424 33.4426 176.387 35.1066 177.752 37.24C179.117 39.3733 179.8 41.8266 179.8 44.6V45.432C179.8 48.12 179.117 50.5946 177.752 52.856C176.387 55.0746 174.424 56.8666 171.864 58.232C169.304 59.5546 166.211 60.216 162.584 60.216Z" fill="#4D434B"/>
<path d="M207.318 60.216C203.649 60.216 200.534 59.6186 197.974 58.424C195.414 57.1866 193.324 55.5226 191.702 53.432C190.081 51.2986 188.886 48.8666 188.118 46.136C187.393 43.3626 187.03 40.4613 187.03 37.432V33.848C187.03 29.5386 187.756 25.656 189.206 22.1999C190.657 18.744 192.876 16.0133 195.862 14.008C198.849 11.96 202.668 10.9359 207.318 10.9359C211.926 10.9359 215.724 11.96 218.71 14.008C221.697 16.0133 223.894 18.744 225.302 22.1999C226.753 25.656 227.478 29.5386 227.478 33.848V37.432C227.478 40.4613 227.094 43.3626 226.326 46.136C225.601 48.8666 224.428 51.2986 222.806 53.432C221.228 55.5226 219.158 57.1866 216.598 58.424C214.038 59.6186 210.945 60.216 207.318 60.216ZM207.318 51.896C211.116 51.896 213.91 50.5946 215.702 47.992C217.494 45.3466 218.39 41.2506 218.39 35.7039C218.39 29.8159 217.473 25.6133 215.638 23.0959C213.804 20.5359 211.03 19.2559 207.318 19.2559C203.564 19.2559 200.748 20.5359 198.87 23.0959C197.036 25.6133 196.118 29.7733 196.118 35.576C196.118 41.1653 197.036 45.2826 198.87 47.928C200.705 50.5733 203.521 51.896 207.318 51.896Z" fill="#4D434B"/>
<path d="M270.978 60.024C264.578 60.024 259.693 58.0186 256.322 54.008C252.951 49.9973 251.266 44.024 251.266 36.088V35.192C251.266 27.2133 252.887 21.24 256.13 17.272C259.415 13.2613 264.237 11.2559 270.594 11.2559C274.477 11.2559 277.677 11.8959 280.194 13.176C282.754 14.4559 284.674 16.2479 285.954 18.552C287.277 20.8133 288.002 23.4159 288.13 26.3599H280.258C280.087 23.9706 279.213 22.0719 277.634 20.6639C276.055 19.256 273.709 18.552 270.594 18.552C266.711 18.552 263.831 19.8746 261.954 22.5199C260.119 25.1226 259.202 29.496 259.202 35.64C259.202 41.784 260.183 46.1786 262.146 48.824C264.109 51.4266 267.053 52.728 270.978 52.728C274.178 52.728 276.546 52.024 278.082 50.616C279.618 49.208 280.471 47.2879 280.642 44.8559H288.514C288.386 47.8426 287.682 50.488 286.402 52.792C285.122 55.0533 283.202 56.824 280.642 58.104C278.082 59.384 274.861 60.024 270.978 60.024ZM246.146 43.448V38.584H274.178V43.448H246.146ZM247.298 33.72V28.856H275.33V33.72H247.298Z" fill="#4D434B"/>
<path d="M24.9999 26C24.9999 23.7908 26.7907 22 28.9999 22H86.9999C89.209 22 90.9999 23.7908 90.9999 26V46C90.9999 48.2091 89.209 50 86.9999 50H28.9999C26.7907 50 24.9999 48.2091 24.9999 46V26Z" fill="#B0D7D3"/>
<path d="M34.4663 44V0.199951H46.1063L57.0863 26.36H58.1663L69.0863 0.199951H80.9063V44H72.4463V9.31995L61.7063 35.06H53.0063L42.2663 9.49995V44H34.4663Z" fill="#007D70"/>
<path d="M5.38186 88.324C4.39786 88.324 3.56386 88.132 2.87986 87.748C2.19586 87.364 1.67386 86.8539 1.31386 86.2179C0.965859 85.5819 0.791859 84.8919 0.791859 84.1479H2.48386C2.48386 84.9639 2.74186 85.6119 3.25786 86.0919C3.78586 86.5719 4.49386 86.812 5.38186 86.812C6.26986 86.812 6.97186 86.5719 7.48786 86.0919C8.01586 85.6119 8.27986 84.9639 8.27986 84.1479C8.27986 83.3319 8.01586 82.672 7.48786 82.168C6.97186 81.664 6.27586 81.4119 5.39986 81.4119C5.02786 81.4119 4.70386 81.46 4.42786 81.556C4.16386 81.64 3.92986 81.748 3.72586 81.88L2.86186 80.332L7.88386 76.66L7.70386 76.336H1.31386V74.86H9.32386V77.254L5.43586 80.0799H5.45386C6.41386 80.0799 7.22986 80.2599 7.90186 80.6199C8.57386 80.9799 9.08386 81.46 9.43186 82.06C9.79186 82.66 9.97186 83.3139 9.97186 84.0219V84.2739C9.97186 84.9699 9.79186 85.63 9.43186 86.254C9.08386 86.866 8.56786 87.364 7.88386 87.748C7.21186 88.132 6.37786 88.324 5.38186 88.324Z" fill="#007D70"/>
<path d="M17.7525 88.324C16.7685 88.324 15.9285 88.156 15.2325 87.82C14.5485 87.472 13.9905 87.004 13.5585 86.416C13.1385 85.828 12.8325 85.15 12.6405 84.382C12.4485 83.602 12.3525 82.78 12.3525 81.916V80.944C12.3525 79.732 12.5385 78.64 12.9105 77.668C13.2945 76.696 13.8825 75.928 14.6745 75.364C15.4785 74.788 16.5045 74.5 17.7525 74.5C19.0005 74.5 20.0205 74.788 20.8125 75.364C21.6045 75.928 22.1865 76.696 22.5585 77.668C22.9425 78.64 23.1345 79.732 23.1345 80.944V81.916C23.1345 82.78 23.0385 83.602 22.8465 84.382C22.6545 85.15 22.3425 85.828 21.9105 86.416C21.4905 87.004 20.9385 87.472 20.2545 87.82C19.5705 88.156 18.7365 88.324 17.7525 88.324ZM17.7525 86.74C19.0005 86.74 19.9125 86.3199 20.4885 85.4799C21.0765 84.6279 21.3705 83.284 21.3705 81.448C21.3705 79.528 21.0705 78.154 20.4705 77.326C19.8825 76.498 18.9765 76.084 17.7525 76.084C16.5165 76.084 15.5985 76.498 14.9985 77.326C14.4105 78.154 14.1165 79.5159 14.1165 81.4119C14.1165 83.2599 14.4105 84.61 14.9985 85.462C15.5865 86.314 16.5045 86.74 17.7525 86.74Z" fill="#007D70"/>
<path d="M30.4372 88.072V74.7879H34.7212C36.1612 74.7879 37.2352 75.094 37.9432 75.706C38.6512 76.306 39.0052 77.1759 39.0052 78.3159V78.568C39.0052 79.252 38.8732 79.8159 38.6092 80.2599C38.3452 80.6919 37.9792 81.028 37.5112 81.268C38.1352 81.484 38.6272 81.832 38.9872 82.312C39.3592 82.78 39.5452 83.416 39.5452 84.22V84.472C39.5452 85.624 39.1912 86.512 38.4832 87.136C37.7752 87.76 36.7012 88.072 35.2612 88.072H30.4372ZM35.0272 76.336H32.2012V80.638H35.0272C35.7712 80.638 36.3172 80.44 36.6652 80.044C37.0252 79.636 37.2052 79.1199 37.2052 78.4959C37.2052 77.8599 37.0252 77.344 36.6652 76.948C36.3172 76.54 35.7712 76.336 35.0272 76.336ZM35.5132 82.114H32.2012V86.5239H35.5132C36.2212 86.5239 36.7672 86.326 37.1512 85.93C37.5472 85.522 37.7452 84.982 37.7452 84.31C37.7452 83.626 37.5532 83.092 37.1692 82.708C36.7852 82.312 36.2332 82.114 35.5132 82.114Z" fill="#007D70"/>
<path d="M45.0835 88.252C43.9915 88.252 43.1335 87.982 42.5095 87.442C41.8975 86.89 41.5915 86.1159 41.5915 85.1199C41.5915 84.0999 41.9335 83.3319 42.6175 82.8159C43.3015 82.2879 44.2675 82.0239 45.5155 82.0239H47.9455V81.79C47.9455 80.458 47.2735 79.792 45.9295 79.792C45.3775 79.792 44.8015 79.8039 44.2015 79.8279C43.6015 79.8519 43.1035 79.876 42.7075 79.9V78.388C43.0915 78.352 43.5175 78.3279 43.9855 78.3159C44.4655 78.2919 44.9215 78.28 45.3535 78.28C46.8295 78.28 47.9035 78.55 48.5755 79.09C49.2595 79.63 49.6015 80.572 49.6015 81.916V88H48.2335V86.0919C47.8015 87.5319 46.7515 88.252 45.0835 88.252ZM45.4435 86.8839C45.8515 86.8839 46.2415 86.812 46.6135 86.668C46.9855 86.512 47.2915 86.2599 47.5315 85.9119C47.7835 85.5519 47.9215 85.06 47.9455 84.436V83.32H45.4435C44.7475 83.32 44.2135 83.488 43.8415 83.824C43.4695 84.16 43.2835 84.5919 43.2835 85.1199C43.2835 85.6479 43.4695 86.0739 43.8415 86.3979C44.2135 86.7219 44.7475 86.8839 45.4435 86.8839Z" fill="#007D70"/>
<path d="M52.773 88V78.388H54.141V80.6199C54.357 79.8039 54.741 79.18 55.293 78.748C55.857 78.316 56.589 78.1 57.489 78.1H57.561C58.773 78.1 59.667 78.478 60.243 79.234C60.831 79.99 61.125 81.0819 61.125 82.5099V88H59.397V82.15C59.397 81.406 59.187 80.812 58.767 80.368C58.347 79.912 57.771 79.684 57.039 79.684C56.283 79.684 55.671 79.918 55.203 80.386C54.735 80.854 54.501 81.4779 54.501 82.2579V88H52.773Z" fill="#007D70"/>
<path d="M66.9507 88.252C65.8587 88.252 65.0007 87.982 64.3767 87.442C63.7647 86.89 63.4587 86.1159 63.4587 85.1199C63.4587 84.0999 63.8007 83.3319 64.4847 82.8159C65.1687 82.2879 66.1347 82.0239 67.3827 82.0239H69.8127V81.79C69.8127 80.458 69.1407 79.792 67.7967 79.792C67.2447 79.792 66.6687 79.8039 66.0687 79.8279C65.4687 79.8519 64.9707 79.876 64.5747 79.9V78.388C64.9587 78.352 65.3847 78.3279 65.8527 78.3159C66.3327 78.2919 66.7887 78.28 67.2207 78.28C68.6967 78.28 69.7707 78.55 70.4427 79.09C71.1267 79.63 71.4687 80.572 71.4687 81.916V88H70.1007V86.0919C69.6687 87.5319 68.6187 88.252 66.9507 88.252ZM67.3107 86.8839C67.7187 86.8839 68.1087 86.812 68.4807 86.668C68.8527 86.512 69.1587 86.2599 69.3987 85.9119C69.6507 85.5519 69.7887 85.06 69.8127 84.436V83.32H67.3107C66.6147 83.32 66.0807 83.488 65.7087 83.824C65.3367 84.16 65.1507 84.5919 65.1507 85.1199C65.1507 85.6479 65.3367 86.0739 65.7087 86.3979C66.0807 86.7219 66.6147 86.8839 67.3107 86.8839Z" fill="#007D70"/>
<path d="M74.6402 88V78.388H76.0082V80.6199C76.2242 79.8039 76.6082 79.18 77.1602 78.748C77.7242 78.316 78.4562 78.1 79.3562 78.1H79.4282C80.6402 78.1 81.5342 78.478 82.1102 79.234C82.6982 79.99 82.9922 81.0819 82.9922 82.5099V88H81.2642V82.15C81.2642 81.406 81.0542 80.812 80.6342 80.368C80.2142 79.912 79.6382 79.684 78.9062 79.684C78.1502 79.684 77.5382 79.918 77.0702 80.386C76.6022 80.854 76.3682 81.4779 76.3682 82.2579V88H74.6402Z" fill="#007D70"/>
<path d="M88.8179 88.252C87.7259 88.252 86.8679 87.982 86.2439 87.442C85.6319 86.89 85.3259 86.1159 85.3259 85.1199C85.3259 84.0999 85.6679 83.3319 86.3519 82.8159C87.0359 82.2879 88.0019 82.0239 89.2499 82.0239H91.6799V81.79C91.6799 80.458 91.0079 79.792 89.6639 79.792C89.1119 79.792 88.5359 79.8039 87.9359 79.8279C87.3359 79.8519 86.8379 79.876 86.4419 79.9V78.388C86.8259 78.352 87.2519 78.3279 87.7199 78.3159C88.1999 78.2919 88.6559 78.28 89.0879 78.28C90.5639 78.28 91.6379 78.55 92.3099 79.09C92.9939 79.63 93.3359 80.572 93.3359 81.916V88H91.9679V86.0919C91.5359 87.5319 90.4859 88.252 88.8179 88.252ZM89.1779 86.8839C89.5859 86.8839 89.9759 86.812 90.3479 86.668C90.7199 86.512 91.0259 86.2599 91.2659 85.9119C91.5179 85.5519 91.6559 85.06 91.6799 84.436V83.32H89.1779C88.4819 83.32 87.9479 83.488 87.5759 83.824C87.2039 84.16 87.0179 84.5919 87.0179 85.1199C87.0179 85.6479 87.2039 86.0739 87.5759 86.3979C87.9479 86.7219 88.4819 86.8839 89.1779 86.8839Z" fill="#007D70"/>
<path d="M99.6574 88.2879C98.3974 88.2879 97.4194 88.018 96.7234 87.478C96.0394 86.938 95.6854 86.2 95.6614 85.264H97.2814C97.3054 85.636 97.4914 85.99 97.8394 86.326C98.1994 86.65 98.8054 86.812 99.6574 86.812C100.425 86.812 101.013 86.662 101.421 86.362C101.829 86.05 102.033 85.672 102.033 85.228C102.033 84.832 101.883 84.526 101.583 84.31C101.283 84.082 100.797 83.932 100.125 83.86L99.0814 83.752C98.1694 83.656 97.4254 83.386 96.8494 82.942C96.2734 82.486 95.9854 81.85 95.9854 81.034C95.9854 80.11 96.3274 79.39 97.0114 78.874C97.6954 78.358 98.5774 78.1 99.6574 78.1C100.737 78.1 101.613 78.34 102.285 78.82C102.957 79.3 103.305 80.014 103.329 80.962H101.709C101.697 80.578 101.517 80.254 101.169 79.99C100.833 79.714 100.329 79.576 99.6574 79.576C98.9854 79.576 98.4754 79.714 98.1274 79.99C97.7794 80.266 97.6054 80.614 97.6054 81.034C97.6054 81.394 97.7254 81.6819 97.9654 81.8979C98.2174 82.1139 98.6254 82.252 99.1894 82.312L100.233 82.42C101.265 82.528 102.093 82.816 102.717 83.284C103.341 83.74 103.653 84.388 103.653 85.228C103.653 85.828 103.479 86.3619 103.131 86.8299C102.795 87.2859 102.327 87.646 101.727 87.91C101.127 88.162 100.437 88.2879 99.6574 88.2879Z" fill="#007D70"/>
<path d="M106.428 90.826L105.042 90.304L106.716 85.66L108.138 86.2L106.428 90.826ZM105.924 81.34V79.144H108.012V81.34H105.924Z" fill="#007D70"/>
<path d="M1.36786 113V110.84C1.36786 110.312 1.43986 109.862 1.58386 109.49C1.73986 109.118 2.00386 108.782 2.37586 108.482C2.74786 108.17 3.25186 107.87 3.88786 107.582L6.35386 106.448C6.95386 106.172 7.42786 105.818 7.77586 105.386C8.12386 104.942 8.29786 104.372 8.29786 103.676C8.29786 102.836 8.06386 102.182 7.59586 101.714C7.12786 101.246 6.46786 101.012 5.61586 101.012C4.77586 101.012 4.11586 101.246 3.63586 101.714C3.15586 102.182 2.91586 102.836 2.91586 103.676H1.22386C1.22386 102.92 1.37986 102.224 1.69186 101.588C2.01586 100.952 2.50186 100.448 3.14986 100.076C3.79786 99.692 4.61986 99.5 5.61586 99.5C6.61186 99.5 7.42786 99.692 8.06386 100.076C8.71186 100.448 9.19186 100.94 9.50386 101.552C9.82786 102.164 9.98986 102.83 9.98986 103.55V103.802C9.98986 104.75 9.71386 105.548 9.16186 106.196C8.62186 106.844 7.88986 107.378 6.96586 107.798L4.49986 108.932C3.94786 109.184 3.57586 109.436 3.38386 109.688C3.19186 109.94 3.09586 110.276 3.09586 110.696V111.524H10.1519V113H1.36786Z" fill="#007D70"/>
<path d="M16.8148 113.324C15.8068 113.324 14.9548 113.12 14.2588 112.712C13.5628 112.292 13.0348 111.746 12.6748 111.074C12.3148 110.402 12.1348 109.688 12.1348 108.932H13.8268C13.8268 109.76 14.0968 110.45 14.6368 111.002C15.1768 111.542 15.9028 111.812 16.8148 111.812C17.7148 111.812 18.4408 111.542 18.9928 111.002C19.5448 110.462 19.8208 109.772 19.8208 108.932C19.8208 108.38 19.6948 107.882 19.4428 107.438C19.2028 106.994 18.8548 106.64 18.3988 106.376C17.9548 106.112 17.4268 105.98 16.8148 105.98C16.3708 105.98 15.9208 106.058 15.4648 106.214C15.0088 106.358 14.6428 106.568 14.3668 106.844H12.7828L13.4488 99.86H20.3428V101.336H14.8348L14.4388 105.224C14.7628 105.008 15.1288 104.84 15.5368 104.72C15.9448 104.6 16.3948 104.54 16.8868 104.54C17.8948 104.54 18.7408 104.75 19.4248 105.17C20.1088 105.578 20.6248 106.112 20.9728 106.772C21.3328 107.42 21.5128 108.098 21.5128 108.806V109.058C21.5128 109.766 21.3328 110.45 20.9728 111.11C20.6128 111.758 20.0788 112.292 19.3708 112.712C18.6748 113.12 17.8228 113.324 16.8148 113.324Z" fill="#007D70"/>
<path d="M28.3454 113V99.86H30.6854L34.5734 108.626H34.8614L38.7314 99.86H41.0894V113H39.3254V102.11L35.7254 110.282H33.5654L29.9654 102.146V113H28.3454Z" fill="#007D70"/>
<path d="M47.316 113.252C46.224 113.252 45.366 112.982 44.742 112.442C44.13 111.89 43.824 111.116 43.824 110.12C43.824 109.1 44.166 108.332 44.85 107.816C45.534 107.288 46.5 107.024 47.748 107.024H50.178V106.79C50.178 105.458 49.506 104.792 48.162 104.792C47.61 104.792 47.034 104.804 46.434 104.828C45.834 104.852 45.336 104.876 44.94 104.9V103.388C45.324 103.352 45.75 103.328 46.218 103.316C46.698 103.292 47.154 103.28 47.586 103.28C49.062 103.28 50.136 103.55 50.808 104.09C51.492 104.63 51.834 105.572 51.834 106.916V113H50.466V111.092C50.034 112.532 48.984 113.252 47.316 113.252ZM47.676 111.884C48.084 111.884 48.474 111.812 48.846 111.668C49.218 111.512 49.524 111.26 49.764 110.912C50.016 110.552 50.154 110.06 50.178 109.436V108.32H47.676C46.98 108.32 46.446 108.488 46.074 108.824C45.702 109.16 45.516 109.592 45.516 110.12C45.516 110.648 45.702 111.074 46.074 111.398C46.446 111.722 46.98 111.884 47.676 111.884Z" fill="#007D70"/>
<path d="M59.1275 113.324C58.2995 113.324 57.5795 113.18 56.9675 112.892C56.3675 112.604 55.8695 112.22 55.4735 111.74C55.0775 111.248 54.7775 110.708 54.5735 110.12C54.3815 109.532 54.2855 108.944 54.2855 108.356V108.032C54.2855 107.42 54.3815 106.82 54.5735 106.232C54.7775 105.644 55.0775 105.116 55.4735 104.648C55.8815 104.168 56.3855 103.784 56.9855 103.496C57.5855 103.208 58.2875 103.064 59.0915 103.064C59.8955 103.064 60.6155 103.214 61.2515 103.514C61.8995 103.814 62.4155 104.24 62.7995 104.792C63.1955 105.332 63.4175 105.974 63.4655 106.718H61.8095C61.7255 106.118 61.4495 105.62 60.9815 105.224C60.5135 104.816 59.8835 104.612 59.0915 104.612C58.4075 104.612 57.8375 104.768 57.3815 105.08C56.9255 105.392 56.5835 105.818 56.3555 106.358C56.1275 106.898 56.0135 107.51 56.0135 108.194C56.0135 108.854 56.1275 109.46 56.3555 110.012C56.5835 110.552 56.9255 110.984 57.3815 111.308C57.8495 111.62 58.4315 111.776 59.1275 111.776C59.9315 111.776 60.5795 111.572 61.0715 111.164C61.5635 110.744 61.8455 110.228 61.9175 109.616H63.5735C63.5375 110.372 63.3155 111.026 62.9075 111.578C62.5115 112.13 61.9835 112.562 61.3235 112.874C60.6755 113.174 59.9435 113.324 59.1275 113.324ZM58.9835 117.356C58.7555 117.356 58.5335 117.338 58.3175 117.302C58.1135 117.278 57.9275 117.242 57.7595 117.194V116.042C57.9275 116.09 58.1195 116.126 58.3355 116.15C58.5635 116.186 58.7795 116.204 58.9835 116.204C59.3675 116.204 59.6495 116.138 59.8295 116.006C60.0095 115.886 60.0995 115.73 60.0995 115.538C60.0995 115.346 60.0215 115.19 59.8655 115.07C59.7215 114.962 59.4755 114.908 59.1275 114.908H58.4435V112.82H59.4875V113.882C60.0395 113.942 60.4835 114.11 60.8195 114.386C61.1555 114.662 61.3235 115.034 61.3235 115.502C61.3235 116.018 61.1135 116.456 60.6935 116.816C60.2855 117.176 59.7155 117.356 58.9835 117.356Z" fill="#007D70"/>
<path d="M68.5855 113.252C67.4935 113.252 66.6355 112.982 66.0115 112.442C65.3995 111.89 65.0935 111.116 65.0935 110.12C65.0935 109.1 65.4355 108.332 66.1195 107.816C66.8035 107.288 67.7695 107.024 69.0175 107.024H71.4475V106.79C71.4475 105.458 70.7755 104.792 69.4315 104.792C68.8795 104.792 68.3035 104.804 67.7035 104.828C67.1035 104.852 66.6055 104.876 66.2095 104.9V103.388C66.5935 103.352 67.0195 103.328 67.4875 103.316C67.9675 103.292 68.4235 103.28 68.8555 103.28C70.3315 103.28 71.4055 103.55 72.0775 104.09C72.7615 104.63 73.1035 105.572 73.1035 106.916V113H71.7355V111.092C71.3035 112.532 70.2535 113.252 68.5855 113.252ZM68.9455 111.884C69.3535 111.884 69.7435 111.812 70.1155 111.668C70.4875 111.512 70.7935 111.26 71.0335 110.912C71.2855 110.552 71.4235 110.06 71.4475 109.436V108.32H68.9455C68.2495 108.32 67.7155 108.488 67.3435 108.824C66.9715 109.16 66.7855 109.592 66.7855 110.12C66.7855 110.648 66.9715 111.074 67.3435 111.398C67.7155 111.722 68.2495 111.884 68.9455 111.884ZM70.5115 101.462C70.1155 101.462 69.7855 101.39 69.5215 101.246C69.2695 101.09 69.0295 100.94 68.8015 100.796C68.5735 100.64 68.3035 100.562 67.9915 100.562C67.7395 100.562 67.5055 100.628 67.2895 100.76C67.0855 100.88 66.8995 101.048 66.7315 101.264L66.4435 100.112C66.6235 99.884 66.8455 99.6919 67.1095 99.5359C67.3855 99.3799 67.6975 99.3019 68.0455 99.3019C68.4415 99.3019 68.7655 99.3799 69.0175 99.5359C69.2815 99.6799 69.5275 99.83 69.7555 99.986C69.9955 100.13 70.2655 100.202 70.5655 100.202C70.8175 100.202 71.0515 100.142 71.2675 100.022C71.4835 99.8899 71.6755 99.716 71.8435 99.5L72.1315 100.652C71.9515 100.88 71.7235 101.072 71.4475 101.228C71.1715 101.384 70.8595 101.462 70.5115 101.462Z" fill="#007D70"/>
<path d="M79.425 113.288C78.165 113.288 77.187 113.018 76.491 112.478C75.807 111.938 75.453 111.2 75.429 110.264H77.049C77.073 110.636 77.259 110.99 77.607 111.326C77.967 111.65 78.573 111.812 79.425 111.812C80.193 111.812 80.781 111.662 81.189 111.362C81.597 111.05 81.801 110.672 81.801 110.228C81.801 109.832 81.651 109.526 81.351 109.31C81.051 109.082 80.565 108.932 79.893 108.86L78.849 108.752C77.937 108.656 77.193 108.386 76.617 107.942C76.041 107.486 75.753 106.85 75.753 106.034C75.753 105.11 76.095 104.39 76.779 103.874C77.463 103.358 78.345 103.1 79.425 103.1C80.505 103.1 81.381 103.34 82.053 103.82C82.725 104.3 83.073 105.014 83.097 105.962H81.477C81.465 105.578 81.285 105.254 80.937 104.99C80.601 104.714 80.097 104.576 79.425 104.576C78.753 104.576 78.243 104.714 77.895 104.99C77.547 105.266 77.373 105.614 77.373 106.034C77.373 106.394 77.493 106.682 77.733 106.898C77.985 107.114 78.393 107.252 78.957 107.312L80.001 107.42C81.033 107.528 81.861 107.816 82.485 108.284C83.109 108.74 83.421 109.388 83.421 110.228C83.421 110.828 83.247 111.362 82.899 111.83C82.563 112.286 82.095 112.646 81.495 112.91C80.895 113.162 80.205 113.288 79.425 113.288Z" fill="#007D70"/>
<path d="M86.1954 115.826L84.8094 115.304L86.4834 110.66L87.9054 111.2L86.1954 115.826ZM85.6914 106.34V104.144H87.7794V106.34H85.6914Z" fill="#007D70"/>
<path d="M1.36786 138V135.84C1.36786 135.312 1.43986 134.862 1.58386 134.49C1.73986 134.118 2.00386 133.782 2.37586 133.482C2.74786 133.17 3.25186 132.87 3.88786 132.582L6.35386 131.448C6.95386 131.172 7.42786 130.818 7.77586 130.386C8.12386 129.942 8.29786 129.372 8.29786 128.676C8.29786 127.836 8.06386 127.182 7.59586 126.714C7.12786 126.246 6.46786 126.012 5.61586 126.012C4.77586 126.012 4.11586 126.246 3.63586 126.714C3.15586 127.182 2.91586 127.836 2.91586 128.676H1.22386C1.22386 127.92 1.37986 127.224 1.69186 126.588C2.01586 125.952 2.50186 125.448 3.14986 125.076C3.79786 124.692 4.61986 124.5 5.61586 124.5C6.61186 124.5 7.42786 124.692 8.06386 125.076C8.71186 125.448 9.19186 125.94 9.50386 126.552C9.82786 127.164 9.98986 127.83 9.98986 128.55V128.802C9.98986 129.75 9.71386 130.548 9.16186 131.196C8.62186 131.844 7.88986 132.378 6.96586 132.798L4.49986 133.932C3.94786 134.184 3.57586 134.436 3.38386 134.688C3.19186 134.94 3.09586 135.276 3.09586 135.696V136.524H10.1519V138H1.36786Z" fill="#007D70"/>
<path d="M16.8148 138.324C15.8068 138.324 14.9548 138.12 14.2588 137.712C13.5628 137.292 13.0348 136.746 12.6748 136.074C12.3148 135.402 12.1348 134.688 12.1348 133.932H13.8268C13.8268 134.76 14.0968 135.45 14.6368 136.002C15.1768 136.542 15.9028 136.812 16.8148 136.812C17.7148 136.812 18.4408 136.542 18.9928 136.002C19.5448 135.462 19.8208 134.772 19.8208 133.932C19.8208 133.38 19.6948 132.882 19.4428 132.438C19.2028 131.994 18.8548 131.64 18.3988 131.376C17.9548 131.112 17.4268 130.98 16.8148 130.98C16.3708 130.98 15.9208 131.058 15.4648 131.214C15.0088 131.358 14.6428 131.568 14.3668 131.844H12.7828L13.4488 124.86H20.3428V126.336H14.8348L14.4388 130.224C14.7628 130.008 15.1288 129.84 15.5368 129.72C15.9448 129.6 16.3948 129.54 16.8868 129.54C17.8948 129.54 18.7408 129.75 19.4248 130.17C20.1088 130.578 20.6248 131.112 20.9728 131.772C21.3328 132.42 21.5128 133.098 21.5128 133.806V134.058C21.5128 134.766 21.3328 135.45 20.9728 136.11C20.6128 136.758 20.0788 137.292 19.3708 137.712C18.6748 138.12 17.8228 138.324 16.8148 138.324Z" fill="#007D70"/>
<path d="M28.3454 138V124.86H30.1094V136.416H35.7614V138H28.3454Z" fill="#007D70"/>
<path d="M40.5484 138.252C39.4564 138.252 38.5984 137.982 37.9744 137.442C37.3624 136.89 37.0564 136.116 37.0564 135.12C37.0564 134.1 37.3984 133.332 38.0824 132.816C38.7664 132.288 39.7324 132.024 40.9804 132.024H43.4104V131.79C43.4104 130.458 42.7384 129.792 41.3944 129.792C40.8424 129.792 40.2664 129.804 39.6664 129.828C39.0664 129.852 38.5684 129.876 38.1724 129.9V128.388C38.5564 128.352 38.9824 128.328 39.4504 128.316C39.9304 128.292 40.3864 128.28 40.8184 128.28C42.2944 128.28 43.3684 128.55 44.0404 129.09C44.7244 129.63 45.0664 130.572 45.0664 131.916V138H43.6984V136.092C43.2664 137.532 42.2164 138.252 40.5484 138.252ZM40.9084 136.884C41.3164 136.884 41.7064 136.812 42.0784 136.668C42.4504 136.512 42.7564 136.26 42.9964 135.912C43.2484 135.552 43.3864 135.06 43.4104 134.436V133.32H40.9084C40.2124 133.32 39.6784 133.488 39.3064 133.824C38.9344 134.16 38.7484 134.592 38.7484 135.12C38.7484 135.648 38.9344 136.074 39.3064 136.398C39.6784 136.722 40.2124 136.884 40.9084 136.884Z" fill="#007D70"/>
<path d="M48.2379 138V128.388H49.6059V131.268C49.7499 130.236 50.1279 129.48 50.7399 129C51.3519 128.52 52.1859 128.28 53.2419 128.28H53.5659V129.828H52.9539C51.9939 129.828 51.2559 130.086 50.7399 130.602C50.2239 131.106 49.9659 131.838 49.9659 132.798V138H48.2379Z" fill="#007D70"/>
<path d="M58.2495 138.252C57.1575 138.252 56.2995 137.982 55.6755 137.442C55.0635 136.89 54.7575 136.116 54.7575 135.12C54.7575 134.1 55.0995 133.332 55.7835 132.816C56.4675 132.288 57.4335 132.024 58.6815 132.024H61.1115V131.79C61.1115 130.458 60.4395 129.792 59.0955 129.792C58.5435 129.792 57.9675 129.804 57.3675 129.828C56.7675 129.852 56.2695 129.876 55.8735 129.9V128.388C56.2575 128.352 56.6835 128.328 57.1515 128.316C57.6315 128.292 58.0875 128.28 58.5195 128.28C59.9955 128.28 61.0695 128.55 61.7415 129.09C62.4255 129.63 62.7675 130.572 62.7675 131.916V138H61.3995V136.092C60.9675 137.532 59.9175 138.252 58.2495 138.252ZM58.6095 136.884C59.0175 136.884 59.4075 136.812 59.7795 136.668C60.1515 136.512 60.4575 136.26 60.6975 135.912C60.9495 135.552 61.0875 135.06 61.1115 134.436V133.32H58.6095C57.9135 133.32 57.3795 133.488 57.0075 133.824C56.6355 134.16 56.4495 134.592 56.4495 135.12C56.4495 135.648 56.6355 136.074 57.0075 136.398C57.3795 136.722 57.9135 136.884 58.6095 136.884Z" fill="#007D70"/>
<path d="M65.9391 138V128.388H67.3071V130.62C67.5231 129.804 67.9071 129.18 68.4591 128.748C69.0231 128.316 69.7551 128.1 70.6551 128.1H70.7271C71.9391 128.1 72.8331 128.478 73.4091 129.234C73.9971 129.99 74.2911 131.082 74.2911 132.51V138H72.5631V132.15C72.5631 131.406 72.3531 130.812 71.9331 130.368C71.5131 129.912 70.9371 129.684 70.2051 129.684C69.4491 129.684 68.8371 129.918 68.3691 130.386C67.9011 130.854 67.6671 131.478 67.6671 132.258V138H65.9391Z" fill="#007D70"/>
<path d="M78.6047 126.696C78.2207 126.696 77.9327 126.594 77.7407 126.39C77.5607 126.186 77.4707 125.928 77.4707 125.616C77.4707 125.304 77.5607 125.046 77.7407 124.842C77.9327 124.638 78.2207 124.536 78.6047 124.536C78.9887 124.536 79.2707 124.638 79.4507 124.842C79.6427 125.046 79.7387 125.304 79.7387 125.616C79.7387 125.928 79.6427 126.186 79.4507 126.39C79.2707 126.594 78.9887 126.696 78.6047 126.696ZM75.7607 141.672V140.124H76.7687C77.2247 140.124 77.5727 139.998 77.8127 139.746C78.0647 139.494 78.1907 139.146 78.1907 138.702V129.756H76.6787V128.388H79.8467V138.45C79.8467 139.254 79.7327 139.89 79.5047 140.358C79.2887 140.826 78.9347 141.162 78.4427 141.366C77.9627 141.57 77.3207 141.672 76.5167 141.672H75.7607Z" fill="#007D70"/>
<path d="M85.8296 138.252C84.7376 138.252 83.8796 137.982 83.2556 137.442C82.6436 136.89 82.3376 136.116 82.3376 135.12C82.3376 134.1 82.6796 133.332 83.3636 132.816C84.0476 132.288 85.0136 132.024 86.2616 132.024H88.6916V131.79C88.6916 130.458 88.0196 129.792 86.6756 129.792C86.1236 129.792 85.5476 129.804 84.9476 129.828C84.3476 129.852 83.8496 129.876 83.4536 129.9V128.388C83.8376 128.352 84.2636 128.328 84.7316 128.316C85.2116 128.292 85.6676 128.28 86.0996 128.28C87.5756 128.28 88.6496 128.55 89.3216 129.09C90.0056 129.63 90.3476 130.572 90.3476 131.916V138H88.9796V136.092C88.5476 137.532 87.4976 138.252 85.8296 138.252ZM86.1896 136.884C86.5976 136.884 86.9876 136.812 87.3596 136.668C87.7316 136.512 88.0376 136.26 88.2776 135.912C88.5296 135.552 88.6676 135.06 88.6916 134.436V133.32H86.1896C85.4936 133.32 84.9596 133.488 84.5876 133.824C84.2156 134.16 84.0296 134.592 84.0296 135.12C84.0296 135.648 84.2156 136.074 84.5876 136.398C84.9596 136.722 85.4936 136.884 86.1896 136.884Z" fill="#007D70"/>
<path d="M96.6691 138.288C95.4091 138.288 94.4311 138.018 93.7351 137.478C93.0511 136.938 92.6971 136.2 92.6731 135.264H94.2931C94.3171 135.636 94.5031 135.99 94.8511 136.326C95.2111 136.65 95.8171 136.812 96.6691 136.812C97.4371 136.812 98.0251 136.662 98.4331 136.362C98.8411 136.05 99.0451 135.672 99.0451 135.228C99.0451 134.832 98.8951 134.526 98.5951 134.31C98.2951 134.082 97.8091 133.932 97.1371 133.86L96.0931 133.752C95.1811 133.656 94.4371 133.386 93.8611 132.942C93.2851 132.486 92.9971 131.85 92.9971 131.034C92.9971 130.11 93.3391 129.39 94.0231 128.874C94.7071 128.358 95.5891 128.1 96.6691 128.1C97.7491 128.1 98.6251 128.34 99.2971 128.82C99.9691 129.3 100.317 130.014 100.341 130.962H98.7211C98.7091 130.578 98.5291 130.254 98.1811 129.99C97.8451 129.714 97.3411 129.576 96.6691 129.576C95.9971 129.576 95.4871 129.714 95.1391 129.99C94.7911 130.266 94.6171 130.614 94.6171 131.034C94.6171 131.394 94.7371 131.682 94.9771 131.898C95.2291 132.114 95.6371 132.252 96.2011 132.312L97.2451 132.42C98.2771 132.528 99.1051 132.816 99.7291 133.284C100.353 133.74 100.665 134.388 100.665 135.228C100.665 135.828 100.491 136.362 100.143 136.83C99.8071 137.286 99.3391 137.646 98.7391 137.91C98.1391 138.162 97.4491 138.288 96.6691 138.288Z" fill="#007D70"/>
<path d="M103.44 140.826L102.054 140.304L103.728 135.66L105.15 136.2L103.44 140.826ZM102.936 131.34V129.144H105.024V131.34H102.936Z" fill="#007D70"/>
<path d="M3.67186 163V151.336H0.755859V149.86H5.39986V163H3.67186Z" fill="#007D70"/>
<path d="M14.2545 163.324C13.2705 163.324 12.4305 163.156 11.7345 162.82C11.0505 162.472 10.4925 162.004 10.0605 161.416C9.64045 160.828 9.33445 160.15 9.14245 159.382C8.95045 158.602 8.85445 157.78 8.85445 156.916V155.944C8.85445 154.732 9.04045 153.64 9.41245 152.668C9.79645 151.696 10.3845 150.928 11.1765 150.364C11.9805 149.788 13.0065 149.5 14.2545 149.5C15.5025 149.5 16.5225 149.788 17.3145 150.364C18.1065 150.928 18.6885 151.696 19.0605 152.668C19.4445 153.64 19.6365 154.732 19.6365 155.944V156.916C19.6365 157.78 19.5405 158.602 19.3485 159.382C19.1565 160.15 18.8445 160.828 18.4125 161.416C17.9925 162.004 17.4405 162.472 16.7565 162.82C16.0725 163.156 15.2385 163.324 14.2545 163.324ZM14.2545 161.74C15.5025 161.74 16.4145 161.32 16.9905 160.48C17.5785 159.628 17.8725 158.284 17.8725 156.448C17.8725 154.528 17.5725 153.154 16.9725 152.326C16.3845 151.498 15.4785 151.084 14.2545 151.084C13.0185 151.084 12.1005 151.498 11.5005 152.326C10.9125 153.154 10.6185 154.516 10.6185 156.412C10.6185 158.26 10.9125 159.61 11.5005 160.462C12.0885 161.314 13.0065 161.74 14.2545 161.74Z" fill="#007D70"/>
<path d="M26.9391 163V149.788H30.9531C32.5611 149.788 33.7791 150.166 34.6071 150.922C35.4471 151.666 35.8671 152.68 35.8671 153.964V154.252C35.8671 155.524 35.4471 156.538 34.6071 157.294C33.7791 158.05 32.5611 158.428 30.9531 158.428H28.7031V163H26.9391ZM31.2771 151.336H28.7031V156.88H31.2771C32.2011 156.88 32.8971 156.616 33.3651 156.088C33.8331 155.548 34.0671 154.888 34.0671 154.108C34.0671 153.316 33.8331 152.656 33.3651 152.128C32.8971 151.6 32.2011 151.336 31.2771 151.336Z" fill="#007D70"/>
<path d="M42.111 163.324C41.271 163.324 40.545 163.18 39.933 162.892C39.321 162.604 38.823 162.226 38.439 161.758C38.055 161.278 37.767 160.744 37.575 160.156C37.395 159.568 37.305 158.968 37.305 158.356V158.032C37.305 157.408 37.395 156.802 37.575 156.214C37.767 155.626 38.055 155.098 38.439 154.63C38.823 154.15 39.309 153.772 39.897 153.496C40.497 153.208 41.199 153.064 42.003 153.064C43.047 153.064 43.905 153.292 44.577 153.748C45.261 154.192 45.765 154.768 46.089 155.476C46.425 156.184 46.593 156.94 46.593 157.744V158.518H38.961C39.021 159.466 39.303 160.252 39.807 160.876C40.311 161.5 41.079 161.812 42.111 161.812C42.867 161.812 43.479 161.644 43.947 161.308C44.427 160.972 44.715 160.582 44.811 160.138H46.431C46.227 161.134 45.741 161.914 44.973 162.478C44.205 163.042 43.251 163.324 42.111 163.324ZM42.003 154.576C41.139 154.576 40.461 154.822 39.969 155.314C39.477 155.794 39.165 156.43 39.033 157.222H44.901C44.793 156.406 44.499 155.764 44.019 155.296C43.539 154.816 42.867 154.576 42.003 154.576ZM39.051 151.984L41.031 148.42H42.975L44.919 151.984H43.515L42.075 149.284H41.931L40.455 151.984H39.051Z" fill="#007D70"/>
<path d="M49.0465 163V153.388H50.4145V156.268C50.5585 155.236 50.9365 154.48 51.5485 154C52.1605 153.52 52.9945 153.28 54.0505 153.28H54.3745V154.828H53.7625C52.8025 154.828 52.0645 155.086 51.5485 155.602C51.0325 156.106 50.7745 156.838 50.7745 157.798V163H49.0465Z" fill="#007D70"/>
<path d="M59.0581 163.252C57.9661 163.252 57.1081 162.982 56.4841 162.442C55.8721 161.89 55.5661 161.116 55.5661 160.12C55.5661 159.1 55.9081 158.332 56.5921 157.816C57.2761 157.288 58.2421 157.024 59.4901 157.024H61.9201V156.79C61.9201 155.458 61.2481 154.792 59.9041 154.792C59.3521 154.792 58.7761 154.804 58.1761 154.828C57.5761 154.852 57.0781 154.876 56.6821 154.9V153.388C57.0661 153.352 57.4921 153.328 57.9601 153.316C58.4401 153.292 58.8961 153.28 59.3281 153.28C60.8041 153.28 61.8781 153.55 62.5501 154.09C63.2341 154.63 63.5761 155.572 63.5761 156.916V163H62.2081V161.092C61.7761 162.532 60.7261 163.252 59.0581 163.252ZM59.4181 161.884C59.8261 161.884 60.2161 161.812 60.5881 161.668C60.9601 161.512 61.2661 161.26 61.5061 160.912C61.7581 160.552 61.8961 160.06 61.9201 159.436V158.32H59.4181C58.7221 158.32 58.1881 158.488 57.8161 158.824C57.4441 159.16 57.2581 159.592 57.2581 160.12C57.2581 160.648 57.4441 161.074 57.8161 161.398C58.1881 161.722 58.7221 161.884 59.4181 161.884Z" fill="#007D70"/>
<path d="M69.8977 163.288C68.6377 163.288 67.6597 163.018 66.9637 162.478C66.2797 161.938 65.9257 161.2 65.9017 160.264H67.5217C67.5457 160.636 67.7317 160.99 68.0797 161.326C68.4397 161.65 69.0457 161.812 69.8977 161.812C70.6657 161.812 71.2537 161.662 71.6617 161.362C72.0697 161.05 72.2737 160.672 72.2737 160.228C72.2737 159.832 72.1237 159.526 71.8237 159.31C71.5237 159.082 71.0377 158.932 70.3657 158.86L69.3217 158.752C68.4097 158.656 67.6657 158.386 67.0897 157.942C66.5137 157.486 66.2257 156.85 66.2257 156.034C66.2257 155.11 66.5677 154.39 67.2517 153.874C67.9357 153.358 68.8177 153.1 69.8977 153.1C70.9777 153.1 71.8537 153.34 72.5257 153.82C73.1977 154.3 73.5457 155.014 73.5697 155.962H71.9497C71.9377 155.578 71.7577 155.254 71.4097 154.99C71.0737 154.714 70.5697 154.576 69.8977 154.576C69.2257 154.576 68.7157 154.714 68.3677 154.99C68.0197 155.266 67.8457 155.614 67.8457 156.034C67.8457 156.394 67.9657 156.682 68.2057 156.898C68.4577 157.114 68.8657 157.252 69.4297 157.312L70.4737 157.42C71.5057 157.528 72.3337 157.816 72.9577 158.284C73.5817 158.74 73.8937 159.388 73.8937 160.228C73.8937 160.828 73.7197 161.362 73.3717 161.83C73.0357 162.286 72.5677 162.646 71.9677 162.91C71.3677 163.162 70.6777 163.288 69.8977 163.288Z" fill="#007D70"/>
<path d="M76.668 165.826L75.282 165.304L76.956 160.66L78.378 161.2L76.668 165.826ZM76.164 156.34V154.144H78.252V156.34H76.164Z" fill="#007D70"/>
</svg>
