<svg width="304" height="165" viewBox="0 0 304 165" fill="none" xmlns="http://www.w3.org/2000/svg">
<path d="M140.908 123V109.788H144.922C146.53 109.788 147.748 110.166 148.576 110.922C149.416 111.666 149.836 112.68 149.836 113.964V114.252C149.836 115.524 149.416 116.538 148.576 117.294C147.748 118.05 146.53 118.428 144.922 118.428H142.672V123H140.908ZM145.246 111.336H142.672V116.88H145.246C146.17 116.88 146.866 116.616 147.334 116.088C147.802 115.548 148.036 114.888 148.036 114.108C148.036 113.316 147.802 112.656 147.334 112.128C146.866 111.6 146.17 111.336 145.246 111.336Z" fill="#007D70"/>
<path d="M154.728 123.252C153.636 123.252 152.778 122.982 152.154 122.442C151.542 121.89 151.236 121.116 151.236 120.12C151.236 119.1 151.578 118.332 152.262 117.816C152.946 117.288 153.912 117.024 155.16 117.024H157.59V116.79C157.59 115.458 156.918 114.792 155.574 114.792C155.022 114.792 154.446 114.804 153.846 114.828C153.246 114.852 152.748 114.876 152.352 114.9V113.388C152.736 113.352 153.162 113.328 153.63 113.316C154.11 113.292 154.566 113.28 154.998 113.28C156.474 113.28 157.548 113.55 158.22 114.09C158.904 114.63 159.246 115.572 159.246 116.916V123H157.878V121.092C157.446 122.532 156.396 123.252 154.728 123.252ZM155.088 121.884C155.496 121.884 155.886 121.812 156.258 121.668C156.63 121.512 156.936 121.26 157.176 120.912C157.428 120.552 157.566 120.06 157.59 119.436V118.32H155.088C154.392 118.32 153.858 118.488 153.486 118.824C153.114 119.16 152.928 119.592 152.928 120.12C152.928 120.648 153.114 121.074 153.486 121.398C153.858 121.722 154.392 121.884 155.088 121.884Z" fill="#007D70"/>
<path d="M162.417 123V113.388H163.785V116.268C163.929 115.236 164.307 114.48 164.919 114C165.531 113.52 166.365 113.28 167.421 113.28H167.745V114.828H167.133C166.173 114.828 165.435 115.086 164.919 115.602C164.403 116.106 164.145 116.838 164.145 117.798V123H162.417Z" fill="#007D70"/>
<path d="M172.429 123.252C171.337 123.252 170.479 122.982 169.855 122.442C169.243 121.89 168.937 121.116 168.937 120.12C168.937 119.1 169.279 118.332 169.963 117.816C170.647 117.288 171.613 117.024 172.861 117.024H175.291V116.79C175.291 115.458 174.619 114.792 173.275 114.792C172.723 114.792 172.147 114.804 171.547 114.828C170.947 114.852 170.449 114.876 170.053 114.9V113.388C170.437 113.352 170.863 113.328 171.331 113.316C171.811 113.292 172.267 113.28 172.699 113.28C174.175 113.28 175.249 113.55 175.921 114.09C176.605 114.63 176.947 115.572 176.947 116.916V123H175.579V121.092C175.147 122.532 174.097 123.252 172.429 123.252ZM172.789 121.884C173.197 121.884 173.587 121.812 173.959 121.668C174.331 121.512 174.637 121.26 174.877 120.912C175.129 120.552 175.267 120.06 175.291 119.436V118.32H172.789C172.093 118.32 171.559 118.488 171.187 118.824C170.815 119.16 170.629 119.592 170.629 120.12C170.629 120.648 170.815 121.074 171.187 121.398C171.559 121.722 172.093 121.884 172.789 121.884Z" fill="#007D70"/>
<path d="M188.3 123.324C187.46 123.324 186.734 123.18 186.122 122.892C185.51 122.604 185.012 122.226 184.628 121.758C184.244 121.278 183.956 120.744 183.764 120.156C183.584 119.568 183.494 118.968 183.494 118.356V118.032C183.494 117.408 183.584 116.802 183.764 116.214C183.956 115.626 184.244 115.098 184.628 114.63C185.012 114.15 185.498 113.772 186.086 113.496C186.686 113.208 187.388 113.064 188.192 113.064C189.236 113.064 190.094 113.292 190.766 113.748C191.45 114.192 191.954 114.768 192.278 115.476C192.614 116.184 192.782 116.94 192.782 117.744V118.518H185.15C185.21 119.466 185.492 120.252 185.996 120.876C186.5 121.5 187.268 121.812 188.3 121.812C189.056 121.812 189.668 121.644 190.136 121.308C190.616 120.972 190.904 120.582 191 120.138H192.62C192.416 121.134 191.93 121.914 191.162 122.478C190.394 123.042 189.44 123.324 188.3 123.324ZM188.192 114.576C187.328 114.576 186.65 114.822 186.158 115.314C185.666 115.794 185.354 116.43 185.222 117.222H191.09C190.982 116.406 190.688 115.764 190.208 115.296C189.728 114.816 189.056 114.576 188.192 114.576Z" fill="#007D70"/>
<path d="M195.236 123V113.388H196.604V115.602C196.808 114.798 197.168 114.18 197.684 113.748C198.212 113.316 198.896 113.1 199.736 113.1H199.808C200.624 113.1 201.29 113.304 201.806 113.712C202.322 114.12 202.688 114.708 202.904 115.476C203.132 114.708 203.504 114.12 204.02 113.712C204.548 113.304 205.22 113.1 206.036 113.1H206.108C207.248 113.1 208.094 113.49 208.646 114.27C209.21 115.038 209.492 116.118 209.492 117.51V123H207.764V117.132C207.764 116.352 207.572 115.752 207.188 115.332C206.804 114.9 206.27 114.684 205.586 114.684C204.878 114.684 204.308 114.912 203.876 115.368C203.444 115.812 203.228 116.436 203.228 117.24V123H201.5V117.132C201.5 116.352 201.308 115.752 200.924 115.332C200.54 114.9 200.006 114.684 199.322 114.684C198.614 114.684 198.044 114.912 197.612 115.368C197.18 115.812 196.964 116.436 196.964 117.24V123H195.236Z" fill="#007D70"/>
<path d="M212.656 126.6V113.388H214.024V115.746C214.348 114.822 214.852 114.144 215.536 113.712C216.22 113.28 216.988 113.064 217.84 113.064C218.776 113.064 219.586 113.292 220.27 113.748C220.966 114.204 221.506 114.81 221.89 115.566C222.274 116.31 222.466 117.132 222.466 118.032V118.356C222.466 119.256 222.268 120.084 221.872 120.84C221.476 121.584 220.924 122.184 220.216 122.64C219.52 123.096 218.716 123.324 217.804 123.324C217.144 123.324 216.508 123.186 215.896 122.91C215.284 122.634 214.78 122.184 214.384 121.56V126.6H212.656ZM217.534 121.812C218.182 121.812 218.746 121.662 219.226 121.362C219.706 121.05 220.078 120.624 220.342 120.084C220.606 119.532 220.738 118.902 220.738 118.194C220.738 117.474 220.606 116.844 220.342 116.304C220.078 115.764 219.706 115.344 219.226 115.044C218.746 114.732 218.182 114.576 217.534 114.576C216.958 114.576 216.424 114.708 215.932 114.972C215.44 115.224 215.044 115.596 214.744 116.088C214.456 116.568 214.312 117.15 214.312 117.834V118.662C214.312 119.322 214.462 119.886 214.762 120.354C215.062 120.822 215.458 121.182 215.95 121.434C216.442 121.686 216.97 121.812 217.534 121.812Z" fill="#007D70"/>
<path d="M225.066 123V113.388H226.434V116.268C226.578 115.236 226.956 114.48 227.568 114C228.18 113.52 229.014 113.28 230.07 113.28H230.394V114.828H229.782C228.822 114.828 228.084 115.086 227.568 115.602C227.052 116.106 226.794 116.838 226.794 117.798V123H225.066Z" fill="#007D70"/>
<path d="M236.429 123.324C235.589 123.324 234.863 123.18 234.251 122.892C233.639 122.604 233.141 122.226 232.757 121.758C232.373 121.278 232.085 120.744 231.893 120.156C231.713 119.568 231.623 118.968 231.623 118.356V118.032C231.623 117.408 231.713 116.802 231.893 116.214C232.085 115.626 232.373 115.098 232.757 114.63C233.141 114.15 233.627 113.772 234.215 113.496C234.815 113.208 235.517 113.064 236.321 113.064C237.365 113.064 238.223 113.292 238.895 113.748C239.579 114.192 240.083 114.768 240.407 115.476C240.743 116.184 240.911 116.94 240.911 117.744V118.518H233.279C233.339 119.466 233.621 120.252 234.125 120.876C234.629 121.5 235.397 121.812 236.429 121.812C237.185 121.812 237.797 121.644 238.265 121.308C238.745 120.972 239.033 120.582 239.129 120.138H240.749C240.545 121.134 240.059 121.914 239.291 122.478C238.523 123.042 237.569 123.324 236.429 123.324ZM236.321 114.576C235.457 114.576 234.779 114.822 234.287 115.314C233.795 115.794 233.483 116.43 233.351 117.222H239.219C239.111 116.406 238.817 115.764 238.337 115.296C237.857 114.816 237.185 114.576 236.321 114.576Z" fill="#007D70"/>
<path d="M246.515 123.288C245.255 123.288 244.277 123.018 243.581 122.478C242.897 121.938 242.543 121.2 242.519 120.264H244.139C244.163 120.636 244.349 120.99 244.697 121.326C245.057 121.65 245.663 121.812 246.515 121.812C247.283 121.812 247.871 121.662 248.279 121.362C248.687 121.05 248.891 120.672 248.891 120.228C248.891 119.832 248.741 119.526 248.441 119.31C248.141 119.082 247.655 118.932 246.983 118.86L245.939 118.752C245.027 118.656 244.283 118.386 243.707 117.942C243.131 117.486 242.843 116.85 242.843 116.034C242.843 115.11 243.185 114.39 243.869 113.874C244.553 113.358 245.435 113.1 246.515 113.1C247.595 113.1 248.471 113.34 249.143 113.82C249.815 114.3 250.163 115.014 250.187 115.962H248.567C248.555 115.578 248.375 115.254 248.027 114.99C247.691 114.714 247.187 114.576 246.515 114.576C245.843 114.576 245.333 114.714 244.985 114.99C244.637 115.266 244.463 115.614 244.463 116.034C244.463 116.394 244.583 116.682 244.823 116.898C245.075 117.114 245.483 117.252 246.047 117.312L247.091 117.42C248.123 117.528 248.951 117.816 249.575 118.284C250.199 118.74 250.511 119.388 250.511 120.228C250.511 120.828 250.337 121.362 249.989 121.83C249.653 122.286 249.185 122.646 248.585 122.91C247.985 123.162 247.295 123.288 246.515 123.288Z" fill="#007D70"/>
<path d="M255.679 123.252C254.587 123.252 253.729 122.982 253.105 122.442C252.493 121.89 252.187 121.116 252.187 120.12C252.187 119.1 252.529 118.332 253.213 117.816C253.897 117.288 254.863 117.024 256.111 117.024H258.541V116.79C258.541 115.458 257.869 114.792 256.525 114.792C255.973 114.792 255.397 114.804 254.797 114.828C254.197 114.852 253.699 114.876 253.303 114.9V113.388C253.687 113.352 254.113 113.328 254.581 113.316C255.061 113.292 255.517 113.28 255.949 113.28C257.425 113.28 258.499 113.55 259.171 114.09C259.855 114.63 260.197 115.572 260.197 116.916V123H258.829V121.092C258.397 122.532 257.347 123.252 255.679 123.252ZM256.039 121.884C256.447 121.884 256.837 121.812 257.209 121.668C257.581 121.512 257.887 121.26 258.127 120.912C258.379 120.552 258.517 120.06 258.541 119.436V118.32H256.039C255.343 118.32 254.809 118.488 254.437 118.824C254.065 119.16 253.879 119.592 253.879 120.12C253.879 120.648 254.065 121.074 254.437 121.398C254.809 121.722 255.343 121.884 256.039 121.884Z" fill="#007D70"/>
<path d="M266.519 123.288C265.259 123.288 264.281 123.018 263.585 122.478C262.901 121.938 262.547 121.2 262.523 120.264H264.143C264.167 120.636 264.353 120.99 264.701 121.326C265.061 121.65 265.667 121.812 266.519 121.812C267.287 121.812 267.875 121.662 268.283 121.362C268.691 121.05 268.895 120.672 268.895 120.228C268.895 119.832 268.745 119.526 268.445 119.31C268.145 119.082 267.659 118.932 266.987 118.86L265.943 118.752C265.031 118.656 264.287 118.386 263.711 117.942C263.135 117.486 262.847 116.85 262.847 116.034C262.847 115.11 263.189 114.39 263.873 113.874C264.557 113.358 265.439 113.1 266.519 113.1C267.599 113.1 268.475 113.34 269.147 113.82C269.819 114.3 270.167 115.014 270.191 115.962H268.571C268.559 115.578 268.379 115.254 268.031 114.99C267.695 114.714 267.191 114.576 266.519 114.576C265.847 114.576 265.337 114.714 264.989 114.99C264.641 115.266 264.467 115.614 264.467 116.034C264.467 116.394 264.587 116.682 264.827 116.898C265.079 117.114 265.487 117.252 266.051 117.312L267.095 117.42C268.127 117.528 268.955 117.816 269.579 118.284C270.203 118.74 270.515 119.388 270.515 120.228C270.515 120.828 270.341 121.362 269.993 121.83C269.657 122.286 269.189 122.646 268.589 122.91C267.989 123.162 267.299 123.288 266.519 123.288Z" fill="#007D70"/>
<path d="M279.779 123.252C278.687 123.252 277.829 122.982 277.205 122.442C276.593 121.89 276.287 121.116 276.287 120.12C276.287 119.1 276.629 118.332 277.313 117.816C277.997 117.288 278.963 117.024 280.211 117.024H282.641V116.79C282.641 115.458 281.969 114.792 280.625 114.792C280.073 114.792 279.497 114.804 278.897 114.828C278.297 114.852 277.799 114.876 277.403 114.9V113.388C277.787 113.352 278.213 113.328 278.681 113.316C279.161 113.292 279.617 113.28 280.049 113.28C281.525 113.28 282.599 113.55 283.271 114.09C283.955 114.63 284.297 115.572 284.297 116.916V123H282.929V121.092C282.497 122.532 281.447 123.252 279.779 123.252ZM280.139 121.884C280.547 121.884 280.937 121.812 281.309 121.668C281.681 121.512 281.987 121.26 282.227 120.912C282.479 120.552 282.617 120.06 282.641 119.436V118.32H280.139C279.443 118.32 278.909 118.488 278.537 118.824C278.165 119.16 277.979 119.592 277.979 120.12C277.979 120.648 278.165 121.074 278.537 121.398C278.909 121.722 279.443 121.884 280.139 121.884Z" fill="#007D70"/>
<path d="M291.212 123.108C290.492 123.108 289.868 123.006 289.34 122.802C288.824 122.598 288.422 122.25 288.134 121.758C287.858 121.254 287.72 120.576 287.72 119.724V114.684H286.064V113.388H287.72V110.472H289.376V113.388H292.688V114.684H289.376V119.94C289.376 120.456 289.514 120.858 289.79 121.146C290.078 121.422 290.48 121.56 290.996 121.56H292.688V123.108H291.212Z" fill="#007D70"/>
<path d="M299.148 123.324C298.308 123.324 297.582 123.18 296.97 122.892C296.358 122.604 295.86 122.226 295.476 121.758C295.092 121.278 294.804 120.744 294.612 120.156C294.432 119.568 294.342 118.968 294.342 118.356V118.032C294.342 117.408 294.432 116.802 294.612 116.214C294.804 115.626 295.092 115.098 295.476 114.63C295.86 114.15 296.346 113.772 296.934 113.496C297.534 113.208 298.236 113.064 299.04 113.064C300.084 113.064 300.942 113.292 301.614 113.748C302.298 114.192 302.802 114.768 303.126 115.476C303.462 116.184 303.63 116.94 303.63 117.744V118.518H295.998C296.058 119.466 296.34 120.252 296.844 120.876C297.348 121.5 298.116 121.812 299.148 121.812C299.904 121.812 300.516 121.644 300.984 121.308C301.464 120.972 301.752 120.582 301.848 120.138H303.468C303.264 121.134 302.778 121.914 302.01 122.478C301.242 123.042 300.288 123.324 299.148 123.324ZM299.04 114.576C298.176 114.576 297.498 114.822 297.006 115.314C296.514 115.794 296.202 116.43 296.07 117.222H301.938C301.83 116.406 301.536 115.764 301.056 115.296C300.576 114.816 299.904 114.576 299.04 114.576ZM298.158 111.984L299.742 108.42H301.56L299.562 111.984H298.158Z" fill="#007D70"/>
<path d="M142.672 148V136.336H139.756V134.86H144.4V148H142.672Z" fill="#007D70"/>
<path d="M152.246 148.324C151.238 148.324 150.386 148.12 149.69 147.712C148.994 147.292 148.466 146.746 148.106 146.074C147.746 145.402 147.566 144.688 147.566 143.932H149.258C149.258 144.76 149.528 145.45 150.068 146.002C150.608 146.542 151.334 146.812 152.246 146.812C153.146 146.812 153.872 146.542 154.424 146.002C154.976 145.462 155.252 144.772 155.252 143.932C155.252 143.38 155.126 142.882 154.874 142.438C154.634 141.994 154.286 141.64 153.83 141.376C153.386 141.112 152.858 140.98 152.246 140.98C151.802 140.98 151.352 141.058 150.896 141.214C150.44 141.358 150.074 141.568 149.798 141.844H148.214L148.88 134.86H155.774V136.336H150.266L149.87 140.224C150.194 140.008 150.56 139.84 150.968 139.72C151.376 139.6 151.826 139.54 152.318 139.54C153.326 139.54 154.172 139.75 154.856 140.17C155.54 140.578 156.056 141.112 156.404 141.772C156.764 142.42 156.944 143.098 156.944 143.806V144.058C156.944 144.766 156.764 145.45 156.404 146.11C156.044 146.758 155.51 147.292 154.802 147.712C154.106 148.12 153.254 148.324 152.246 148.324Z" fill="#007D70"/>
<path d="M167.647 148.324C166.819 148.324 166.099 148.18 165.487 147.892C164.887 147.604 164.389 147.22 163.993 146.74C163.597 146.248 163.297 145.708 163.093 145.12C162.901 144.532 162.805 143.944 162.805 143.356V143.032C162.805 142.42 162.901 141.82 163.093 141.232C163.297 140.644 163.597 140.116 163.993 139.648C164.401 139.168 164.905 138.784 165.505 138.496C166.105 138.208 166.807 138.064 167.611 138.064C168.415 138.064 169.135 138.214 169.771 138.514C170.419 138.814 170.935 139.24 171.319 139.792C171.715 140.332 171.937 140.974 171.985 141.718H170.329C170.245 141.118 169.969 140.62 169.501 140.224C169.033 139.816 168.403 139.612 167.611 139.612C166.927 139.612 166.357 139.768 165.901 140.08C165.445 140.392 165.103 140.818 164.875 141.358C164.647 141.898 164.533 142.51 164.533 143.194C164.533 143.854 164.647 144.46 164.875 145.012C165.103 145.552 165.445 145.984 165.901 146.308C166.369 146.62 166.951 146.776 167.647 146.776C168.451 146.776 169.099 146.572 169.591 146.164C170.083 145.744 170.365 145.228 170.437 144.616H172.093C172.057 145.372 171.835 146.026 171.427 146.578C171.031 147.13 170.503 147.562 169.843 147.874C169.195 148.174 168.463 148.324 167.647 148.324Z" fill="#007D70"/>
<path d="M178.869 148.324C178.029 148.324 177.291 148.18 176.655 147.892C176.019 147.604 175.479 147.226 175.035 146.758C174.603 146.278 174.273 145.744 174.045 145.156C173.829 144.568 173.721 143.968 173.721 143.356V143.032C173.721 142.42 173.835 141.82 174.063 141.232C174.291 140.632 174.627 140.098 175.071 139.63C175.515 139.15 176.055 138.772 176.691 138.496C177.327 138.208 178.053 138.064 178.869 138.064C179.685 138.064 180.411 138.208 181.047 138.496C181.683 138.772 182.223 139.15 182.667 139.63C183.111 140.098 183.447 140.632 183.675 141.232C183.903 141.82 184.017 142.42 184.017 143.032V143.356C184.017 143.968 183.903 144.568 183.675 145.156C183.459 145.744 183.129 146.278 182.685 146.758C182.253 147.226 181.719 147.604 181.083 147.892C180.447 148.18 179.709 148.324 178.869 148.324ZM178.869 146.776C179.589 146.776 180.201 146.62 180.705 146.308C181.221 145.984 181.611 145.552 181.875 145.012C182.151 144.472 182.289 143.866 182.289 143.194C182.289 142.51 182.151 141.898 181.875 141.358C181.599 140.818 181.203 140.392 180.687 140.08C180.183 139.768 179.577 139.612 178.869 139.612C178.173 139.612 177.567 139.768 177.051 140.08C176.535 140.392 176.139 140.818 175.863 141.358C175.587 141.898 175.449 142.51 175.449 143.194C175.449 143.866 175.581 144.472 175.845 145.012C176.121 145.552 176.511 145.984 177.015 146.308C177.531 146.62 178.149 146.776 178.869 146.776Z" fill="#007D70"/>
<path d="M186.713 148V136.228H185.381V134.86H188.441V148H186.713Z" fill="#007D70"/>
<path d="M194.419 148.252C193.327 148.252 192.469 147.982 191.845 147.442C191.233 146.89 190.927 146.116 190.927 145.12C190.927 144.1 191.269 143.332 191.953 142.816C192.637 142.288 193.603 142.024 194.851 142.024H197.281V141.79C197.281 140.458 196.609 139.792 195.265 139.792C194.713 139.792 194.137 139.804 193.537 139.828C192.937 139.852 192.439 139.876 192.043 139.9V138.388C192.427 138.352 192.853 138.328 193.321 138.316C193.801 138.292 194.257 138.28 194.689 138.28C196.165 138.28 197.239 138.55 197.911 139.09C198.595 139.63 198.937 140.572 198.937 141.916V148H197.569V146.092C197.137 147.532 196.087 148.252 194.419 148.252ZM194.779 146.884C195.187 146.884 195.577 146.812 195.949 146.668C196.321 146.512 196.627 146.26 196.867 145.912C197.119 145.552 197.257 145.06 197.281 144.436V143.32H194.779C194.083 143.32 193.549 143.488 193.177 143.824C192.805 144.16 192.619 144.592 192.619 145.12C192.619 145.648 192.805 146.074 193.177 146.398C193.549 146.722 194.083 146.884 194.779 146.884Z" fill="#007D70"/>
<path d="M207.185 148.324C206.333 148.324 205.583 148.126 204.935 147.73C204.299 147.334 203.813 146.764 203.477 146.02V148H202.109V134.86H203.837V140.044C204.197 139.372 204.683 138.874 205.295 138.55C205.907 138.226 206.585 138.064 207.329 138.064C208.253 138.064 209.057 138.286 209.741 138.73C210.425 139.174 210.959 139.768 211.343 140.512C211.727 141.256 211.919 142.084 211.919 142.996V143.32C211.919 144.22 211.721 145.054 211.325 145.822C210.929 146.578 210.377 147.184 209.669 147.64C208.961 148.096 208.133 148.324 207.185 148.324ZM206.987 146.812C207.635 146.812 208.199 146.656 208.679 146.344C209.159 146.032 209.531 145.606 209.795 145.066C210.059 144.514 210.191 143.878 210.191 143.158C210.191 142.078 209.897 141.214 209.309 140.566C208.721 139.906 207.947 139.576 206.987 139.576C206.411 139.576 205.877 139.708 205.385 139.972C204.893 140.224 204.497 140.596 204.197 141.088C203.909 141.568 203.765 142.15 203.765 142.834V143.662C203.765 144.322 203.915 144.886 204.215 145.354C204.515 145.822 204.911 146.182 205.403 146.434C205.895 146.686 206.423 146.812 206.987 146.812Z" fill="#007D70"/>
<path d="M218.947 148.324C218.107 148.324 217.369 148.18 216.733 147.892C216.097 147.604 215.557 147.226 215.113 146.758C214.681 146.278 214.351 145.744 214.123 145.156C213.907 144.568 213.799 143.968 213.799 143.356V143.032C213.799 142.42 213.913 141.82 214.141 141.232C214.369 140.632 214.705 140.098 215.149 139.63C215.593 139.15 216.133 138.772 216.769 138.496C217.405 138.208 218.131 138.064 218.947 138.064C219.763 138.064 220.489 138.208 221.125 138.496C221.761 138.772 222.301 139.15 222.745 139.63C223.189 140.098 223.525 140.632 223.753 141.232C223.981 141.82 224.095 142.42 224.095 143.032V143.356C224.095 143.968 223.981 144.568 223.753 145.156C223.537 145.744 223.207 146.278 222.763 146.758C222.331 147.226 221.797 147.604 221.161 147.892C220.525 148.18 219.787 148.324 218.947 148.324ZM218.947 146.776C219.667 146.776 220.279 146.62 220.783 146.308C221.299 145.984 221.689 145.552 221.953 145.012C222.229 144.472 222.367 143.866 222.367 143.194C222.367 142.51 222.229 141.898 221.953 141.358C221.677 140.818 221.281 140.392 220.765 140.08C220.261 139.768 219.655 139.612 218.947 139.612C218.251 139.612 217.645 139.768 217.129 140.08C216.613 140.392 216.217 140.818 215.941 141.358C215.665 141.898 215.527 142.51 215.527 143.194C215.527 143.866 215.659 144.472 215.923 145.012C216.199 145.552 216.589 145.984 217.093 146.308C217.609 146.62 218.227 146.776 218.947 146.776Z" fill="#007D70"/>
<path d="M226.683 148V138.388H228.051V141.268C228.195 140.236 228.573 139.48 229.185 139C229.797 138.52 230.631 138.28 231.687 138.28H232.011V139.828H231.399C230.439 139.828 229.701 140.086 229.185 140.602C228.669 141.106 228.411 141.838 228.411 142.798V148H226.683Z" fill="#007D70"/>
<path d="M236.695 148.252C235.603 148.252 234.745 147.982 234.121 147.442C233.509 146.89 233.203 146.116 233.203 145.12C233.203 144.1 233.545 143.332 234.229 142.816C234.913 142.288 235.879 142.024 237.127 142.024H239.557V141.79C239.557 140.458 238.885 139.792 237.541 139.792C236.989 139.792 236.413 139.804 235.813 139.828C235.213 139.852 234.715 139.876 234.319 139.9V138.388C234.703 138.352 235.129 138.328 235.597 138.316C236.077 138.292 236.533 138.28 236.965 138.28C238.441 138.28 239.515 138.55 240.187 139.09C240.871 139.63 241.213 140.572 241.213 141.916V148H239.845V146.092C239.413 147.532 238.363 148.252 236.695 148.252ZM237.055 146.884C237.463 146.884 237.853 146.812 238.225 146.668C238.597 146.512 238.903 146.26 239.143 145.912C239.395 145.552 239.533 145.06 239.557 144.436V143.32H237.055C236.359 143.32 235.825 143.488 235.453 143.824C235.081 144.16 234.895 144.592 234.895 145.12C234.895 145.648 235.081 146.074 235.453 146.398C235.825 146.722 236.359 146.884 237.055 146.884Z" fill="#007D70"/>
<path d="M248.398 148.324C247.486 148.324 246.67 148.102 245.95 147.658C245.242 147.214 244.684 146.62 244.276 145.876C243.868 145.12 243.664 144.28 243.664 143.356V143.032C243.664 142.12 243.862 141.292 244.258 140.548C244.654 139.792 245.2 139.192 245.896 138.748C246.604 138.292 247.42 138.064 248.344 138.064C249.052 138.064 249.7 138.208 250.288 138.496C250.888 138.784 251.374 139.234 251.746 139.846V134.86H253.474V148H252.106V146.02C251.734 146.836 251.212 147.424 250.54 147.784C249.88 148.144 249.166 148.324 248.398 148.324ZM248.632 146.812C249.22 146.812 249.754 146.68 250.234 146.416C250.714 146.152 251.098 145.774 251.386 145.282C251.674 144.778 251.818 144.19 251.818 143.518V142.69C251.818 142.03 251.668 141.472 251.368 141.016C251.08 140.548 250.69 140.194 250.198 139.954C249.718 139.702 249.19 139.576 248.614 139.576C247.654 139.576 246.874 139.906 246.274 140.566C245.686 141.226 245.392 142.102 245.392 143.194C245.392 143.926 245.53 144.568 245.806 145.12C246.082 145.66 246.466 146.08 246.958 146.38C247.45 146.668 248.008 146.812 248.632 146.812Z" fill="#007D70"/>
<path d="M261.222 148.324C260.382 148.324 259.644 148.18 259.008 147.892C258.372 147.604 257.832 147.226 257.388 146.758C256.956 146.278 256.626 145.744 256.398 145.156C256.182 144.568 256.074 143.968 256.074 143.356V143.032C256.074 142.42 256.188 141.82 256.416 141.232C256.644 140.632 256.98 140.098 257.424 139.63C257.868 139.15 258.408 138.772 259.044 138.496C259.68 138.208 260.406 138.064 261.222 138.064C262.038 138.064 262.764 138.208 263.4 138.496C264.036 138.772 264.576 139.15 265.02 139.63C265.464 140.098 265.8 140.632 266.028 141.232C266.256 141.82 266.37 142.42 266.37 143.032V143.356C266.37 143.968 266.256 144.568 266.028 145.156C265.812 145.744 265.482 146.278 265.038 146.758C264.606 147.226 264.072 147.604 263.436 147.892C262.8 148.18 262.062 148.324 261.222 148.324ZM261.222 146.776C261.942 146.776 262.554 146.62 263.058 146.308C263.574 145.984 263.964 145.552 264.228 145.012C264.504 144.472 264.642 143.866 264.642 143.194C264.642 142.51 264.504 141.898 264.228 141.358C263.952 140.818 263.556 140.392 263.04 140.08C262.536 139.768 261.93 139.612 261.222 139.612C260.526 139.612 259.92 139.768 259.404 140.08C258.888 140.392 258.492 140.818 258.216 141.358C257.94 141.898 257.802 142.51 257.802 143.194C257.802 143.866 257.934 144.472 258.198 145.012C258.474 145.552 258.864 145.984 259.368 146.308C259.884 146.62 260.502 146.776 261.222 146.776Z" fill="#007D70"/>
<path d="M268.958 148V138.388H270.326V141.268C270.47 140.236 270.848 139.48 271.46 139C272.072 138.52 272.906 138.28 273.962 138.28H274.286V139.828H273.674C272.714 139.828 271.976 140.086 271.46 140.602C270.944 141.106 270.686 141.838 270.686 142.798V148H268.958Z" fill="#007D70"/>
<path d="M280.322 148.324C279.482 148.324 278.756 148.18 278.144 147.892C277.532 147.604 277.034 147.226 276.65 146.758C276.266 146.278 275.978 145.744 275.786 145.156C275.606 144.568 275.516 143.968 275.516 143.356V143.032C275.516 142.408 275.606 141.802 275.786 141.214C275.978 140.626 276.266 140.098 276.65 139.63C277.034 139.15 277.52 138.772 278.108 138.496C278.708 138.208 279.41 138.064 280.214 138.064C281.258 138.064 282.116 138.292 282.788 138.748C283.472 139.192 283.976 139.768 284.3 140.476C284.636 141.184 284.804 141.94 284.804 142.744V143.518H277.172C277.232 144.466 277.514 145.252 278.018 145.876C278.522 146.5 279.29 146.812 280.322 146.812C281.078 146.812 281.69 146.644 282.158 146.308C282.638 145.972 282.926 145.582 283.022 145.138H284.642C284.438 146.134 283.952 146.914 283.184 147.478C282.416 148.042 281.462 148.324 280.322 148.324ZM280.214 139.576C279.35 139.576 278.672 139.822 278.18 140.314C277.688 140.794 277.376 141.43 277.244 142.222H283.112C283.004 141.406 282.71 140.764 282.23 140.296C281.75 139.816 281.078 139.576 280.214 139.576Z" fill="#007D70"/>
<path d="M290.407 148.288C289.147 148.288 288.169 148.018 287.473 147.478C286.789 146.938 286.435 146.2 286.411 145.264H288.031C288.055 145.636 288.241 145.99 288.589 146.326C288.949 146.65 289.555 146.812 290.407 146.812C291.175 146.812 291.763 146.662 292.171 146.362C292.579 146.05 292.783 145.672 292.783 145.228C292.783 144.832 292.633 144.526 292.333 144.31C292.033 144.082 291.547 143.932 290.875 143.86L289.831 143.752C288.919 143.656 288.175 143.386 287.599 142.942C287.023 142.486 286.735 141.85 286.735 141.034C286.735 140.11 287.077 139.39 287.761 138.874C288.445 138.358 289.327 138.1 290.407 138.1C291.487 138.1 292.363 138.34 293.035 138.82C293.707 139.3 294.055 140.014 294.079 140.962H292.459C292.447 140.578 292.267 140.254 291.919 139.99C291.583 139.714 291.079 139.576 290.407 139.576C289.735 139.576 289.225 139.714 288.877 139.99C288.529 140.266 288.355 140.614 288.355 141.034C288.355 141.394 288.475 141.682 288.715 141.898C288.967 142.114 289.375 142.252 289.939 142.312L290.983 142.42C292.015 142.528 292.843 142.816 293.467 143.284C294.091 143.74 294.403 144.388 294.403 145.228C294.403 145.828 294.229 146.362 293.881 146.83C293.545 147.286 293.077 147.646 292.477 147.91C291.877 148.162 291.187 148.288 290.407 148.288Z" fill="#007D70"/>
<path d="M140.738 96.3999V80.0539H143.158V85.2019L142.784 85.1799C142.843 83.9626 143.092 82.9433 143.532 82.1219C143.987 81.3006 144.588 80.6919 145.336 80.2959C146.084 79.8853 146.92 79.6799 147.844 79.6799C148.695 79.6799 149.457 79.8339 150.132 80.1419C150.821 80.4499 151.408 80.8826 151.892 81.4399C152.391 81.9973 152.772 82.6499 153.036 83.3979C153.3 84.1313 153.432 84.9233 153.432 85.7739V86.2359C153.432 87.1013 153.3 87.9079 153.036 88.6559C152.787 89.3893 152.413 90.0419 151.914 90.6139C151.43 91.1713 150.843 91.6113 150.154 91.9339C149.465 92.2419 148.695 92.3959 147.844 92.3959C146.949 92.3959 146.128 92.2126 145.38 91.8459C144.647 91.4646 144.053 90.8853 143.598 90.1079C143.143 89.3159 142.887 88.2966 142.828 87.0499L143.796 88.5239V96.3999H140.738ZM147.074 89.8219C147.734 89.8219 148.306 89.6606 148.79 89.3379C149.289 89.0153 149.677 88.5679 149.956 87.9959C150.235 87.4093 150.374 86.7493 150.374 86.0159C150.374 85.2533 150.235 84.5933 149.956 84.0359C149.677 83.4786 149.289 83.0459 148.79 82.7379C148.306 82.4153 147.734 82.2539 147.074 82.2539C146.473 82.2539 145.915 82.3859 145.402 82.6499C144.903 82.9139 144.493 83.3026 144.17 83.8159C143.862 84.3293 143.708 84.9453 143.708 85.6639V86.5439C143.708 87.2333 143.869 87.8199 144.192 88.3039C144.515 88.7879 144.933 89.1619 145.446 89.4259C145.959 89.6899 146.502 89.8219 147.074 89.8219Z" fill="#4D434B"/>
<path d="M161.863 92.4179C160.807 92.4179 159.875 92.2493 159.069 91.9119C158.262 91.5746 157.58 91.1199 157.023 90.5479C156.465 89.9613 156.04 89.3013 155.747 88.5679C155.468 87.8346 155.329 87.0719 155.329 86.2799V85.8179C155.329 84.9966 155.475 84.2193 155.769 83.4859C156.077 82.7379 156.509 82.0779 157.067 81.5059C157.639 80.9193 158.328 80.4646 159.135 80.1419C159.941 79.8046 160.851 79.6359 161.863 79.6359C162.875 79.6359 163.784 79.8046 164.591 80.1419C165.397 80.4646 166.079 80.9193 166.637 81.5059C167.209 82.0779 167.641 82.7379 167.935 83.4859C168.228 84.2193 168.375 84.9966 168.375 85.8179V86.2799C168.375 87.0719 168.228 87.8346 167.935 88.5679C167.656 89.3013 167.238 89.9613 166.681 90.5479C166.123 91.1199 165.441 91.5746 164.635 91.9119C163.828 92.2493 162.904 92.4179 161.863 92.4179ZM161.863 89.7999C162.611 89.7999 163.241 89.6386 163.755 89.3159C164.268 88.9786 164.657 88.5313 164.921 87.9739C165.185 87.4019 165.317 86.7566 165.317 86.0379C165.317 85.3046 165.177 84.6593 164.899 84.1019C164.635 83.5299 164.239 83.0826 163.711 82.7599C163.197 82.4226 162.581 82.2539 161.863 82.2539C161.144 82.2539 160.521 82.4226 159.993 82.7599C159.479 83.0826 159.083 83.5299 158.805 84.1019C158.526 84.6593 158.387 85.3046 158.387 86.0379C158.387 86.7566 158.519 87.4019 158.783 87.9739C159.061 88.5313 159.457 88.9786 159.971 89.3159C160.484 89.6386 161.115 89.7999 161.863 89.7999Z" fill="#4D434B"/>
<path d="M171.052 91.9999V80.0539H173.472V85.1139H173.406C173.406 83.3979 173.773 82.0999 174.506 81.2199C175.24 80.3399 176.318 79.8999 177.74 79.8999H178.18V82.5619H177.344C176.318 82.5619 175.518 82.8406 174.946 83.3979C174.389 83.9406 174.11 84.7326 174.11 85.7739V91.9999H171.052Z" fill="#4D434B"/>
<path d="M189.308 92.3739C187.666 92.3739 186.375 92.0293 185.436 91.3399C184.512 90.6359 184.028 89.6679 183.984 88.4359H186.734C186.778 88.8466 187.006 89.2206 187.416 89.5579C187.827 89.8953 188.472 90.0639 189.352 90.0639C190.086 90.0639 190.665 89.9319 191.09 89.6679C191.53 89.4039 191.75 89.0446 191.75 88.5899C191.75 88.1939 191.582 87.8786 191.244 87.6439C190.922 87.4093 190.364 87.2553 189.572 87.1819L188.516 87.0719C187.182 86.9253 186.155 86.5439 185.436 85.9279C184.718 85.3119 184.358 84.4906 184.358 83.4639C184.358 82.6426 184.564 81.9533 184.974 81.3959C185.385 80.8386 185.95 80.4206 186.668 80.1419C187.402 79.8486 188.238 79.7019 189.176 79.7019C190.643 79.7019 191.831 80.0246 192.74 80.6699C193.65 81.3153 194.126 82.2613 194.17 83.5079H191.42C191.391 83.0973 191.186 82.7453 190.804 82.4519C190.423 82.1586 189.873 82.0119 189.154 82.0119C188.509 82.0119 188.01 82.1366 187.658 82.3859C187.306 82.6353 187.13 82.9579 187.13 83.3539C187.13 83.7353 187.27 84.0286 187.548 84.2339C187.842 84.4393 188.311 84.5786 188.956 84.6519L190.012 84.7619C191.42 84.9086 192.52 85.2973 193.312 85.9279C194.119 86.5586 194.522 87.4093 194.522 88.4799C194.522 89.2719 194.302 89.9613 193.862 90.5479C193.437 91.1199 192.836 91.5673 192.058 91.8899C191.281 92.2126 190.364 92.3739 189.308 92.3739Z" fill="#4D434B"/>
<path d="M202.394 92.4179C201.368 92.4179 200.466 92.2419 199.688 91.8899C198.926 91.5379 198.288 91.0686 197.774 90.4819C197.276 89.8806 196.894 89.2133 196.63 88.4799C196.381 87.7466 196.256 86.9986 196.256 86.2359V85.8179C196.256 85.0259 196.381 84.2633 196.63 83.5299C196.894 82.7819 197.276 82.1219 197.774 81.5499C198.288 80.9633 198.918 80.5013 199.666 80.1639C200.414 79.8119 201.28 79.6359 202.262 79.6359C203.553 79.6359 204.631 79.9219 205.496 80.4939C206.376 81.0513 207.036 81.7919 207.476 82.7159C207.916 83.6253 208.136 84.6079 208.136 85.6639V86.7639H197.554V84.8939H206.222L205.276 85.8179C205.276 85.0553 205.166 84.4026 204.946 83.8599C204.726 83.3173 204.389 82.8993 203.934 82.6059C203.494 82.3126 202.937 82.1659 202.262 82.1659C201.588 82.1659 201.016 82.3199 200.546 82.6279C200.077 82.9359 199.718 83.3833 199.468 83.9699C199.234 84.5419 199.116 85.2313 199.116 86.0379C199.116 86.7859 199.234 87.4533 199.468 88.0399C199.703 88.6119 200.062 89.0666 200.546 89.4039C201.03 89.7266 201.646 89.8879 202.394 89.8879C203.142 89.8879 203.751 89.7413 204.22 89.4479C204.69 89.1399 204.99 88.7659 205.122 88.3259H207.938C207.762 89.1473 207.425 89.8659 206.926 90.4819C206.428 91.0979 205.79 91.5746 205.012 91.9119C204.25 92.2493 203.377 92.4179 202.394 92.4179Z" fill="#4D434B"/>
<path d="M210.691 91.9999V80.0539H213.111V85.1799H212.891C212.891 83.9773 213.045 82.9726 213.353 82.1659C213.661 81.3446 214.116 80.7286 214.717 80.3179C215.333 79.8926 216.096 79.6799 217.005 79.6799H217.137C218.061 79.6799 218.824 79.8926 219.425 80.3179C220.041 80.7286 220.496 81.3446 220.789 82.1659C221.097 82.9726 221.251 83.9773 221.251 85.1799H220.481C220.481 83.9773 220.635 82.9726 220.943 82.1659C221.266 81.3446 221.728 80.7286 222.329 80.3179C222.945 79.8926 223.708 79.6799 224.617 79.6799H224.749C225.673 79.6799 226.443 79.8926 227.059 80.3179C227.675 80.7286 228.137 81.3446 228.445 82.1659C228.768 82.9726 228.929 83.9773 228.929 85.1799V91.9999H225.871V84.8939C225.871 84.1459 225.68 83.5519 225.299 83.1119C224.918 82.6573 224.375 82.4299 223.671 82.4299C222.967 82.4299 222.402 82.6646 221.977 83.1339C221.552 83.5886 221.339 84.2046 221.339 84.9819V91.9999H218.281V84.8939C218.281 84.1459 218.09 83.5519 217.709 83.1119C217.328 82.6573 216.785 82.4299 216.081 82.4299C215.377 82.4299 214.812 82.6646 214.387 83.1339C213.962 83.5886 213.749 84.2046 213.749 84.9819V91.9999H210.691Z" fill="#4D434B"/>
<path d="M239.435 91.9999V88.4579H238.929V84.5199C238.929 83.8306 238.76 83.3173 238.423 82.9799C238.086 82.6426 237.565 82.4739 236.861 82.4739C236.494 82.4739 236.054 82.4813 235.541 82.4959C235.028 82.5106 234.507 82.5326 233.979 82.5619C233.466 82.5766 233.004 82.5986 232.593 82.6279V80.0319C232.93 80.0026 233.312 79.9733 233.737 79.9439C234.162 79.9146 234.595 79.8999 235.035 79.8999C235.49 79.8853 235.915 79.8779 236.311 79.8779C237.543 79.8779 238.562 80.0393 239.369 80.3619C240.19 80.6846 240.806 81.1906 241.217 81.8799C241.642 82.5693 241.855 83.4713 241.855 84.5859V91.9999H239.435ZM235.585 92.3079C234.72 92.3079 233.957 92.1539 233.297 91.8459C232.652 91.5379 232.146 91.0979 231.779 90.5259C231.427 89.9539 231.251 89.2646 231.251 88.4579C231.251 87.5779 231.464 86.8593 231.889 86.3019C232.329 85.7446 232.938 85.3266 233.715 85.0479C234.507 84.7693 235.431 84.6299 236.487 84.6299H239.259V86.4559H236.443C235.739 86.4559 235.196 86.6319 234.815 86.9839C234.448 87.3213 234.265 87.7613 234.265 88.3039C234.265 88.8466 234.448 89.2866 234.815 89.6239C235.196 89.9613 235.739 90.1299 236.443 90.1299C236.868 90.1299 237.257 90.0566 237.609 89.9099C237.976 89.7486 238.276 89.4846 238.511 89.1179C238.76 88.7366 238.9 88.2233 238.929 87.5779L239.677 88.4359C239.604 89.2719 239.398 89.9759 239.061 90.5479C238.738 91.1199 238.284 91.5599 237.697 91.8679C237.125 92.1613 236.421 92.3079 235.585 92.3079Z" fill="#4D434B"/>
<path d="M245.13 91.9999V80.0539H247.55V85.1799H247.33C247.33 83.9626 247.492 82.9506 247.814 82.1439C248.137 81.3226 248.614 80.7066 249.244 80.2959C249.89 79.8853 250.689 79.6799 251.642 79.6799H251.774C253.197 79.6799 254.275 80.1419 255.008 81.0659C255.742 81.9753 256.108 83.3393 256.108 85.1579V91.9999H253.05V84.8939C253.05 84.1606 252.838 83.5666 252.412 83.1119C252.002 82.6573 251.43 82.4299 250.696 82.4299C249.948 82.4299 249.34 82.6646 248.87 83.1339C248.416 83.5886 248.188 84.2046 248.188 84.9819V91.9999H245.13Z" fill="#4D434B"/>
<path d="M266.634 91.9999V88.4579H266.128V84.5199C266.128 83.8306 265.959 83.3173 265.622 82.9799C265.285 82.6426 264.764 82.4739 264.06 82.4739C263.693 82.4739 263.253 82.4813 262.74 82.4959C262.227 82.5106 261.706 82.5326 261.178 82.5619C260.665 82.5766 260.203 82.5986 259.792 82.6279V80.0319C260.129 80.0026 260.511 79.9733 260.936 79.9439C261.361 79.9146 261.794 79.8999 262.234 79.8999C262.689 79.8853 263.114 79.8779 263.51 79.8779C264.742 79.8779 265.761 80.0393 266.568 80.3619C267.389 80.6846 268.005 81.1906 268.416 81.8799C268.841 82.5693 269.054 83.4713 269.054 84.5859V91.9999H266.634ZM262.784 92.3079C261.919 92.3079 261.156 92.1539 260.496 91.8459C259.851 91.5379 259.345 91.0979 258.978 90.5259C258.626 89.9539 258.45 89.2646 258.45 88.4579C258.45 87.5779 258.663 86.8593 259.088 86.3019C259.528 85.7446 260.137 85.3266 260.914 85.0479C261.706 84.7693 262.63 84.6299 263.686 84.6299H266.458V86.4559H263.642C262.938 86.4559 262.395 86.6319 262.014 86.9839C261.647 87.3213 261.464 87.7613 261.464 88.3039C261.464 88.8466 261.647 89.2866 262.014 89.6239C262.395 89.9613 262.938 90.1299 263.642 90.1299C264.067 90.1299 264.456 90.0566 264.808 89.9099C265.175 89.7486 265.475 89.4846 265.71 89.1179C265.959 88.7366 266.099 88.2233 266.128 87.5779L266.876 88.4359C266.803 89.2719 266.597 89.9759 266.26 90.5479C265.937 91.1199 265.483 91.5599 264.896 91.8679C264.324 92.1613 263.62 92.3079 262.784 92.3079Z" fill="#4D434B"/>
<path d="M147.84 62.9999V24.0879H138.304V16.2799H156.864V62.9999H147.84Z" fill="#4D434B"/>
<path d="M187.443 64.2159C183.774 64.2159 180.638 63.6186 178.035 62.4239C175.475 61.1866 173.385 59.5226 171.763 57.4319C170.185 55.2986 169.011 52.8666 168.243 50.1359C167.518 47.4053 167.155 44.5039 167.155 41.4319V37.8479C167.155 33.5813 167.859 29.7199 169.267 26.2639C170.718 22.8079 172.937 20.0559 175.923 18.0079C178.953 15.9599 182.793 14.9359 187.443 14.9359C192.051 14.9359 195.849 15.9599 198.835 18.0079C201.822 20.0559 204.019 22.8079 205.427 26.2639C206.878 29.7199 207.603 33.5813 207.603 37.8479V41.4319C207.603 44.5039 207.219 47.4053 206.451 50.1359C205.726 52.8666 204.553 55.2986 202.931 57.4319C201.353 59.5226 199.283 61.1866 196.723 62.4239C194.163 63.6186 191.07 64.2159 187.443 64.2159ZM187.443 55.8959C191.198 55.8959 193.971 54.5946 195.763 51.9919C197.598 49.3466 198.515 45.2506 198.515 39.7039C198.515 33.8586 197.598 29.6559 195.763 27.0959C193.929 24.5359 191.155 23.2559 187.443 23.2559C183.689 23.2559 180.873 24.5359 178.995 27.0959C177.161 29.6133 176.243 33.7733 176.243 39.5759C176.243 45.2079 177.139 49.3466 178.931 51.9919C180.766 54.5946 183.603 55.8959 187.443 55.8959Z" fill="#4D434B"/>
<path d="M226.271 47.4479V42.5839H231.391C231.391 41.7733 231.391 40.9413 231.391 40.0879L231.327 39.1919C231.327 38.6799 231.348 38.1893 231.391 37.7199H227.423V32.8559H231.775C233.396 21.1226 239.711 15.2559 250.719 15.2559C254.602 15.2559 257.802 15.9173 260.319 17.2399C262.879 18.5199 264.799 20.2906 266.079 22.5519C267.402 24.8133 268.127 27.4159 268.255 30.3599H260.383C260.212 27.9706 259.316 26.0719 257.695 24.6639C256.116 23.2559 253.791 22.5519 250.719 22.5519C247.647 22.5519 245.215 23.3626 243.423 24.9839C241.631 26.5626 240.415 29.1866 239.775 32.8559H255.455V37.7199H239.327C239.284 38.3173 239.284 38.9573 239.327 39.6399C239.327 40.6639 239.348 41.6453 239.391 42.5839H254.303V47.4479H240.031C240.756 50.7333 242.036 53.1013 243.871 54.5519C245.706 56.0026 248.116 56.7279 251.103 56.7279C254.26 56.7279 256.607 56.0239 258.143 54.6159C259.722 53.2079 260.596 51.2879 260.767 48.8559H268.639C268.511 51.8426 267.786 54.4879 266.463 56.7919C265.183 59.0533 263.263 60.8239 260.703 62.1039C258.186 63.3839 254.986 64.0239 251.103 64.0239C245.77 64.0239 241.482 62.6373 238.239 59.8639C234.996 57.0906 232.906 52.9519 231.967 47.4479H226.271Z" fill="#4D434B"/>
<path d="M21.9999 27.9999C21.9999 25.7908 23.7907 23.9999 25.9999 23.9999H83.9999C86.209 23.9999 87.9999 25.7908 87.9999 27.9999V47.9999C87.9999 50.2091 86.209 51.9999 83.9999 51.9999H25.9999C23.7907 51.9999 21.9999 50.2091 21.9999 47.9999V27.9999Z" fill="#B0D7D3"/>
<path d="M54.8145 47.1399C50.9345 47.1399 47.6545 46.5199 44.9745 45.2799C42.2945 44.0399 40.2545 42.3399 38.8545 40.1799C37.4945 38.0199 36.8145 35.5399 36.8145 32.7399H45.1545C45.1545 33.9399 45.4745 35.0799 46.1145 36.1599C46.7545 37.2399 47.7745 38.1199 49.1745 38.7999C50.6145 39.4799 52.4945 39.8199 54.8145 39.8199C57.9345 39.8199 60.2745 39.1799 61.8345 37.8999C63.3945 36.6199 64.1745 35.0599 64.1745 33.2199C64.1745 31.6999 63.5145 30.4599 62.1945 29.4999C60.8745 28.5399 58.8345 27.9399 56.0745 27.6999L52.2345 27.3999C48.0345 27.0399 44.6745 25.7399 42.1545 23.4999C39.6745 21.2199 38.4345 18.2199 38.4345 14.4999C38.4345 11.7399 39.0745 9.33994 40.3545 7.29994C41.6745 5.25994 43.5345 3.69994 45.9345 2.61994C48.3345 1.49994 51.1345 0.939941 54.3345 0.939941C57.6145 0.939941 60.4545 1.51994 62.8545 2.67994C65.2945 3.83994 67.1745 5.47994 68.4945 7.59994C69.8145 9.67994 70.4745 12.1399 70.4745 14.9799H62.1345C62.1345 13.2199 61.4745 11.6599 60.1545 10.2999C58.8745 8.93994 56.9345 8.25994 54.3345 8.25994C51.7745 8.25994 49.8745 8.87994 48.6345 10.1199C47.3945 11.3599 46.7745 12.8199 46.7745 14.4999C46.7745 15.8599 47.2545 17.0599 48.2145 18.0999C49.2145 19.0999 50.8145 19.6799 53.0145 19.8399L56.8545 20.1999C59.9745 20.4799 62.6945 21.1599 65.0145 22.2399C67.3745 23.2799 69.2145 24.7199 70.5345 26.5599C71.8545 28.3999 72.5145 30.6199 72.5145 33.2199C72.5145 35.9799 71.7745 38.4199 70.2945 40.5399C68.8545 42.6199 66.8145 44.2399 64.1745 45.3999C61.5345 46.5599 58.4145 47.1399 54.8145 47.1399Z" fill="#007D70"/>
<path d="M3.67186 89.9999V78.3359H0.755859V76.8599H5.39986V89.9999H3.67186Z" fill="#007D70"/>
<path d="M14.2545 90.3239C13.2705 90.3239 12.4305 90.1559 11.7345 89.8199C11.0505 89.4719 10.4925 89.0039 10.0605 88.4159C9.64045 87.8279 9.33445 87.1499 9.14245 86.3819C8.95045 85.6019 8.85445 84.7799 8.85445 83.9159V82.9439C8.85445 81.7319 9.04045 80.6399 9.41245 79.6679C9.79645 78.6959 10.3845 77.9279 11.1765 77.3639C11.9805 76.7879 13.0065 76.4999 14.2545 76.4999C15.5025 76.4999 16.5225 76.7879 17.3145 77.3639C18.1065 77.9279 18.6885 78.6959 19.0605 79.6679C19.4445 80.6399 19.6365 81.7319 19.6365 82.9439V83.9159C19.6365 84.7799 19.5405 85.6019 19.3485 86.3819C19.1565 87.1499 18.8445 87.8279 18.4125 88.4159C17.9925 89.0039 17.4405 89.4719 16.7565 89.8199C16.0725 90.1559 15.2385 90.3239 14.2545 90.3239ZM14.2545 88.7399C15.5025 88.7399 16.4145 88.3199 16.9905 87.4799C17.5785 86.6279 17.8725 85.2839 17.8725 83.4479C17.8725 81.5279 17.5725 80.1539 16.9725 79.3259C16.3845 78.4979 15.4785 78.0839 14.2545 78.0839C13.0185 78.0839 12.1005 78.4979 11.5005 79.3259C10.9125 80.1539 10.6185 81.5159 10.6185 83.4119C10.6185 85.2599 10.9125 86.6099 11.5005 87.4619C12.0885 88.3139 13.0065 88.7399 14.2545 88.7399Z" fill="#007D70"/>
<path d="M26.9391 90.0719V76.7879H31.2231C32.6631 76.7879 33.7371 77.0939 34.4451 77.7059C35.1531 78.3059 35.5071 79.1759 35.5071 80.3159V80.5679C35.5071 81.2519 35.3751 81.8159 35.1111 82.2599C34.8471 82.6919 34.4811 83.0279 34.0131 83.2679C34.6371 83.4839 35.1291 83.8319 35.4891 84.3119C35.8611 84.7799 36.0471 85.4159 36.0471 86.2199V86.4719C36.0471 87.6239 35.6931 88.5119 34.9851 89.1359C34.2771 89.7599 33.2031 90.0719 31.7631 90.0719H26.9391ZM31.5291 78.3359H28.7031V82.6379H31.5291C32.2731 82.6379 32.8191 82.4399 33.1671 82.0439C33.5271 81.6359 33.7071 81.1199 33.7071 80.4959C33.7071 79.8599 33.5271 79.3439 33.1671 78.9479C32.8191 78.5399 32.2731 78.3359 31.5291 78.3359ZM32.0151 84.1139H28.7031V88.5239H32.0151C32.7231 88.5239 33.2691 88.3259 33.6531 87.9299C34.0491 87.5219 34.2471 86.9819 34.2471 86.3099C34.2471 85.6259 34.0551 85.0919 33.6711 84.7079C33.2871 84.3119 32.7351 84.1139 32.0151 84.1139Z" fill="#007D70"/>
<path d="M41.5855 90.2519C40.4935 90.2519 39.6355 89.9819 39.0115 89.4419C38.3995 88.8899 38.0935 88.1159 38.0935 87.1199C38.0935 86.0999 38.4355 85.3319 39.1195 84.8159C39.8035 84.2879 40.7695 84.0239 42.0175 84.0239H44.4475V83.7899C44.4475 82.4579 43.7755 81.7919 42.4315 81.7919C41.8795 81.7919 41.3035 81.8039 40.7035 81.8279C40.1035 81.8519 39.6055 81.8759 39.2095 81.8999V80.3879C39.5935 80.3519 40.0195 80.3279 40.4875 80.3159C40.9675 80.2919 41.4235 80.2799 41.8555 80.2799C43.3315 80.2799 44.4055 80.5499 45.0775 81.0899C45.7615 81.6299 46.1035 82.5719 46.1035 83.9159V89.9999H44.7355V88.0919C44.3035 89.5319 43.2535 90.2519 41.5855 90.2519ZM41.9455 88.8839C42.3535 88.8839 42.7435 88.8119 43.1155 88.6679C43.4875 88.5119 43.7935 88.2599 44.0335 87.9119C44.2855 87.5519 44.4235 87.0599 44.4475 86.4359V85.3199H41.9455C41.2495 85.3199 40.7155 85.4879 40.3435 85.8239C39.9715 86.1599 39.7855 86.5919 39.7855 87.1199C39.7855 87.6479 39.9715 88.0739 40.3435 88.3979C40.7155 88.7219 41.2495 88.8839 41.9455 88.8839Z" fill="#007D70"/>
<path d="M49.275 89.9999V80.3879H50.643V82.6199C50.859 81.8039 51.243 81.1799 51.795 80.7479C52.359 80.3159 53.091 80.0999 53.991 80.0999H54.063C55.275 80.0999 56.169 80.4779 56.745 81.2339C57.333 81.9899 57.627 83.0819 57.627 84.5099V89.9999H55.899V84.1499C55.899 83.4059 55.689 82.8119 55.269 82.3679C54.849 81.9119 54.273 81.6839 53.541 81.6839C52.785 81.6839 52.173 81.9179 51.705 82.3859C51.237 82.8539 51.003 83.4779 51.003 84.2579V89.9999H49.275Z" fill="#007D70"/>
<path d="M63.4527 90.2519C62.3607 90.2519 61.5027 89.9819 60.8787 89.4419C60.2667 88.8899 59.9607 88.1159 59.9607 87.1199C59.9607 86.0999 60.3027 85.3319 60.9867 84.8159C61.6707 84.2879 62.6367 84.0239 63.8847 84.0239H66.3147V83.7899C66.3147 82.4579 65.6427 81.7919 64.2987 81.7919C63.7467 81.7919 63.1707 81.8039 62.5707 81.8279C61.9707 81.8519 61.4727 81.8759 61.0767 81.8999V80.3879C61.4607 80.3519 61.8867 80.3279 62.3547 80.3159C62.8347 80.2919 63.2907 80.2799 63.7227 80.2799C65.1987 80.2799 66.2727 80.5499 66.9447 81.0899C67.6287 81.6299 67.9707 82.5719 67.9707 83.9159V89.9999H66.6027V88.0919C66.1707 89.5319 65.1207 90.2519 63.4527 90.2519ZM63.8127 88.8839C64.2207 88.8839 64.6107 88.8119 64.9827 88.6679C65.3547 88.5119 65.6607 88.2599 65.9007 87.9119C66.1527 87.5519 66.2907 87.0599 66.3147 86.4359V85.3199H63.8127C63.1167 85.3199 62.5827 85.4879 62.2107 85.8239C61.8387 86.1599 61.6527 86.5919 61.6527 87.1199C61.6527 87.6479 61.8387 88.0739 62.2107 88.3979C62.5827 88.7219 63.1167 88.8839 63.8127 88.8839Z" fill="#007D70"/>
<path d="M71.1422 89.9999V80.3879H72.5102V82.6199C72.7262 81.8039 73.1102 81.1799 73.6622 80.7479C74.2262 80.3159 74.9582 80.0999 75.8582 80.0999H75.9302C77.1422 80.0999 78.0362 80.4779 78.6122 81.2339C79.2002 81.9899 79.4942 83.0819 79.4942 84.5099V89.9999H77.7662V84.1499C77.7662 83.4059 77.5562 82.8119 77.1362 82.3679C76.7162 81.9119 76.1402 81.6839 75.4082 81.6839C74.6522 81.6839 74.0402 81.9179 73.5722 82.3859C73.1042 82.8539 72.8702 83.4779 72.8702 84.2579V89.9999H71.1422Z" fill="#007D70"/>
<path d="M85.3199 90.2519C84.2279 90.2519 83.3699 89.9819 82.7459 89.4419C82.1339 88.8899 81.8279 88.1159 81.8279 87.1199C81.8279 86.0999 82.1699 85.3319 82.8539 84.8159C83.5379 84.2879 84.5039 84.0239 85.7519 84.0239H88.1819V83.7899C88.1819 82.4579 87.5099 81.7919 86.1659 81.7919C85.6139 81.7919 85.0379 81.8039 84.4379 81.8279C83.8379 81.8519 83.3399 81.8759 82.9439 81.8999V80.3879C83.3279 80.3519 83.7539 80.3279 84.2219 80.3159C84.7019 80.2919 85.1579 80.2799 85.5899 80.2799C87.0659 80.2799 88.1399 80.5499 88.8119 81.0899C89.4959 81.6299 89.8379 82.5719 89.8379 83.9159V89.9999H88.4699V88.0919C88.0379 89.5319 86.9879 90.2519 85.3199 90.2519ZM85.6799 88.8839C86.0879 88.8839 86.4779 88.8119 86.8499 88.6679C87.2219 88.5119 87.5279 88.2599 87.7679 87.9119C88.0199 87.5519 88.1579 87.0599 88.1819 86.4359V85.3199H85.6799C84.9839 85.3199 84.4499 85.4879 84.0779 85.8239C83.7059 86.1599 83.5199 86.5919 83.5199 87.1199C83.5199 87.6479 83.7059 88.0739 84.0779 88.3979C84.4499 88.7219 84.9839 88.8839 85.6799 88.8839Z" fill="#007D70"/>
<path d="M96.1594 90.2879C94.8994 90.2879 93.9214 90.0179 93.2254 89.4779C92.5414 88.9379 92.1874 88.1999 92.1634 87.2639H93.7834C93.8074 87.6359 93.9934 87.9899 94.3414 88.3259C94.7014 88.6499 95.3074 88.8119 96.1594 88.8119C96.9274 88.8119 97.5154 88.6619 97.9234 88.3619C98.3314 88.0499 98.5354 87.6719 98.5354 87.2279C98.5354 86.8319 98.3854 86.5259 98.0854 86.3099C97.7854 86.0819 97.2994 85.9319 96.6274 85.8599L95.5834 85.7519C94.6714 85.6559 93.9274 85.3859 93.3514 84.9419C92.7754 84.4859 92.4874 83.8499 92.4874 83.0339C92.4874 82.1099 92.8294 81.3899 93.5134 80.8739C94.1974 80.3579 95.0794 80.0999 96.1594 80.0999C97.2394 80.0999 98.1154 80.3399 98.7874 80.8199C99.4594 81.2999 99.8074 82.0139 99.8314 82.9619H98.2114C98.1994 82.5779 98.0194 82.2539 97.6714 81.9899C97.3354 81.7139 96.8314 81.5759 96.1594 81.5759C95.4874 81.5759 94.9774 81.7139 94.6294 81.9899C94.2814 82.2659 94.1074 82.6139 94.1074 83.0339C94.1074 83.3939 94.2274 83.6819 94.4674 83.8979C94.7194 84.1139 95.1274 84.2519 95.6914 84.3119L96.7354 84.4199C97.7674 84.5279 98.5954 84.8159 99.2194 85.2839C99.8434 85.7399 100.155 86.3879 100.155 87.2279C100.155 87.8279 99.9814 88.3619 99.6334 88.8299C99.2974 89.2859 98.8294 89.6459 98.2294 89.9099C97.6294 90.1619 96.9394 90.2879 96.1594 90.2879Z" fill="#007D70"/>
<path d="M102.93 92.8259L101.544 92.3039L103.218 87.6599L104.64 88.1999L102.93 92.8259ZM102.426 83.3399V81.1439H104.514V83.3399H102.426Z" fill="#007D70"/>
<path d="M5.72386 115.324C4.78786 115.324 3.95386 115.156 3.22186 114.82C2.50186 114.484 1.93186 114.016 1.51186 113.416C1.10386 112.816 0.899859 112.12 0.899859 111.328C0.899859 110.548 1.12186 109.876 1.56586 109.312C2.00986 108.748 2.57986 108.334 3.27586 108.07V107.89C2.72386 107.65 2.26186 107.296 1.88986 106.828C1.51786 106.36 1.33186 105.784 1.33186 105.1C1.33186 104.344 1.52986 103.702 1.92586 103.174C2.33386 102.646 2.86786 102.244 3.52786 101.968C4.19986 101.68 4.93186 101.536 5.72386 101.536C6.52786 101.536 7.25986 101.68 7.91986 101.968C8.59186 102.244 9.12586 102.646 9.52186 103.174C9.91786 103.702 10.1159 104.344 10.1159 105.1C10.1159 105.784 9.92986 106.36 9.55786 106.828C9.19786 107.296 8.73586 107.65 8.17186 107.89V108.07C8.87986 108.334 9.45586 108.748 9.89986 109.312C10.3439 109.876 10.5659 110.548 10.5659 111.328C10.5659 112.12 10.3559 112.816 9.93586 113.416C9.52786 114.016 8.95786 114.484 8.22586 114.82C7.50586 115.156 6.67186 115.324 5.72386 115.324ZM5.72386 107.314C6.53986 107.314 7.19386 107.14 7.68586 106.792C8.17786 106.432 8.42386 105.886 8.42386 105.154C8.42386 104.41 8.17186 103.87 7.66786 103.534C7.17586 103.186 6.52786 103.012 5.72386 103.012C4.91986 103.012 4.26586 103.186 3.76186 103.534C3.26986 103.882 3.02386 104.422 3.02386 105.154C3.02386 105.886 3.26986 106.432 3.76186 106.792C4.26586 107.14 4.91986 107.314 5.72386 107.314ZM5.72386 113.848C6.71986 113.848 7.49386 113.62 8.04586 113.164C8.59786 112.696 8.87386 112.06 8.87386 111.256C8.87386 110.464 8.59786 109.84 8.04586 109.384C7.49386 108.916 6.71986 108.682 5.72386 108.682C4.73986 108.682 3.97186 108.916 3.41986 109.384C2.86786 109.84 2.59186 110.464 2.59186 111.256C2.59186 112.06 2.86786 112.696 3.41986 113.164C3.97186 113.62 4.73986 113.848 5.72386 113.848Z" fill="#007D70"/>
<path d="M17.4645 115V101.86H19.8045L23.6925 110.626H23.9805L27.8505 101.86H30.2085V115H28.4445V104.11L24.8445 112.282H22.6845L19.0845 104.146V115H17.4645Z" fill="#007D70"/>
<path d="M36.4351 115.252C35.3431 115.252 34.4851 114.982 33.8611 114.442C33.2491 113.89 32.9431 113.116 32.9431 112.12C32.9431 111.1 33.2851 110.332 33.9691 109.816C34.6531 109.288 35.6191 109.024 36.8671 109.024H39.2971V108.79C39.2971 107.458 38.6251 106.792 37.2811 106.792C36.7291 106.792 36.1531 106.804 35.5531 106.828C34.9531 106.852 34.4551 106.876 34.0591 106.9V105.388C34.4431 105.352 34.8691 105.328 35.3371 105.316C35.8171 105.292 36.2731 105.28 36.7051 105.28C38.1811 105.28 39.2551 105.55 39.9271 106.09C40.6111 106.63 40.9531 107.572 40.9531 108.916V115H39.5851V113.092C39.1531 114.532 38.1031 115.252 36.4351 115.252ZM36.7951 113.884C37.2031 113.884 37.5931 113.812 37.9651 113.668C38.3371 113.512 38.6431 113.26 38.8831 112.912C39.1351 112.552 39.2731 112.06 39.2971 111.436V110.32H36.7951C36.0991 110.32 35.5651 110.488 35.1931 110.824C34.8211 111.16 34.6351 111.592 34.6351 112.12C34.6351 112.648 34.8211 113.074 35.1931 113.398C35.5651 113.722 36.0991 113.884 36.7951 113.884Z" fill="#007D70"/>
<path d="M48.2466 115.324C47.4186 115.324 46.6986 115.18 46.0866 114.892C45.4866 114.604 44.9886 114.22 44.5926 113.74C44.1966 113.248 43.8966 112.708 43.6926 112.12C43.5006 111.532 43.4046 110.944 43.4046 110.356V110.032C43.4046 109.42 43.5006 108.82 43.6926 108.232C43.8966 107.644 44.1966 107.116 44.5926 106.648C45.0006 106.168 45.5046 105.784 46.1046 105.496C46.7046 105.208 47.4066 105.064 48.2106 105.064C49.0146 105.064 49.7346 105.214 50.3706 105.514C51.0186 105.814 51.5346 106.24 51.9186 106.792C52.3146 107.332 52.5366 107.974 52.5846 108.718H50.9286C50.8446 108.118 50.5686 107.62 50.1006 107.224C49.6326 106.816 49.0026 106.612 48.2106 106.612C47.5266 106.612 46.9566 106.768 46.5006 107.08C46.0446 107.392 45.7026 107.818 45.4746 108.358C45.2466 108.898 45.1326 109.51 45.1326 110.194C45.1326 110.854 45.2466 111.46 45.4746 112.012C45.7026 112.552 46.0446 112.984 46.5006 113.308C46.9686 113.62 47.5506 113.776 48.2466 113.776C49.0506 113.776 49.6986 113.572 50.1906 113.164C50.6826 112.744 50.9646 112.228 51.0366 111.616H52.6926C52.6566 112.372 52.4346 113.026 52.0266 113.578C51.6306 114.13 51.1026 114.562 50.4426 114.874C49.7946 115.174 49.0626 115.324 48.2466 115.324ZM48.1026 119.356C47.8746 119.356 47.6526 119.338 47.4366 119.302C47.2326 119.278 47.0466 119.242 46.8786 119.194V118.042C47.0466 118.09 47.2386 118.126 47.4546 118.15C47.6826 118.186 47.8986 118.204 48.1026 118.204C48.4866 118.204 48.7686 118.138 48.9486 118.006C49.1286 117.886 49.2186 117.73 49.2186 117.538C49.2186 117.346 49.1406 117.19 48.9846 117.07C48.8406 116.962 48.5946 116.908 48.2466 116.908H47.5626V114.82H48.6066V115.882C49.1586 115.942 49.6026 116.11 49.9386 116.386C50.2746 116.662 50.4426 117.034 50.4426 117.502C50.4426 118.018 50.2326 118.456 49.8126 118.816C49.4046 119.176 48.8346 119.356 48.1026 119.356Z" fill="#007D70"/>
<path d="M57.7046 115.252C56.6126 115.252 55.7546 114.982 55.1306 114.442C54.5186 113.89 54.2126 113.116 54.2126 112.12C54.2126 111.1 54.5546 110.332 55.2386 109.816C55.9226 109.288 56.8886 109.024 58.1366 109.024H60.5666V108.79C60.5666 107.458 59.8946 106.792 58.5506 106.792C57.9986 106.792 57.4226 106.804 56.8226 106.828C56.2226 106.852 55.7246 106.876 55.3286 106.9V105.388C55.7126 105.352 56.1386 105.328 56.6066 105.316C57.0866 105.292 57.5426 105.28 57.9746 105.28C59.4506 105.28 60.5246 105.55 61.1966 106.09C61.8806 106.63 62.2226 107.572 62.2226 108.916V115H60.8546V113.092C60.4226 114.532 59.3726 115.252 57.7046 115.252ZM58.0646 113.884C58.4726 113.884 58.8626 113.812 59.2346 113.668C59.6066 113.512 59.9126 113.26 60.1526 112.912C60.4046 112.552 60.5426 112.06 60.5666 111.436V110.32H58.0646C57.3686 110.32 56.8346 110.488 56.4626 110.824C56.0906 111.16 55.9046 111.592 55.9046 112.12C55.9046 112.648 56.0906 113.074 56.4626 113.398C56.8346 113.722 57.3686 113.884 58.0646 113.884ZM59.6306 103.462C59.2346 103.462 58.9046 103.39 58.6406 103.246C58.3886 103.09 58.1486 102.94 57.9206 102.796C57.6926 102.64 57.4226 102.562 57.1106 102.562C56.8586 102.562 56.6246 102.628 56.4086 102.76C56.2046 102.88 56.0186 103.048 55.8506 103.264L55.5626 102.112C55.7426 101.884 55.9646 101.692 56.2286 101.536C56.5046 101.38 56.8166 101.302 57.1646 101.302C57.5606 101.302 57.8846 101.38 58.1366 101.536C58.4006 101.68 58.6466 101.83 58.8746 101.986C59.1146 102.13 59.3846 102.202 59.6846 102.202C59.9366 102.202 60.1706 102.142 60.3866 102.022C60.6026 101.89 60.7946 101.716 60.9626 101.5L61.2506 102.652C61.0706 102.88 60.8426 103.072 60.5666 103.228C60.2906 103.384 59.9786 103.462 59.6306 103.462Z" fill="#007D70"/>
<path d="M68.5441 115.288C67.2841 115.288 66.3061 115.018 65.6101 114.478C64.9261 113.938 64.5721 113.2 64.5481 112.264H66.1681C66.1921 112.636 66.3781 112.99 66.7261 113.326C67.0861 113.65 67.6921 113.812 68.5441 113.812C69.3121 113.812 69.9001 113.662 70.3081 113.362C70.7161 113.05 70.9201 112.672 70.9201 112.228C70.9201 111.832 70.7701 111.526 70.4701 111.31C70.1701 111.082 69.6841 110.932 69.0121 110.86L67.9681 110.752C67.0561 110.656 66.3121 110.386 65.7361 109.942C65.1601 109.486 64.8721 108.85 64.8721 108.034C64.8721 107.11 65.2141 106.39 65.8981 105.874C66.5821 105.358 67.4641 105.1 68.5441 105.1C69.6241 105.1 70.5001 105.34 71.1721 105.82C71.8441 106.3 72.1921 107.014 72.2161 107.962H70.5961C70.5841 107.578 70.4041 107.254 70.0561 106.99C69.7201 106.714 69.2161 106.576 68.5441 106.576C67.8721 106.576 67.3621 106.714 67.0141 106.99C66.6661 107.266 66.4921 107.614 66.4921 108.034C66.4921 108.394 66.6121 108.682 66.8521 108.898C67.1041 109.114 67.5121 109.252 68.0761 109.312L69.1201 109.42C70.1521 109.528 70.9801 109.816 71.6041 110.284C72.2281 110.74 72.5401 111.388 72.5401 112.228C72.5401 112.828 72.3661 113.362 72.0181 113.83C71.6821 114.286 71.2141 114.646 70.6141 114.91C70.0141 115.162 69.3241 115.288 68.5441 115.288Z" fill="#007D70"/>
<path d="M75.3145 117.826L73.9285 117.304L75.6025 112.66L77.0245 113.2L75.3145 117.826ZM74.8105 108.34V106.144H76.8985V108.34H74.8105Z" fill="#007D70"/>
<path d="M5.72386 140.324C4.78786 140.324 3.95386 140.156 3.22186 139.82C2.50186 139.484 1.93186 139.016 1.51186 138.416C1.10386 137.816 0.899859 137.12 0.899859 136.328C0.899859 135.548 1.12186 134.876 1.56586 134.312C2.00986 133.748 2.57986 133.334 3.27586 133.07V132.89C2.72386 132.65 2.26186 132.296 1.88986 131.828C1.51786 131.36 1.33186 130.784 1.33186 130.1C1.33186 129.344 1.52986 128.702 1.92586 128.174C2.33386 127.646 2.86786 127.244 3.52786 126.968C4.19986 126.68 4.93186 126.536 5.72386 126.536C6.52786 126.536 7.25986 126.68 7.91986 126.968C8.59186 127.244 9.12586 127.646 9.52186 128.174C9.91786 128.702 10.1159 129.344 10.1159 130.1C10.1159 130.784 9.92986 131.36 9.55786 131.828C9.19786 132.296 8.73586 132.65 8.17186 132.89V133.07C8.87986 133.334 9.45586 133.748 9.89986 134.312C10.3439 134.876 10.5659 135.548 10.5659 136.328C10.5659 137.12 10.3559 137.816 9.93586 138.416C9.52786 139.016 8.95786 139.484 8.22586 139.82C7.50586 140.156 6.67186 140.324 5.72386 140.324ZM5.72386 132.314C6.53986 132.314 7.19386 132.14 7.68586 131.792C8.17786 131.432 8.42386 130.886 8.42386 130.154C8.42386 129.41 8.17186 128.87 7.66786 128.534C7.17586 128.186 6.52786 128.012 5.72386 128.012C4.91986 128.012 4.26586 128.186 3.76186 128.534C3.26986 128.882 3.02386 129.422 3.02386 130.154C3.02386 130.886 3.26986 131.432 3.76186 131.792C4.26586 132.14 4.91986 132.314 5.72386 132.314ZM5.72386 138.848C6.71986 138.848 7.49386 138.62 8.04586 138.164C8.59786 137.696 8.87386 137.06 8.87386 136.256C8.87386 135.464 8.59786 134.84 8.04586 134.384C7.49386 133.916 6.71986 133.682 5.72386 133.682C4.73986 133.682 3.97186 133.916 3.41986 134.384C2.86786 134.84 2.59186 135.464 2.59186 136.256C2.59186 137.06 2.86786 137.696 3.41986 138.164C3.97186 138.62 4.73986 138.848 5.72386 138.848Z" fill="#007D70"/>
<path d="M17.4645 140V126.86H19.2285V138.416H24.8805V140H17.4645Z" fill="#007D70"/>
<path d="M29.6675 140.252C28.5755 140.252 27.7175 139.982 27.0935 139.442C26.4815 138.89 26.1755 138.116 26.1755 137.12C26.1755 136.1 26.5175 135.332 27.2015 134.816C27.8855 134.288 28.8515 134.024 30.0995 134.024H32.5295V133.79C32.5295 132.458 31.8575 131.792 30.5135 131.792C29.9615 131.792 29.3855 131.804 28.7855 131.828C28.1855 131.852 27.6875 131.876 27.2915 131.9V130.388C27.6755 130.352 28.1015 130.328 28.5695 130.316C29.0495 130.292 29.5055 130.28 29.9375 130.28C31.4135 130.28 32.4875 130.55 33.1595 131.09C33.8435 131.63 34.1855 132.572 34.1855 133.916V140H32.8175V138.092C32.3855 139.532 31.3355 140.252 29.6675 140.252ZM30.0275 138.884C30.4355 138.884 30.8255 138.812 31.1975 138.668C31.5695 138.512 31.8755 138.26 32.1155 137.912C32.3675 137.552 32.5055 137.06 32.5295 136.436V135.32H30.0275C29.3315 135.32 28.7975 135.488 28.4255 135.824C28.0535 136.16 27.8675 136.592 27.8675 137.12C27.8675 137.648 28.0535 138.074 28.4255 138.398C28.7975 138.722 29.3315 138.884 30.0275 138.884Z" fill="#007D70"/>
<path d="M37.357 140V130.388H38.725V133.268C38.869 132.236 39.247 131.48 39.859 131C40.471 130.52 41.305 130.28 42.361 130.28H42.685V131.828H42.073C41.113 131.828 40.375 132.086 39.859 132.602C39.343 133.106 39.085 133.838 39.085 134.798V140H37.357Z" fill="#007D70"/>
<path d="M47.3687 140.252C46.2767 140.252 45.4187 139.982 44.7947 139.442C44.1827 138.89 43.8767 138.116 43.8767 137.12C43.8767 136.1 44.2187 135.332 44.9027 134.816C45.5867 134.288 46.5527 134.024 47.8007 134.024H50.2307V133.79C50.2307 132.458 49.5587 131.792 48.2147 131.792C47.6627 131.792 47.0867 131.804 46.4867 131.828C45.8867 131.852 45.3887 131.876 44.9927 131.9V130.388C45.3767 130.352 45.8027 130.328 46.2707 130.316C46.7507 130.292 47.2067 130.28 47.6387 130.28C49.1147 130.28 50.1887 130.55 50.8607 131.09C51.5447 131.63 51.8867 132.572 51.8867 133.916V140H50.5187V138.092C50.0867 139.532 49.0367 140.252 47.3687 140.252ZM47.7287 138.884C48.1367 138.884 48.5267 138.812 48.8987 138.668C49.2707 138.512 49.5767 138.26 49.8167 137.912C50.0687 137.552 50.2067 137.06 50.2307 136.436V135.32H47.7287C47.0327 135.32 46.4987 135.488 46.1267 135.824C45.7547 136.16 45.5687 136.592 45.5687 137.12C45.5687 137.648 45.7547 138.074 46.1267 138.398C46.4987 138.722 47.0327 138.884 47.7287 138.884Z" fill="#007D70"/>
<path d="M55.0582 140V130.388H56.4262V132.62C56.6422 131.804 57.0262 131.18 57.5782 130.748C58.1422 130.316 58.8742 130.1 59.7742 130.1H59.8462C61.0582 130.1 61.9522 130.478 62.5282 131.234C63.1162 131.99 63.4102 133.082 63.4102 134.51V140H61.6822V134.15C61.6822 133.406 61.4722 132.812 61.0522 132.368C60.6322 131.912 60.0562 131.684 59.3242 131.684C58.5682 131.684 57.9562 131.918 57.4882 132.386C57.0202 132.854 56.7862 133.478 56.7862 134.258V140H55.0582Z" fill="#007D70"/>
<path d="M67.7239 128.696C67.3399 128.696 67.0519 128.594 66.8599 128.39C66.6799 128.186 66.5899 127.928 66.5899 127.616C66.5899 127.304 66.6799 127.046 66.8599 126.842C67.0519 126.638 67.3399 126.536 67.7239 126.536C68.1079 126.536 68.3899 126.638 68.5699 126.842C68.7619 127.046 68.8579 127.304 68.8579 127.616C68.8579 127.928 68.7619 128.186 68.5699 128.39C68.3899 128.594 68.1079 128.696 67.7239 128.696ZM64.8799 143.672V142.124H65.8879C66.3439 142.124 66.6919 141.998 66.9319 141.746C67.1839 141.494 67.3099 141.146 67.3099 140.702V131.756H65.7979V130.388H68.9659V140.45C68.9659 141.254 68.8519 141.89 68.6239 142.358C68.4079 142.826 68.0539 143.162 67.5619 143.366C67.0819 143.57 66.4399 143.672 65.6359 143.672H64.8799Z" fill="#007D70"/>
<path d="M74.9488 140.252C73.8568 140.252 72.9988 139.982 72.3748 139.442C71.7628 138.89 71.4568 138.116 71.4568 137.12C71.4568 136.1 71.7988 135.332 72.4828 134.816C73.1668 134.288 74.1328 134.024 75.3808 134.024H77.8108V133.79C77.8108 132.458 77.1388 131.792 75.7948 131.792C75.2428 131.792 74.6668 131.804 74.0668 131.828C73.4668 131.852 72.9688 131.876 72.5728 131.9V130.388C72.9568 130.352 73.3828 130.328 73.8508 130.316C74.3308 130.292 74.7868 130.28 75.2188 130.28C76.6948 130.28 77.7688 130.55 78.4408 131.09C79.1248 131.63 79.4668 132.572 79.4668 133.916V140H78.0988V138.092C77.6668 139.532 76.6168 140.252 74.9488 140.252ZM75.3088 138.884C75.7168 138.884 76.1068 138.812 76.4788 138.668C76.8508 138.512 77.1568 138.26 77.3968 137.912C77.6488 137.552 77.7868 137.06 77.8108 136.436V135.32H75.3088C74.6128 135.32 74.0788 135.488 73.7068 135.824C73.3348 136.16 73.1488 136.592 73.1488 137.12C73.1488 137.648 73.3348 138.074 73.7068 138.398C74.0788 138.722 74.6128 138.884 75.3088 138.884Z" fill="#007D70"/>
<path d="M85.7883 140.288C84.5283 140.288 83.5503 140.018 82.8543 139.478C82.1703 138.938 81.8163 138.2 81.7923 137.264H83.4123C83.4363 137.636 83.6223 137.99 83.9703 138.326C84.3303 138.65 84.9363 138.812 85.7883 138.812C86.5563 138.812 87.1443 138.662 87.5523 138.362C87.9603 138.05 88.1643 137.672 88.1643 137.228C88.1643 136.832 88.0143 136.526 87.7143 136.31C87.4143 136.082 86.9283 135.932 86.2563 135.86L85.2123 135.752C84.3003 135.656 83.5563 135.386 82.9803 134.942C82.4043 134.486 82.1163 133.85 82.1163 133.034C82.1163 132.11 82.4583 131.39 83.1423 130.874C83.8263 130.358 84.7083 130.1 85.7883 130.1C86.8683 130.1 87.7443 130.34 88.4163 130.82C89.0883 131.3 89.4363 132.014 89.4603 132.962H87.8403C87.8283 132.578 87.6483 132.254 87.3003 131.99C86.9643 131.714 86.4603 131.576 85.7883 131.576C85.1163 131.576 84.6063 131.714 84.2583 131.99C83.9103 132.266 83.7363 132.614 83.7363 133.034C83.7363 133.394 83.8563 133.682 84.0963 133.898C84.3483 134.114 84.7563 134.252 85.3203 134.312L86.3643 134.42C87.3963 134.528 88.2243 134.816 88.8483 135.284C89.4723 135.74 89.7843 136.388 89.7843 137.228C89.7843 137.828 89.6103 138.362 89.2623 138.83C88.9263 139.286 88.4583 139.646 87.8583 139.91C87.2583 140.162 86.5683 140.288 85.7883 140.288Z" fill="#007D70"/>
<path d="M92.5587 142.826L91.1727 142.304L92.8467 137.66L94.2687 138.2L92.5587 142.826ZM92.0547 133.34V131.144H94.1427V133.34H92.0547Z" fill="#007D70"/>
</svg>
